<?xml version="1.0" standalone="no"?>
<!DOCTYPE svg PUBLIC "-//W3C//DTD SVG 1.1//EN" "http://www.w3.org/Graphics/SVG/1.1/DTD/svg11.dtd" >
<svg xmlns="http://www.w3.org/2000/svg" xmlns:xlink="http://www.w3.org/1999/xlink" version="1.1">
<metadata>
Created by FontForge 20170731 at Thu Nov  7 20:18:53 2019
 By Aleksey,,,
Extinction Rebellion / For Non-Commercial Use Only
</metadata>
<defs>
<font id="FUCXEDCAPSLatin+Cyrilic" horiz-adv-x="271" >
  <font-face 
    font-family="FUCXED CAPS Latin + Cyrilic"
    font-weight="400"
    font-variant="small-caps"
    font-stretch="normal"
    units-per-em="1000"
    panose-1="0 0 5 0 0 0 0 0 0 0"
    ascent="800"
    descent="-200"
    cap-height="750"
    bbox="-392 -224 1153 977"
    underline-thickness="50"
    underline-position="-200"
    unicode-range="U+000D-25CA"
  />
<missing-glyph horiz-adv-x="767" 
d="M747 351q0 -150 -106.5 -257.5t-255.5 -107.5q-151 0 -258 107.5t-107 257.5t107 257t258 107q149 0 255.5 -107t106.5 -257zM385 658q-116 0 -203 -74h402q-83 74 -199 74zM160 562q-83 -85 -83 -211q0 -124 83 -212l184 212zM691 351q0 125 -83 211l-186 -211l186 -212
q83 89 83 212zM497 528h-228l116 -132zM269 175h229l-113 131zM385 43q113 0 199 76h-402q89 -76 203 -76z" />
    <glyph glyph-name=".notdef" horiz-adv-x="767" 
d="M747 351q0 -150 -106.5 -257.5t-255.5 -107.5q-151 0 -258 107.5t-107 257.5t107 257t258 107q149 0 255.5 -107t106.5 -257zM385 658q-116 0 -203 -74h402q-83 74 -199 74zM160 562q-83 -85 -83 -211q0 -124 83 -212l184 212zM691 351q0 125 -83 211l-186 -211l186 -212
q83 89 83 212zM497 528h-228l116 -132zM269 175h229l-113 131zM385 43q113 0 199 76h-402q89 -76 203 -76z" />
    <glyph glyph-name=".null" horiz-adv-x="250" 
 />
    <glyph glyph-name="nonmarkingreturn" horiz-adv-x="333" 
 />
    <glyph glyph-name="CR" unicode="&#xd;" horiz-adv-x="250" 
 />
    <glyph glyph-name="space" unicode=" " horiz-adv-x="250" 
 />
    <glyph glyph-name="exclam" unicode="!" horiz-adv-x="285" 
d="M78 268q-18 0 -18 18v30q0 31 0.5 81t0.5 100q0 49 -0.5 104.5t-0.5 91v37.5q0 20 18 20h130q18 0 18 -20v-31.5t-0.5 -85.5t-0.5 -116v-73t0.5 -58.5t0.5 -41v-27v-11.5q0 -18 -19 -18h-129zM143 229q38 0 65 -35.5t27 -86.5t-27 -86.5t-65 -35.5q-39 0 -66 35.5
t-27 86.5t27 86.5t66 35.5z" />
    <glyph glyph-name="quotedbl" unicode="&#x22;" horiz-adv-x="365" 
d="M59 443q-26 0 -28 31l-11 249q-1 13 8.5 20t24.5 7h82q14 0 23 -7t8 -19l-11 -250q-2 -31 -27 -31h-69zM238 443q-26 0 -28 31l-11 249q-1 13 8.5 20t24.5 7h82q14 0 23 -7t8 -19l-11 -250q-2 -31 -27 -31h-69z" />
    <glyph glyph-name="numbersign" unicode="#" horiz-adv-x="582" 
d="M543 600q12 0 16.5 -7t2.5 -15l-7 -73q-5 -26 -25 -26h-62q-16 0 -18 -15l-19 -173q-2 -19 17 -19h56q12 0 17 -7.5t3 -17.5l-8 -71q-5 -25 -25 -25h-60q-16 0 -18 -19l-13 -108q-5 -24 -26 -24h-51q-14 0 -19 7.5t-3 16.5l13 108q2 19 -17 19h-66q-8 0 -13 -6t-5 -13
l-14 -108q-1 -9 -7.5 -16.5t-18.5 -7.5h-52q-23 0 -21 24l14 108q2 19 -15 19h-57q-13 0 -18.5 7.5t-3.5 17.5l7 71q5 25 23 25h61q18 0 21 19v1l20 172q0 15 -14 15h-59q-12 0 -17.5 8t-3.5 18l8 72q2 23 21 23h71q8 0 10 11l14 119q1 8 6.5 14t13.5 6h60q24 0 19 -21
l-14 -118q0 -11 11 -11h78q10 0 12 11l15 119q0 20 19 20h59q23 0 21 -21l-15 -118q0 -11 12 -11h64zM355 464q1 13 -13 15h-81q-13 0 -14 -15l-21 -172q-1 -20 16 -20h72q7 1 13 6.5t7 13.5z" />
    <glyph glyph-name="dollar" unicode="$" horiz-adv-x="441" 
d="M416 210q0 -25 -6.5 -54t-21.5 -64t-47 -62.5t-77 -38.5v-87q0 -25 -25 -25h-52q-25 0 -25 25v85q-55 9 -117 46q-15 9 -15 24v152q0 16 22 2q89 -57 138 -57q36 0 50 20t14 43q0 30 -18 55.5t-71 67.5q-33 27 -53 46t-41 45.5t-30.5 57t-9.5 67.5q0 75 33.5 128.5
t97.5 71.5v89q0 25 25 25h52q25 0 25 -25v-84q46 -5 89 -23q20 -9 20 -26v-138q0 -17 -17 -7q-55 33 -99 33q-32 0 -46 -14.5t-14 -36.5q0 -16 12 -33t23.5 -27.5t39 -31.5t37.5 -29q107 -88 107 -220z" />
    <glyph glyph-name="percent" unicode="%" horiz-adv-x="801" 
d="M361 560q0 -98 -48.5 -152.5t-121.5 -54.5q-74 0 -122.5 54.5t-48.5 152.5q0 97 48.5 151.5t122.5 54.5q73 0 121.5 -54.5t48.5 -151.5zM660 728l-201 -363l-186 -344q-11 -21 -28 -21h-91q-20 0 -9 21l202 368l184 340q11 21 31 21h85q26 0 13 -22zM136 560
q0 -105 55 -105q24 0 40 27.5t16 77.5q0 52 -17 76t-39 24t-38.5 -24t-16.5 -76zM781 191q0 -98 -48.5 -152.5t-121.5 -54.5q-74 0 -122.5 54.5t-48.5 152.5q0 97 48.5 151.5t122.5 54.5q73 0 121.5 -54.5t48.5 -151.5zM556 191q0 -105 55 -105q24 0 40 27.5t16 77.5
q0 52 -17 76t-39 24t-38.5 -24t-16.5 -76z" />
    <glyph glyph-name="ampersand" unicode="&#x26;" horiz-adv-x="556" 
d="M545 29q8 -11 5.5 -20t-17.5 -9h-123q-19 0 -30 17l-27 41q-67 -73 -167 -73q-79 0 -130 54t-51 142q0 140 131 231q-48 89 -48 168q0 83 47 134.5t122 51.5q78 0 122.5 -49t44.5 -129q0 -65 -27 -113t-79 -93l52 -88l19 37q6 12 23 12h109q25 0 12 -26q-41 -81 -82 -142
zM248 475q54 37 54 108q0 31 -11.5 49.5t-31.5 18.5t-31.5 -18.5t-11.5 -49.5q0 -56 32 -108zM282 165l-84 141q-57 -46 -57 -107q0 -31 17.5 -56t47.5 -25q34 0 76 47z" />
    <glyph glyph-name="quotesingle" unicode="'" horiz-adv-x="186" 
d="M59 443q-26 0 -28 31l-11 249q-1 13 8.5 20t24.5 7h82q14 0 23 -7t8 -19l-11 -250q-2 -31 -27 -31h-69z" />
    <glyph glyph-name="parenleft" unicode="(" horiz-adv-x="260" 
d="M243 -66q7 -20 -7 -28l-70 -36q-21 -12 -30 10q-106 259 -106 515q0 259 106 485q10 21 30 10l70 -36q14 -8 7 -28q-83 -229 -83 -437q0 -227 83 -455z" />
    <glyph glyph-name="parenright" unicode=")" horiz-adv-x="260" 
d="M100 389q0 208 -83 437q-7 20 7 28l70 36q20 11 30 -10q106 -226 106 -485q0 -256 -106 -515q-9 -22 -30 -10l-70 36q-14 8 -7 28q83 228 83 455z" />
    <glyph glyph-name="asterisk" unicode="*" horiz-adv-x="395" 
d="M380 579q0 -3 -0.5 -8t-8 -13.5t-21.5 -8.5q-4 0 -15.5 1.5t-30 4t-36.5 3.5q15 -12 31 -24t25 -19t12 -10q8 -10 7.5 -18t-5.5 -13l-5 -6l-15 -15q-2 -3 -5.5 -5.5t-14 -6t-18.5 7.5q-3 3 -10 12.5t-19 25.5t-24 31q1 -19 3.5 -37.5t4 -30t1.5 -15.5q0 -14 -7 -21.5
t-15 -7.5l-7 -1h-19q-3 0 -8 0.5t-13.5 8t-8.5 21.5q0 4 1.5 15t4 29t3.5 36q-16 -19 -32.5 -41t-17.5 -24q-10 -10 -20.5 -10t-16.5 5l-5 5l-14 13q-23 21 0 44q3 3 12 9.5t24 18t30 23.5q-20 -1 -39.5 -3.5t-31.5 -4t-16 -1.5q-13 0 -19 7.5t-6 14.5v7v21q0 3 0.5 7.5
t6.5 12.5t18 8q4 0 15.5 -1.5t31 -4t38.5 -3.5q-14 12 -29 23t-23.5 17.5t-11.5 9.5q-10 10 -10 21t5 17l5 5l14 13q19 23 42 0q3 -3 9.5 -12t17.5 -24t23 -29q-1 19 -3.5 38.5t-4 31.5t-1.5 16q0 13 7 19t15 6h7h21q3 0 7.5 -0.5t12.5 -6.5t8 -18q0 -4 -1.5 -15.5t-4 -31.5
t-3.5 -40q12 14 24 30t19 25t10 12q10 9 18.5 8.5t13.5 -5.5l6 -6l15 -15q1 -1 2.5 -2t4 -5.5t3.5 -8.5t-0.5 -10t-6.5 -12q-2 -2 -12 -9t-25.5 -18t-30.5 -24q18 1 36.5 3.5t30 4t15.5 1.5q14 0 21.5 -7.5t8.5 -14.5v-7v-19z" />
    <glyph glyph-name="plus" unicode="+" horiz-adv-x="487" 
d="M422 439q25 0 25 -25v-68q0 -25 -25 -25h-130v-129q0 -25 -25 -25h-68q-25 0 -25 25v129h-109q-25 0 -25 25v68q0 25 25 25h109v110q0 25 25 25h68q25 0 25 -25v-110h130z" />
    <glyph glyph-name="comma" unicode="," horiz-adv-x="257" 
d="M195 185q41 0 29 -40l-77 -241q-9 -27 -23.5 -38.5t-39.5 -11.5h-38q-41 0 -27 59l54 237q9 35 40 35h82z" />
    <glyph glyph-name="hyphen" unicode="-" horiz-adv-x="335" 
d="M305 341q0 -20 -10 -31.5t-27 -11.5h-199q-18 0 -28.5 11.5t-10.5 31.5v73q0 20 10.5 32t28.5 12h199q17 0 27 -11.5t10 -31.5v-74z" />
    <glyph glyph-name="period" unicode="." horiz-adv-x="265" 
d="M133 229q40 0 66 -34.5t26 -87.5t-26 -87.5t-66 -34.5q-41 0 -67 34.5t-26 87.5t26 87.5t67 34.5z" />
    <glyph glyph-name="slash" unicode="/" horiz-adv-x="373" 
d="M357 794q15 0 10 -16q-43 -149 -130 -492q-98 -385 -102 -401q-7 -27 -27 -27h-82q-14 0 -18 8.5t-1 19.5q14 52 38.5 145t43 162t24.5 93q3 12 26.5 104.5t51 200.5t47.5 187q5 16 20 16h99z" />
    <glyph glyph-name="zero" unicode="0" horiz-adv-x="489" 
d="M245 766q214 0 214 -393q0 -389 -214 -389q-215 0 -215 389q0 393 215 393zM304 373q0 232 -59 232t-59 -232q0 -222 59 -222t59 222z" />
    <glyph glyph-name="one" unicode="1" horiz-adv-x="314" 
d="M264 730q0 -2 -0.5 -23.5t-1 -56.5t-1 -77.5t-1 -95.5t-0.5 -101q0 -88 2 -215.5t2 -141.5q0 -19 -18 -19h-132q-17 0 -17 19q0 69 1.5 204t1.5 153q0 42 -1.5 123t-1.5 95h-56q-8 0 -14.5 5.5t-6.5 14.5v116q0 20 19 20h206q19 0 19 -20z" />
    <glyph glyph-name="two" unicode="2" horiz-adv-x="465" 
d="M401 149q30 0 30 -35v-79q0 -35 -29 -35h-342q-24 0 -30.5 14t3.5 27l184 315q65 111 65 182q0 70 -49 70q-64 0 -64 -106q0 -22 -24 -22h-103q-22 0 -22 23q0 127 56 195t160 68q94 0 146.5 -56.5t52.5 -151.5q0 -101 -35 -177.5t-137 -231.5h138z" />
    <glyph glyph-name="three" unicode="3" horiz-adv-x="473" 
d="M327 402q116 -37 116 -182q0 -108 -55.5 -171.5t-161.5 -63.5q-95 0 -147.5 59.5t-58.5 171.5q-3 32 26 32h89q25 0 28 -28q10 -87 65 -87q61 0 61 99q0 89 -82 89q-29 0 -29 32v79q0 12 7.5 19t19.5 7q31 0 48.5 20.5t17.5 58.5t-12 59.5t-33 21.5q-39 0 -51 -59
q-2 -9 -4 -14.5t-10 -10.5t-21 -5h-81q-30 0 -27 39q11 100 60.5 149t143.5 49q86 0 139 -53.5t53 -142.5q0 -127 -101 -162q-4 -2 -4 -3t4 -3z" />
    <glyph glyph-name="four" unicode="4" horiz-adv-x="486" 
d="M461 212q0 -29 -18 -29h-28q-19 0 -19 -20l1 -144q0 -19 -21 -19h-115q-19 0 -19 20v139q0 24 -22 24h-173q-32 0 -32 25v101q0 17 9 37l84 199q34 81 81 185q9 20 28 20h159q21 0 21 -20q0 -33 -0.5 -99t-0.5 -99l1 -176q0 -26 21 -26h25q18 0 18 -21v-97zM242 578
q-7 0 -86 -228q-7 -20 7 -20h61q18 0 18 24v224z" />
    <glyph glyph-name="five" unicode="5" horiz-adv-x="454" 
d="M256 490q75 0 121.5 -61t46.5 -162q0 -119 -59 -200.5t-170 -81.5q-99 0 -168 66q-8 8 -6 21l17 124q2 9 8 9t15 -10q51 -62 112 -62q44 0 69.5 36t25.5 90q0 52 -26 83t-71 31q-43 0 -103 -24q-8 -3 -11 -3q-11 0 -8 15q7 42 29 200q9 57 21 169q3 20 26 20h259
q20 0 20 -20v-107q0 -22 -23 -22h-146q-11 0 -14 -17l-13 -86q-2 -13 3 -13q28 5 45 5z" />
    <glyph glyph-name="six" unicode="6" horiz-adv-x="484" 
d="M289 482q72 0 121 -61t49 -168q0 -114 -56 -191t-162 -77q-100 0 -158 69t-58 183q0 128 66 266l106 227q9 20 28 20h134q12 0 15 -7t-2 -15l-113 -220q-15 -29 -8 -29q18 3 38 3zM240 116q29 0 46.5 33t17.5 90t-17.5 90.5t-46.5 33.5q-28 0 -44 -33.5t-16 -91.5
q0 -56 16 -89t44 -33z" />
    <glyph glyph-name="seven" unicode="7" horiz-adv-x="437" 
d="M422 750q21 0 14 -21q-19 -55 -60 -186t-52 -166q-50 -156 -108 -357q-6 -20 -20 -20h-137q-24 0 -17 20q79 221 122 357q9 28 65 211q5 14 -11 14h-178q-20 0 -20 16v112q0 20 20 20q16 0 82.5 -0.5t104.5 -0.5q40 0 86 0.5t76.5 0.5h32.5z" />
    <glyph glyph-name="eight" unicode="8" horiz-adv-x="497" 
d="M360 397q53 -23 82.5 -73t29.5 -116q0 -105 -59 -164t-164 -59q-106 0 -165 59t-59 164q0 68 29.5 117.5t82.5 70.5l10 4l-10 5q-38 19 -61.5 61.5t-23.5 95.5q0 98 51 151t146 53q94 0 144.5 -53t50.5 -151q0 -54 -23.5 -95.5t-60.5 -62.5l-7 -4zM248 650
q-22 0 -35.5 -23.5t-13.5 -62.5q0 -45 13.5 -72t35.5 -27t35.5 27t13.5 72q0 39 -13.5 62.5t-35.5 23.5zM247 101q32 0 51 30t19 82q0 53 -19 84.5t-51 31.5q-31 0 -49 -31.5t-18 -84.5q0 -52 18 -82t49 -30z" />
    <glyph glyph-name="nine" unicode="9" horiz-adv-x="467" 
d="M228 766q101 0 157.5 -71t56.5 -198q0 -48 -10 -95t-21.5 -76t-31.5 -74l-106 -231q-9 -21 -26 -21h-137q-22 0 -13 21l120 245q6 10 0 9q-15 -5 -38 -5q-66 0 -110 62.5t-44 165.5q0 126 53.5 197t149.5 71zM233 381q26 0 40.5 33.5t14.5 93.5q0 63 -14.5 98t-40.5 35
t-41 -35t-15 -98q0 -60 15 -93.5t41 -33.5z" />
    <glyph glyph-name="colon" unicode=":" horiz-adv-x="265" 
d="M133 590q40 0 66 -34.5t26 -87.5t-26 -87.5t-66 -34.5q-41 0 -67 34.5t-26 87.5t26 87.5t67 34.5zM133 229q40 0 66 -34.5t26 -87.5t-26 -87.5t-66 -34.5q-41 0 -67 34.5t-26 87.5t26 87.5t67 34.5z" />
    <glyph glyph-name="semicolon" unicode=";" horiz-adv-x="296" 
d="M164 597q40 0 66 -34.5t26 -87.5t-26 -87.5t-66 -34.5q-41 0 -67 34.5t-26 87.5t26 87.5t67 34.5zM195 185q41 0 29 -40l-77 -241q-9 -27 -23.5 -38.5t-39.5 -11.5h-38q-41 0 -27 59l54 237q9 35 40 35h82z" />
    <glyph glyph-name="less" unicode="&#x3c;" horiz-adv-x="487" 
d="M67 358q-27 14 -27 41q0 28 27 41l346 168q34 17 34 -7v-77q0 -30 -15 -37l-188 -87l189 -92q10 -5 12 -12.5t2 -24.5v-79q0 -22 -34 -6z" />
    <glyph glyph-name="equal" unicode="=" horiz-adv-x="487" 
d="M40 509q0 25 25 25h357q25 0 25 -25v-68q0 -25 -25 -25h-357q-25 0 -25 25v68zM40 319q0 25 25 25h357q25 0 25 -25v-68q0 -25 -25 -25h-357q-25 0 -25 25v68z" />
    <glyph glyph-name="greater" unicode="&#x3e;" horiz-adv-x="487" 
d="M420 436q27 -14 27 -41q0 -28 -27 -41l-346 -168q-34 -17 -34 7v77q0 30 15 37l188 87l-189 92q-10 5 -12 12.5t-2 24.5v79q0 22 34 6z" />
    <glyph glyph-name="question" unicode="?" horiz-adv-x="442" 
d="M215 766q101 0 151.5 -54.5t50.5 -142.5q0 -84 -35 -137t-66 -66q-2 -1 -5.5 -2.5t-5.5 -2t-4 -1.5t-3.5 -2t-2.5 -3t-1.5 -3.5t-0.5 -4.5v-55q0 -12 -7 -18t-15 -6h-112q-25 0 -25 24v116q0 24 22 24h25q84 0 84 119q0 36 -11 60.5t-33 24.5q-44 0 -38 -80
q3 -30 -19 -30h-119q-16 0 -19 32q-9 84 40.5 146t148.5 62zM214 229q38 0 65 -35.5t27 -86.5t-27 -86.5t-65 -35.5q-39 0 -66 35.5t-27 86.5t27 86.5t66 35.5z" />
    <glyph glyph-name="at" unicode="@" horiz-adv-x="856" 
d="M592 304q-12 -56 40 -56q103 0 103 154q0 131 -86 204.5t-218 73.5q-129 0 -218.5 -90t-89.5 -216q0 -159 85.5 -232.5t229.5 -73.5q85 0 141 31q16 9 23 -4l31 -53q7 -13 -9 -21q-88 -44 -183 -44q-184 0 -300 103.5t-116 293.5q0 175 117.5 286.5t288.5 111.5
q90 0 161.5 -25t115 -64t72.5 -89.5t40 -97.5t11 -93q0 -120 -62.5 -180.5t-153.5 -60.5q-99 0 -115 65q-20 -29 -59 -45t-82 -16q-61 0 -109.5 45t-48.5 135q0 94 61.5 162.5t160.5 68.5q70 0 110 -47l4 14q7 24 30 24h58q25 0 19 -27zM391 265q49 0 83 39.5t34 96.5
q0 36 -19 57t-53 21q-53 0 -88.5 -38.5t-35.5 -93.5q0 -38 21 -60t58 -22z" />
    <glyph glyph-name="A" unicode="A" horiz-adv-x="558" 
d="M552 28q6 -28 -27 -28h-130q-19 0 -24 19l-16 78q-3 13 -17 13h-118q-14 0 -17 -13l-16 -78q-5 -19 -24 -19h-130q-33 0 -27 28q41 163 85 348q67 281 81 349q5 26 38 26h138q33 0 39 -27l80 -347q48 -206 85 -349zM311 245q19 0 16 20l-48 334h-2l-46 -334
q-3 -20 16 -20h64z" />
    <glyph glyph-name="A" unicode="a" horiz-adv-x="558" 
d="M552 28q6 -28 -27 -28h-130q-19 0 -24 19l-16 78q-3 13 -17 13h-118q-14 0 -17 -13l-16 -78q-5 -19 -24 -19h-130q-33 0 -27 28q41 163 85 348q67 281 81 349q5 26 38 26h138q33 0 39 -27l80 -347q48 -206 85 -349zM311 245q19 0 16 20l-48 334h-2l-46 -334
q-3 -20 16 -20h64z" />
    <glyph glyph-name="B" unicode="B" horiz-adv-x="527" 
d="M364 401q59 -16 98.5 -64t39.5 -125q0 -212 -258 -212h-158q-14 0 -25 8.5t-11 27.5q0 3 1 61t1.5 145t0.5 162q0 66 -0.5 138t-1.5 119.5t-1 51.5q0 37 36 37h164q224 0 224 -178q0 -128 -110 -166q-9 -3 0 -5zM315 544q0 40 -25.5 62t-68.5 20v-175q43 -2 68.5 23
t25.5 70zM221 130q52 1 81.5 27.5t29.5 72.5t-29.5 71.5t-81.5 25.5v-197z" />
    <glyph glyph-name="B" unicode="b" horiz-adv-x="527" 
d="M364 401q59 -16 98.5 -64t39.5 -125q0 -212 -258 -212h-158q-14 0 -25 8.5t-11 27.5q0 3 1 61t1.5 145t0.5 162q0 66 -0.5 138t-1.5 119.5t-1 51.5q0 37 36 37h164q224 0 224 -178q0 -128 -110 -166q-9 -3 0 -5zM315 544q0 40 -25.5 62t-68.5 20v-175q43 -2 68.5 23
t25.5 70zM221 130q52 1 81.5 27.5t29.5 72.5t-29.5 71.5t-81.5 25.5v-197z" />
    <glyph glyph-name="C" unicode="C" horiz-adv-x="468" 
d="M420 164q18 0 18 -20v-112q0 -17 -13 -22q-42 -18 -106 -18q-129 0 -211.5 107t-82.5 274q0 170 82.5 278t211.5 108q69 0 107 -17q12 -5 12 -24v-112q0 -26 -26 -19t-55 7q-69 0 -113 -62.5t-44 -158.5t43 -156t111 -60q20 0 42 3.5t24 3.5z" />
    <glyph glyph-name="C" unicode="c" horiz-adv-x="468" 
d="M420 164q18 0 18 -20v-112q0 -17 -13 -22q-42 -18 -106 -18q-129 0 -211.5 107t-82.5 274q0 170 82.5 278t211.5 108q69 0 107 -17q12 -5 12 -24v-112q0 -26 -26 -19t-55 7q-69 0 -113 -62.5t-44 -158.5t43 -156t111 -60q20 0 42 3.5t24 3.5z" />
    <glyph glyph-name="D" unicode="D" horiz-adv-x="561" 
d="M219 750q155 0 236 -93t81 -268q0 -188 -81 -288.5t-236 -100.5h-136q-15 0 -24 9.5t-9 25.5q0 4 2 157t2 184t-2 183t-2 158q0 15 9 24t24 9h136zM222 155q66 0 105 63t39 171q0 95 -39 150.5t-105 55.5q-3 -49 -3 -219q0 -176 3 -221z" />
    <glyph glyph-name="D" unicode="d" horiz-adv-x="561" 
d="M219 750q155 0 236 -93t81 -268q0 -188 -81 -288.5t-236 -100.5h-136q-15 0 -24 9.5t-9 25.5q0 4 2 157t2 184t-2 183t-2 158q0 15 9 24t24 9h136zM222 155q66 0 105 63t39 171q0 95 -39 150.5t-105 55.5q-3 -49 -3 -219q0 -176 3 -221z" />
    <glyph glyph-name="E" unicode="E" horiz-adv-x="417" 
d="M356 156q26 0 26 -18v-120q0 -18 -25 -18h-278q-15 0 -22 9t-7 20q1 58 2.5 173.5t2.5 173.5q-1 57 -2.5 172.5t-2.5 173.5q0 11 7 19.5t22 8.5h278q25 0 25 -17v-120q0 -18 -26 -18h-130q-5 0 -5 -6v-126q0 -9 5 -9h124q17 0 17 -16v-124q0 -15 -17 -15h-124q-5 0 -5 -8
v-130q0 -5 5 -5h130z" />
    <glyph glyph-name="E" unicode="e" horiz-adv-x="417" 
d="M356 156q26 0 26 -18v-120q0 -18 -25 -18h-278q-15 0 -22 9t-7 20q1 58 2.5 173.5t2.5 173.5q-1 57 -2.5 172.5t-2.5 173.5q0 11 7 19.5t22 8.5h278q25 0 25 -17v-120q0 -18 -26 -18h-130q-5 0 -5 -6v-126q0 -9 5 -9h124q17 0 17 -16v-124q0 -15 -17 -15h-124q-5 0 -5 -8
v-130q0 -5 5 -5h130z" />
    <glyph glyph-name="F" unicode="F" horiz-adv-x="424" 
d="M226 595q-5 0 -5 -5v-128q0 -8 5 -8h131q17 0 17 -15v-114q0 -15 -17 -15h-118q-10 0 -10 -8q0 -61 1 -168.5t1 -110.5q0 -23 -20 -23h-145q-16 0 -16 15q0 42 1 118.5t1.5 139.5t0.5 119t-1.5 169t-1.5 161q0 28 29 28h285q25 0 25 -17v-120q0 -18 -26 -18h-74h-63z" />
    <glyph glyph-name="F" unicode="f" horiz-adv-x="424" 
d="M226 595q-5 0 -5 -5v-128q0 -8 5 -8h131q17 0 17 -15v-114q0 -15 -17 -15h-118q-10 0 -10 -8q0 -61 1 -168.5t1 -110.5q0 -23 -20 -23h-145q-16 0 -16 15q0 42 1 118.5t1.5 139.5t0.5 119t-1.5 169t-1.5 161q0 28 29 28h285q25 0 25 -17v-120q0 -18 -26 -18h-74h-63z" />
    <glyph glyph-name="G" unicode="G" horiz-adv-x="592" 
d="M567 411q0 -426 -266 -426q-72 0 -127 32t-86.5 87.5t-47 123.5t-15.5 148q0 75 13 140t42 123.5t83 92.5t127 34q87 0 154.5 -50t95.5 -137q8 -21 -7 -26q-80 -28 -138 -43q-11 -3 -17 14q-27 87 -86 87q-47 0 -71.5 -65.5t-24.5 -165.5q0 -118 29.5 -174.5t76.5 -56.5
q37 0 63.5 31.5t30.5 86.5q0 10 -10 10h-87q-15 0 -15 11v130q0 13 15 13q92 -2 128 -2q40 0 122 2q18 0 18 -20z" />
    <glyph glyph-name="G" unicode="g" horiz-adv-x="592" 
d="M567 411q0 -426 -266 -426q-72 0 -127 32t-86.5 87.5t-47 123.5t-15.5 148q0 75 13 140t42 123.5t83 92.5t127 34q87 0 154.5 -50t95.5 -137q8 -21 -7 -26q-80 -28 -138 -43q-11 -3 -17 14q-27 87 -86 87q-47 0 -71.5 -65.5t-24.5 -165.5q0 -118 29.5 -174.5t76.5 -56.5
q37 0 63.5 31.5t30.5 86.5q0 10 -10 10h-87q-15 0 -15 11v130q0 13 15 13q92 -2 128 -2q40 0 122 2q18 0 18 -20z" />
    <glyph glyph-name="H" unicode="H" horiz-adv-x="573" 
d="M520 376q0 -23 0.5 -80t1.5 -138.5t1 -121.5q1 -16 -6.5 -26t-21.5 -10h-117q-14 1 -23 11.5t-9 25.5q0 3 3 122t3 136q0 9 -8 9h-115q-8 0 -8 -9q0 -19 3 -137.5t3 -120.5q0 -15 -9 -25.5t-23 -11.5h-118q-29 0 -27 36q4 252 4 341q0 92 -4 350q0 23 27 23h118
q14 0 23 -9t9 -23q-1 -53 -2.5 -114.5t-2.5 -93.5t-1 -44q0 -10 8 -10h115q8 0 8 10q0 12 -1 44.5t-2.5 95t-2.5 112.5q0 14 9 23t23 9h117q14 0 21.5 -6.5t6.5 -16.5q0 -41 -1 -125.5t-1.5 -143t-0.5 -82.5z" />
    <glyph glyph-name="H" unicode="h" horiz-adv-x="573" 
d="M520 376q0 -23 0.5 -80t1.5 -138.5t1 -121.5q1 -16 -6.5 -26t-21.5 -10h-117q-14 1 -23 11.5t-9 25.5q0 3 3 122t3 136q0 9 -8 9h-115q-8 0 -8 -9q0 -19 3 -137.5t3 -120.5q0 -15 -9 -25.5t-23 -11.5h-118q-29 0 -27 36q4 252 4 341q0 92 -4 350q0 23 27 23h118
q14 0 23 -9t9 -23q-1 -53 -2.5 -114.5t-2.5 -93.5t-1 -44q0 -10 8 -10h115q8 0 8 10q0 12 -1 44.5t-2.5 95t-2.5 112.5q0 14 9 23t23 9h117q14 0 21.5 -6.5t6.5 -16.5q0 -41 -1 -125.5t-1.5 -143t-0.5 -82.5z" />
    <glyph glyph-name="I" unicode="I" 
d="M221 732q0 -3 -0.5 -78.5t-1 -162t-0.5 -114.5t0.5 -114.5t1 -162.5t0.5 -79q0 -21 -25 -21h-122q-9 0 -16.5 5.5t-7.5 15.5q0 2 1 80t1.5 165t0.5 111q0 25 -0.5 111t-1.5 163.5t-1 80.5q0 18 24 18h123q24 0 24 -18z" />
    <glyph glyph-name="J" unicode="J" horiz-adv-x="368" 
d="M298 750q20 0 20 -19q0 -1 -1 -44.5t-1.5 -108.5t-0.5 -120q0 -40 -0.5 -106.5t-0.5 -82.5q0 -53 -3 -90t-13 -75t-28 -61t-49 -37.5t-75 -14.5q-63 0 -110 22q-16 8 -16 30v128q0 21 21 13q37 -13 53 -13q28 0 39 16t15 64q3 44 1 207q0 56 -0.5 121.5t-1.5 108.5l-1 43
q0 19 21 19h131z" />
    <glyph glyph-name="J" unicode="j" horiz-adv-x="368" 
d="M298 750q20 0 20 -19q0 -1 -1 -44.5t-1.5 -108.5t-0.5 -120q0 -40 -0.5 -106.5t-0.5 -82.5q0 -53 -3 -90t-13 -75t-28 -61t-49 -37.5t-75 -14.5q-63 0 -110 22q-16 8 -16 30v128q0 21 21 13q37 -13 53 -13q28 0 39 16t15 64q3 44 1 207q0 56 -0.5 121.5t-1.5 108.5l-1 43
q0 19 21 19h131z" />
    <glyph glyph-name="K" unicode="K" horiz-adv-x="531" 
d="M520 20q8 -20 -20 -20h-141q-20 0 -27 20q-10 29 -35.5 96.5t-47 123.5t-22.5 58q-4 10 -6 10q-3 0 -3 -8q0 -28 1.5 -151.5t1.5 -128.5q0 -20 -20 -20h-131q-20 0 -20 20l2 166q2 165 2 191t-2 189.5t-2 164.5q0 19 20 19h131q20 0 20 -19q0 -3 -1.5 -119t-1.5 -154
q0 -7 3 -7q2 0 6 9l110 270q8 20 25 20h144q20 0 9 -21q-93 -177 -170 -340q21 -46 91.5 -194t83.5 -175z" />
    <glyph glyph-name="K" unicode="k" horiz-adv-x="531" 
d="M520 20q8 -20 -20 -20h-141q-20 0 -27 20q-10 29 -35.5 96.5t-47 123.5t-22.5 58q-4 10 -6 10q-3 0 -3 -8q0 -28 1.5 -151.5t1.5 -128.5q0 -20 -20 -20h-131q-20 0 -20 20l2 166q2 165 2 191t-2 189.5t-2 164.5q0 19 20 19h131q20 0 20 -19q0 -3 -1.5 -119t-1.5 -154
q0 -7 3 -7q2 0 6 9l110 270q8 20 25 20h144q20 0 9 -21q-93 -177 -170 -340q21 -46 91.5 -194t83.5 -175z" />
    <glyph glyph-name="L" unicode="L" horiz-adv-x="402" 
d="M372 85v-66q0 -19 -21 -19h-282q-19 0 -19 19q0 3 1 80t1.5 164t0.5 114q0 26 -0.5 112.5t-1.5 162.5t-1 79q0 19 18 19h135q18 0 18 -19q0 -5 -1 -163t-1 -195v-191q0 -19 16 -19h117q20 0 20 -16v-62z" />
    <glyph glyph-name="L" unicode="l" horiz-adv-x="402" 
d="M372 85v-66q0 -19 -21 -19h-282q-19 0 -19 19q0 3 1 80t1.5 164t0.5 114q0 26 -0.5 112.5t-1.5 162.5t-1 79q0 19 18 19h135q18 0 18 -19q0 -5 -1 -163t-1 -195v-191q0 -19 16 -19h117q20 0 20 -16v-62z" />
    <glyph glyph-name="M" unicode="M" horiz-adv-x="687" 
d="M217 415q-3 -56 -14 -209.5t-13 -186.5q-2 -19 -15 -19h-130q-17 0 -15 20q24 264 32 328q13 108 34 383q2 19 19 19h138q17 0 20 -19l30 -178q32 -190 37 -230h4q8 54 23.5 140t16.5 90l30 178q3 19 20 19h138q17 0 19 -19q11 -148 34 -383q13 -123 32 -328
q2 -20 -15 -20h-135q-12 0 -14 19q-17 279 -18 396h-4l-69 -396q-3 -19 -17 -19h-87q-14 0 -17 19l-60 396h-4z" />
    <glyph glyph-name="M" unicode="m" horiz-adv-x="687" 
d="M217 415q-3 -56 -14 -209.5t-13 -186.5q-2 -19 -15 -19h-130q-17 0 -15 20q24 264 32 328q13 108 34 383q2 19 19 19h138q17 0 20 -19l30 -178q32 -190 37 -230h4q8 54 23.5 140t16.5 90l30 178q3 19 20 19h138q17 0 19 -19q11 -148 34 -383q13 -123 32 -328
q2 -20 -15 -20h-135q-12 0 -14 19q-17 279 -18 396h-4l-69 -396q-3 -19 -17 -19h-87q-14 0 -17 19l-60 396h-4z" />
    <glyph glyph-name="N" unicode="N" horiz-adv-x="600" 
d="M217 407q-2 -128 -2 -195q0 -30 0.5 -75.5t1 -80t0.5 -36.5q0 -20 -23 -20h-124q-20 0 -20 20q0 1 1.5 168t1.5 189t-1.5 187t-1.5 167q0 19 16 19h133q18 0 26 -19q92 -215 154 -377h4q0 42 1 107t1 82q0 25 -0.5 70t-1 80.5t-0.5 37.5q0 19 21 19h124q22 0 22 -19
q0 -1 -1.5 -166t-1.5 -188t1.5 -189.5t1.5 -167.5q0 -20 -19 -20h-124q-25 0 -32 20q-20 41 -73.5 176t-80.5 211h-4z" />
    <glyph glyph-name="N" unicode="n" horiz-adv-x="600" 
d="M217 407q-2 -128 -2 -195q0 -30 0.5 -75.5t1 -80t0.5 -36.5q0 -20 -23 -20h-124q-20 0 -20 20q0 1 1.5 168t1.5 189t-1.5 187t-1.5 167q0 19 16 19h133q18 0 26 -19q92 -215 154 -377h4q0 42 1 107t1 82q0 25 -0.5 70t-1 80.5t-0.5 37.5q0 19 21 19h124q22 0 22 -19
q0 -1 -1.5 -166t-1.5 -188t1.5 -189.5t1.5 -167.5q0 -20 -19 -20h-124q-25 0 -32 20q-20 41 -73.5 176t-80.5 211h-4z" />
    <glyph glyph-name="O" unicode="O" horiz-adv-x="622" 
d="M311 766q74 0 131 -33t90 -89.5t49 -124t16 -144.5q0 -76 -16 -143.5t-49 -124t-90 -89.5t-131 -33t-131 33t-90 89.5t-49 124t-16 143.5q0 77 16 144.5t49 124t90 89.5t131 33zM311 140q52 0 80.5 66t28.5 169q0 102 -29.5 169t-79.5 67t-80 -67t-30 -169t29.5 -168.5
t80.5 -66.5z" />
    <glyph glyph-name="O" unicode="o" horiz-adv-x="622" 
d="M311 766q74 0 131 -33t90 -89.5t49 -124t16 -144.5q0 -76 -16 -143.5t-49 -124t-90 -89.5t-131 -33t-131 33t-90 89.5t-49 124t-16 143.5q0 77 16 144.5t49 124t90 89.5t131 33zM311 140q52 0 80.5 66t28.5 169q0 102 -29.5 169t-79.5 67t-80 -67t-30 -169t29.5 -168.5
t80.5 -66.5z" />
    <glyph glyph-name="P" unicode="P" horiz-adv-x="502" 
d="M208 750q128 0 203.5 -64.5t75.5 -173.5q0 -99 -67 -164t-181 -76q-20 -2 -20 -15v-121q0 -19 0.5 -46t0.5 -47.5v-22.5q0 -20 -17 -20h-136q-17 0 -17 20q0 3 1 82t2 165t1 107q0 28 -2 192l-2 165q0 19 22 19h136zM234 418q33 0 58.5 20.5t25.5 74.5q0 48 -26.5 69
t-57.5 21q-14 0 -14 -12v-161q0 -12 14 -12z" />
    <glyph glyph-name="P" unicode="p" horiz-adv-x="502" 
d="M208 750q128 0 203.5 -64.5t75.5 -173.5q0 -99 -67 -164t-181 -76q-20 -2 -20 -15v-121q0 -19 0.5 -46t0.5 -47.5v-22.5q0 -20 -17 -20h-136q-17 0 -17 20q0 3 1 82t2 165t1 107q0 28 -2 192l-2 165q0 19 22 19h136zM234 418q33 0 58.5 20.5t25.5 74.5q0 48 -26.5 69
t-57.5 21q-14 0 -14 -12v-161q0 -12 14 -12z" />
    <glyph glyph-name="Q" unicode="Q" horiz-adv-x="622" 
d="M525 98l60 -68q16 -19 -4 -35l-60 -48q-18 -15 -35 5l-51 62q-56 -29 -124 -29q-74 0 -131 33t-90 89.5t-49 124t-16 143.5q0 77 16 144.5t49 124t90 89.5t131 33t131 -33t90 -89.5t49 -124t16 -144.5q0 -170 -72 -277zM201 375q0 -102 29.5 -168.5t80.5 -66.5q5 0 15 2
l-63 72q-18 20 3 36l59 48q21 15 36 -5l42 -55q17 59 17 137q0 102 -29.5 169t-79.5 67t-80 -67t-30 -169z" />
    <glyph glyph-name="Q" unicode="q" horiz-adv-x="622" 
d="M525 98l60 -68q16 -19 -4 -35l-60 -48q-18 -15 -35 5l-51 62q-56 -29 -124 -29q-74 0 -131 33t-90 89.5t-49 124t-16 143.5q0 77 16 144.5t49 124t90 89.5t131 33t131 -33t90 -89.5t49 -124t16 -144.5q0 -170 -72 -277zM201 375q0 -102 29.5 -168.5t80.5 -66.5q5 0 15 2
l-63 72q-18 20 3 36l59 48q21 15 36 -5l42 -55q17 59 17 137q0 102 -29.5 169t-79.5 67t-80 -67t-30 -169z" />
    <glyph glyph-name="R" unicode="R" horiz-adv-x="509" 
d="M502 19q4 -9 -1 -14t-15 -5h-135q-20 0 -28 19q-1 2 -10 26t-20.5 53.5t-19.5 48.5l-56 151q-1 -72 1 -278q0 -20 -19 -20h-131q-18 0 -18 20q0 63 1 190t1 167q0 29 -0.5 115t-1 161t-0.5 77q0 10 6 15t13 5h160q27 0 53.5 -3.5t64 -17.5t65.5 -37t48 -68t20 -105
q0 -59 -29.5 -107t-85.5 -76l76 -182q38 -88 61 -135zM233 423q39 0 62.5 29t23.5 70t-24.5 65.5t-64.5 24.5q-12 0 -12 -12v-162q0 -15 15 -15z" />
    <glyph glyph-name="R" unicode="r" horiz-adv-x="509" 
d="M502 19q4 -9 -1 -14t-15 -5h-135q-20 0 -28 19q-1 2 -10 26t-20.5 53.5t-19.5 48.5l-56 151q-1 -72 1 -278q0 -20 -19 -20h-131q-18 0 -18 20q0 63 1 190t1 167q0 29 -0.5 115t-1 161t-0.5 77q0 10 6 15t13 5h160q27 0 53.5 -3.5t64 -17.5t65.5 -37t48 -68t20 -105
q0 -59 -29.5 -107t-85.5 -76l76 -182q38 -88 61 -135zM233 423q39 0 62.5 29t23.5 70t-24.5 65.5t-64.5 24.5q-12 0 -12 -12v-162q0 -15 15 -15z" />
    <glyph glyph-name="S" unicode="S" horiz-adv-x="441" 
d="M309 430q107 -88 107 -220q0 -23 -4.5 -48.5t-18.5 -58t-35.5 -58t-61 -43t-89.5 -17.5q-78 0 -162 50q-15 9 -15 24v152q0 16 22 2q89 -57 138 -57q36 0 50 20t14 43q0 30 -18 55.5t-71 67.5q-33 27 -53 46t-41 45.5t-30.5 57t-9.5 67.5q0 92 49.5 150t141.5 58
q72 0 131 -26q20 -9 20 -26v-138q0 -17 -17 -7q-55 33 -99 33q-32 0 -46 -14.5t-14 -36.5q0 -16 12 -33t23.5 -27.5t39 -31.5t37.5 -29z" />
    <glyph glyph-name="S" unicode="s" horiz-adv-x="441" 
d="M309 430q107 -88 107 -220q0 -23 -4.5 -48.5t-18.5 -58t-35.5 -58t-61 -43t-89.5 -17.5q-78 0 -162 50q-15 9 -15 24v152q0 16 22 2q89 -57 138 -57q36 0 50 20t14 43q0 30 -18 55.5t-71 67.5q-33 27 -53 46t-41 45.5t-30.5 57t-9.5 67.5q0 92 49.5 150t141.5 58
q72 0 131 -26q20 -9 20 -26v-138q0 -17 -17 -7q-55 33 -99 33q-32 0 -46 -14.5t-14 -36.5q0 -16 12 -33t23.5 -27.5t39 -31.5t37.5 -29z" />
    <glyph glyph-name="T" unicode="T" horiz-adv-x="432" 
d="M391 750q21 0 21 -19v-122q0 -19 -21 -19h-82q-7 0 -7 -7q0 -1 -1 -83.5t-1 -123.5q0 -82 1 -218t1 -139q0 -19 -18 -19h-134q-19 0 -19 19q0 3 1 139t1 218q0 41 -1 123.5t-1 83.5q0 7 -8 7h-85q-18 0 -18 19v122q0 19 18 19h353z" />
    <glyph glyph-name="T" unicode="t" horiz-adv-x="432" 
d="M391 750q21 0 21 -19v-122q0 -19 -21 -19h-82q-7 0 -7 -7q0 -1 -1 -83.5t-1 -123.5q0 -82 1 -218t1 -139q0 -19 -18 -19h-134q-19 0 -19 19q0 3 1 139t1 218q0 41 -1 123.5t-1 83.5q0 7 -8 7h-85q-18 0 -18 19v122q0 19 18 19h353z" />
    <glyph glyph-name="U" unicode="U" horiz-adv-x="573" 
d="M523 731q0 -12 -0.5 -88t-0.5 -116t0.5 -114t0.5 -103q0 -53 -3 -91t-17 -85.5t-38 -77t-69.5 -50.5t-109.5 -21q-46 0 -82.5 10.5t-60.5 27t-42 43t-27.5 52.5t-15 62t-7 64t-1.5 66q0 29 0.5 103t0.5 114t-0.5 116t-0.5 88q0 19 18 19h133q20 0 20 -19q0 -12 -0.5 -88
t-0.5 -116v-265q0 -23 1 -36.5t4.5 -30.5t10 -26.5t19.5 -16t31 -6.5q19 0 31.5 6.5t19.5 16t10.5 26.5t4.5 30.5t1 36.5v265q0 40 -0.5 116t-0.5 88q0 19 19 19h133q19 0 19 -19z" />
    <glyph glyph-name="U" unicode="u" horiz-adv-x="573" 
d="M523 731q0 -12 -0.5 -88t-0.5 -116t0.5 -114t0.5 -103q0 -53 -3 -91t-17 -85.5t-38 -77t-69.5 -50.5t-109.5 -21q-46 0 -82.5 10.5t-60.5 27t-42 43t-27.5 52.5t-15 62t-7 64t-1.5 66q0 29 0.5 103t0.5 114t-0.5 116t-0.5 88q0 19 18 19h133q20 0 20 -19q0 -12 -0.5 -88
t-0.5 -116v-265q0 -23 1 -36.5t4.5 -30.5t10 -26.5t19.5 -16t31 -6.5q19 0 31.5 6.5t19.5 16t10.5 26.5t4.5 30.5t1 36.5v265q0 40 -0.5 116t-0.5 88q0 19 19 19h133q19 0 19 -19z" />
    <glyph glyph-name="V" unicode="V" horiz-adv-x="556" 
d="M284 281q3 0 4 5q15 117 44 236q10 42 26 125t16 84q3 19 24 19h136q20 0 17 -19q-1 -4 -21 -81t-43.5 -164.5t-28.5 -108.5q-25 -97 -89 -357q-5 -19 -23 -19h-128q-19 0 -24 20q-5 18 -26.5 100.5t-41.5 158t-25 97.5t-28.5 108.5t-45 164t-22.5 81.5q-3 19 15 19h151
q20 0 23 -19q22 -104 43 -209q36 -190 43 -236q1 -5 4 -5z" />
    <glyph glyph-name="V" unicode="v" horiz-adv-x="556" 
d="M284 281q3 0 4 5q15 117 44 236q10 42 26 125t16 84q3 19 24 19h136q20 0 17 -19q-1 -4 -21 -81t-43.5 -164.5t-28.5 -108.5q-25 -97 -89 -357q-5 -19 -23 -19h-128q-19 0 -24 20q-5 18 -26.5 100.5t-41.5 158t-25 97.5t-28.5 108.5t-45 164t-22.5 81.5q-3 19 15 19h151
q20 0 23 -19q22 -104 43 -209q36 -190 43 -236q1 -5 4 -5z" />
    <glyph glyph-name="W" unicode="W" horiz-adv-x="821" 
d="M797 750q23 0 18 -19q-18 -72 -83 -358l-81 -353q-5 -20 -21 -20h-131q-16 0 -19 19l-25 160q-4 25 -14.5 97t-18 122.5t-8.5 50.5t-43 -270l-24 -160q-3 -19 -17 -19h-135q-16 0 -21 19l-80 354q-34 148 -88 358q-5 19 14 19h139q21 0 24 -19q5 -22 25 -145
q42 -259 50 -259q3 0 36 178t41 225q3 20 23 20h104q25 0 28 -19q3 -20 23 -120t39 -192l18 -92q2 0 49 259q21 113 25 145q5 19 26 19h127z" />
    <glyph glyph-name="W" unicode="w" horiz-adv-x="821" 
d="M797 750q23 0 18 -19q-18 -72 -83 -358l-81 -353q-5 -20 -21 -20h-131q-16 0 -19 19l-25 160q-4 25 -14.5 97t-18 122.5t-8.5 50.5t-43 -270l-24 -160q-3 -19 -17 -19h-135q-16 0 -21 19l-80 354q-34 148 -88 358q-5 19 14 19h139q21 0 24 -19q5 -22 25 -145
q42 -259 50 -259q3 0 36 178t41 225q3 20 23 20h104q25 0 28 -19q3 -20 23 -120t39 -192l18 -92q2 0 49 259q21 113 25 145q5 19 26 19h127z" />
    <glyph glyph-name="X" unicode="X" horiz-adv-x="551" 
d="M543 20q13 -19 -17 -19h-150q-19 0 -27 20q-69 176 -74 176t-77 -176q-8 -20 -27 -20h-149q-26 0 -13 19q178 349 178 378q0 12 -37 89.5t-78.5 158t-43.5 85.5q-8 19 17 19h148q22 0 30 -19q1 -3 14.5 -42t24.5 -66.5t14 -27.5q2 0 7.5 12t12.5 31t13.5 36.5t12.5 35
t7 21.5q6 19 33 19h139q22 0 14 -19q-1 -2 -41.5 -82.5t-75.5 -155t-35 -86.5q0 -22 180 -387z" />
    <glyph glyph-name="X" unicode="x" horiz-adv-x="551" 
d="M543 20q13 -19 -17 -19h-150q-19 0 -27 20q-69 176 -74 176t-77 -176q-8 -20 -27 -20h-149q-26 0 -13 19q178 349 178 378q0 12 -37 89.5t-78.5 158t-43.5 85.5q-8 19 17 19h148q22 0 30 -19q1 -3 14.5 -42t24.5 -66.5t14 -27.5q2 0 7.5 12t12.5 31t13.5 36.5t12.5 35
t7 21.5q6 19 33 19h139q22 0 14 -19q-1 -2 -41.5 -82.5t-75.5 -155t-35 -86.5q0 -22 180 -387z" />
    <glyph glyph-name="Y" unicode="Y" horiz-adv-x="514" 
d="M492 750q25 0 15 -21q-59 -122 -97 -211q-42 -98 -67 -170q-2 -90 -2 -169q0 -81 2 -159q-2 -19 -20 -19h-134q-16 0 -18 19q2 68 2 159q0 89 -2 169q-52 131 -69 170q-68 159 -95 212q-5 9 0 14.5t18 5.5h128q24 0 32 -20q8 -18 78 -212q3 7 19.5 55t35 100.5t19.5 56.5
q7 20 29 20h126z" />
    <glyph glyph-name="Y" unicode="y" horiz-adv-x="514" 
d="M492 750q25 0 15 -21q-59 -122 -97 -211q-42 -98 -67 -170q-2 -90 -2 -169q0 -81 2 -159q-2 -19 -20 -19h-134q-16 0 -18 19q2 68 2 159q0 89 -2 169q-52 131 -69 170q-68 159 -95 212q-5 9 0 14.5t18 5.5h128q24 0 32 -20q8 -18 78 -212q3 7 19.5 55t35 100.5t19.5 56.5
q7 20 29 20h126z" />
    <glyph glyph-name="Z" unicode="Z" horiz-adv-x="505" 
d="M477 718q-28 -70 -83.5 -203t-61.5 -149q-38 -96 -74 -205h178q36 0 36 -37v-89q0 -36 -36 -36q-2 0 -68 1t-115 1t-123 -1t-82 -1q-19 0 -22.5 12.5t3.5 23.5q22 48 51 117t60 145.5t38 93.5q65 159 80 207h-186q-19 0 -19 20v113q0 19 19 19q12 0 78 -0.5t108 -0.5
q53 0 125 0.5t75 0.5q32 0 19 -32z" />
    <glyph glyph-name="Z" unicode="z" horiz-adv-x="505" 
d="M477 718q-28 -70 -83.5 -203t-61.5 -149q-38 -96 -74 -205h178q36 0 36 -37v-89q0 -36 -36 -36q-2 0 -68 1t-115 1t-123 -1t-82 -1q-19 0 -22.5 12.5t3.5 23.5q22 48 51 117t60 145.5t38 93.5q65 159 80 207h-186q-19 0 -19 20v113q0 19 19 19q12 0 78 -0.5t108 -0.5
q53 0 125 0.5t75 0.5q32 0 19 -32z" />
    <glyph glyph-name="bracketleft" unicode="[" horiz-adv-x="270" 
d="M206 778q-22 0 -22 -22q0 -1 -3 -130t-3 -250t3 -250.5t3 -130.5q0 -21 22 -21h30q11 0 17.5 -7t6.5 -18v-54q0 -11 -7 -18.5t-18 -7.5h-159q-11 0 -18.5 7.5t-7.5 19.5q0 91 0.5 272.5t0.5 207.5l-1 480q0 27 26 27h159q25 0 25 -26v-54q0 -25 -24 -25h-30z" />
    <glyph glyph-name="backslash" unicode="\" horiz-adv-x="373" 
d="M16 794h99q15 0 20 -16q20 -79 47.5 -187t51 -200.5t26.5 -104.5q6 -24 24.5 -93t43 -162t38.5 -145q4 -11 -0.5 -19.5t-18.5 -8.5h-82q-20 0 -27 27q-4 16 -102 401q-87 343 -130 492q-5 16 10 16z" />
    <glyph glyph-name="bracketright" unicode="]" horiz-adv-x="270" 
d="M64 778h-30q-24 0 -24 25v54q0 26 25 26h159q26 0 26 -27l-1 -480q0 -26 0.5 -207.5t0.5 -272.5q0 -12 -7.5 -19.5t-18.5 -7.5h-159q-11 0 -18 7.5t-7 18.5v54q0 11 6.5 18t17.5 7h30q22 0 22 21q0 1 3 130.5t3 250.5t-3 250t-3 130q0 22 -22 22z" />
    <glyph glyph-name="asciicircum" unicode="^" horiz-adv-x="495" 
d="M45 363q-21 11 -12 33l146 335q9 19 29 19h78q20 0 29 -19l147 -335q9 -22 -12 -33l-55 -26q-24 -11 -33 12l-98 229q-7 16 -17 16t-17 -16l-97 -228q-10 -24 -33 -13z" />
    <glyph glyph-name="underscore" unicode="_" horiz-adv-x="490" 
d="M465 -89q0 -12 -8 -20t-20 -8h-389q-10 0 -16.5 8t-6.5 20v64q0 11 6.5 18.5t16.5 7.5h389q12 0 20 -7.5t8 -18.5v-64z" />
    <glyph glyph-name="grave" unicode="`" horiz-adv-x="600" 
d="M-74 945h129q20 0 34 -20l77 -104q6 -6 3 -13.5t-15 -7.5h-90q-22 0 -40 18q-15 15 -41.5 40.5t-43.5 42.5t-22 23q-18 21 9 21z" />
    <glyph glyph-name="i" unicode="i" 
d="M221 732q0 -3 -0.5 -78.5t-1 -162t-0.5 -114.5t0.5 -114.5t1 -162.5t0.5 -79q0 -21 -25 -21h-122q-9 0 -16.5 5.5t-7.5 15.5q0 2 1 80t1.5 165t0.5 111q0 25 -0.5 111t-1.5 163.5t-1 80.5q0 18 24 18h123q24 0 24 -18z" />
    <glyph glyph-name="braceleft" unicode="{" horiz-adv-x="312" 
d="M237 -133q-83 0 -112.5 35t-29.5 120v218q0 90 -52 103q-23 6 -23 26v30q0 20 23 26q52 13 52 103v218q0 71 26.5 103t93.5 32h62q25 0 25 -25v-27q0 -22 -24 -26q-31 -5 -43.5 -17.5t-12.5 -43.5v-225q0 -58 -17.5 -89t-64.5 -42v-2q48 -9 65 -45t17 -97v-236
q0 -28 12.5 -40.5t43.5 -20.5q24 -6 24 -26v-27q0 -25 -25 -25h-40z" />
    <glyph glyph-name="bar" unicode="|" horiz-adv-x="218" 
d="M143 945q25 0 25 -25v-1095q0 -25 -25 -25h-68q-25 0 -25 25v1095q0 25 25 25h68z" />
    <glyph glyph-name="braceright" unicode="}" horiz-adv-x="312" 
d="M75 -133h-40q-25 0 -25 25v27q0 20 24 26q31 8 43.5 20.5t12.5 40.5v236q0 61 17 97t65 45v2q-47 11 -64.5 42t-17.5 89v225q0 31 -12.5 43.5t-43.5 17.5q-24 4 -24 26v27q0 25 25 25h62q67 0 93.5 -32t26.5 -103v-218q0 -90 52 -103q23 -6 23 -26v-30q0 -20 -23 -26
q-52 -13 -52 -103v-218q0 -85 -29.5 -120t-112.5 -35z" />
    <glyph glyph-name="asciitilde" unicode="~" horiz-adv-x="521" 
d="M474 421q13 -13 2 -35q-49 -99 -114 -99q-39 0 -101.5 33t-80.5 33q-28 0 -59 -50q-15 -22 -35 -2l-38 39q-13 13 -3 34q19 40 53.5 73t72.5 33q39 0 98.5 -33t77.5 -33q25 0 55 43q15 22 35 2z" />
    <glyph glyph-name="uni00A0" unicode="&#xa0;" horiz-adv-x="250" 
 />
    <glyph glyph-name="exclamdown" unicode="&#xa1;" horiz-adv-x="285" 
d="M142 521q-38 0 -65 35.5t-27 86.5t27 86.5t65 35.5q39 0 66 -35.5t27 -86.5t-27 -86.5t-66 -35.5zM207 482q18 0 18 -18l-1 -30v-81v-100v-104.5t0.5 -91t0.5 -37.5q0 -20 -18 -20h-130q-18 0 -18 20q0 1 0.5 31.5t0.5 85.5v116v73v58.5t-0.5 41t-0.5 27v11.5q0 18 19 18
h129z" />
    <glyph glyph-name="cent" unicode="&#xa2;" horiz-adv-x="472" 
d="M360 551q-71 0 -116 -51t-45 -130q0 -77 45 -126.5t116 -49.5q21 0 41.5 3.5t22.5 3.5q18 0 18 -20v-106q0 -17 -13 -22q-39 -16 -94 -18v-101q0 -25 -25 -25h-52q-25 0 -25 25v116q-92 33 -150 122.5t-58 203.5q0 113 58 202.5t150 122.5v116q0 25 25 25h52q25 0 25 -25
v-101q62 -2 95 -17q12 -5 12 -24v-112q0 -20 -18 -20q-2 0 -11 2t-23 4t-30 2z" />
    <glyph glyph-name="sterling" unicode="&#xa3;" horiz-adv-x="534" 
d="M488 130q21 10 21 -13l-1 -87q0 -19 -18 -26q-32 -14 -95 -14q-33 0 -108.5 13t-112.5 13q-59 0 -101 -13q-1 0 -6 -1.5t-8 -2t-6.5 -0.5t-5.5 1.5t-2 5.5v93q0 17 16 35q49 53 49 137q-18 0 -47.5 -0.5t-33.5 -0.5q-19 0 -19 18v59q0 19 19 19q11 0 36 -0.5t37 -0.5
q-1 19 -16.5 79t-15.5 108q0 91 59.5 152.5t162.5 61.5q107 0 161 -59t54 -160q0 -23 -19 -23h-100q-18 0 -18 17q0 33 -17.5 57t-56.5 24q-70 0 -70 -79q0 -35 13 -93t15 -85q18 0 73.5 1t68.5 1q18 0 18 -19v-61q0 -17 -19 -17q-7 0 -63 1t-78 0q-5 -86 -36 -138
q3 -3 8 -4q28 0 82.5 -8t82.5 -8q58 0 97 17z" />
    <glyph glyph-name="currency" unicode="&#xa4;" horiz-adv-x="550" 
d="M60 226l15 15q-35 65 -35 128q0 41 26 110q9 22 -6 34l-21 17q-21 16 0 37l43 46q21 22 38 0l16 -20l15 -16q59 38 123 38q46 0 108 -28q22 -10 34 5l17 21q17 22 37 -1l41 -45q19 -20 -1 -37l-20 -17l-15 -15q36 -60 36 -128q0 -54 -26 -110q-10 -22 5 -35l21 -17
q20 -16 0 -38l-41 -44q-21 -22 -37 -1l-17 21l-15 15q-64 -38 -119 -38q-58 0 -111 27q-23 12 -36 -5l-15 -20q-17 -23 -38 0l-43 45q-21 21 0 38zM276 497q-49 0 -83.5 -37t-34.5 -90q0 -54 34.5 -91.5t83.5 -37.5t83 37.5t34 91.5q0 53 -34 90t-83 37z" />
    <glyph glyph-name="yen" unicode="&#xa5;" horiz-adv-x="514" 
d="M507 729q-59 -122 -97 -211q-30 -72 -42 -104q23 0 55.5 0.5t37.5 0.5q25 0 25 -25v-33q0 -25 -25 -25h-118q-1 -15 -1 -50q28 0 70.5 0.5t48.5 0.5q25 0 25 -25v-33q0 -25 -25 -25h-120v-21q0 -81 2 -159q-2 -19 -20 -19h-134q-16 0 -18 19q2 68 2 159v21h-120
q-25 0 -25 25v33q0 25 25 25q13 0 53 -0.5t66 -0.5q0 35 -1 50h-118q-25 0 -25 25v33q0 25 25 25q11 0 42 -0.5t50 -0.5q-27 68 -43 104q-68 159 -95 212q-5 9 0 14.5t18 5.5h128q24 0 32 -20q8 -18 78 -212q3 7 19.5 55t35 100.5t19.5 56.5q7 20 29 20h126q25 0 15 -21z
" />
    <glyph glyph-name="brokenbar" unicode="&#xa6;" horiz-adv-x="218" 
d="M143 945q25 0 25 -25v-516q0 -25 -25 -25h-68q-25 0 -25 25v516q0 25 25 25h68zM143 301q25 0 25 -25v-451q0 -25 -25 -25h-68q-25 0 -25 25v451q0 25 25 25h68z" />
    <glyph glyph-name="section" unicode="&#xa7;" horiz-adv-x="543" 
d="M224 -26q0 -59 51 -59q48 0 48 59q0 16 -3.5 27.5t-16 22.5t-18.5 15.5t-29.5 17.5t-30.5 17q-44 26 -63 37.5t-47.5 34t-40.5 41t-22.5 46.5t-11.5 62q0 82 60 137q9 9 9 15t-7 14q-41 50 -41 116q0 85 58 137t153 52q99 0 154 -54t55 -151q0 -31 -41 -31h-76
q-19 0 -30 9t-11 24q0 72 -57 72q-50 0 -50 -50q0 -17 7 -30.5t23 -25.5t27.5 -19t34 -17.5t29.5 -14.5q42 -22 67 -38.5t50.5 -41.5t37 -56.5t11.5 -72.5q0 -95 -68 -145q-10 -7 -10 -13q0 -5 7 -12q31 -30 43.5 -57t12.5 -71q0 -79 -61.5 -133t-150.5 -54
q-97 0 -155.5 50.5t-58.5 134.5q0 34 41 34h80q41 0 41 -29zM302 196q21 4 35.5 23.5t14.5 42.5q0 34 -30 58t-92 53q-39 -27 -39 -68q0 -30 30.5 -59t80.5 -50z" />
    <glyph glyph-name="dieresis" unicode="&#xa8;" horiz-adv-x="600" 
d="M80 792q-35 0 -59.5 23t-24.5 53t24.5 52.5t59.5 22.5q34 0 58.5 -22.5t24.5 -52.5t-24.5 -53t-58.5 -23zM310 792q-35 0 -59.5 23t-24.5 53t24.5 52.5t59.5 22.5q34 0 58.5 -22.5t24.5 -52.5t-24.5 -53t-58.5 -23z" />
    <glyph glyph-name="copyright" unicode="&#xa9;" horiz-adv-x="829" 
d="M804 376q0 -163 -113 -277t-275 -114q-164 0 -277.5 113.5t-113.5 277.5q0 163 114 276.5t277 113.5q162 0 275 -113.5t113 -276.5zM698 376q0 121 -82 205.5t-200 84.5q-119 0 -202 -84.5t-83 -205.5q0 -122 83 -206.5t202 -84.5q118 0 200 84.5t82 206.5zM480 266
q18 0 18 -17v-60q0 -15 -12 -19q-21 -10 -58 -10q-80 0 -139 62t-59 153q0 86 59.5 151.5t138.5 65.5q38 0 59 -9q11 -5 11 -21v-62q0 -17 -17 -17q-3 0 -14.5 1t-18.5 1q-51 0 -80.5 -29.5t-29.5 -80.5t29.5 -81t80.5 -30q7 0 18.5 1t13.5 1z" />
    <glyph glyph-name="ordfeminine" unicode="&#xaa;" horiz-adv-x="306" 
d="M275 425q4 -13 -12 -13h-64q-9 0 -11 9l-7 35q-1 6 -8 6h-43q-6 0 -8 -6l-7 -35q-2 -9 -11 -9h-62q-15 0 -12 13q2 8 38 156q0 1 36 157q3 12 17 12h63q14 0 17 -12q4 -17 11 -49t13 -58t12 -49q37 -155 38 -157zM162 522q8 0 7 9l-17 128l-16 -128q-1 -9 7 -9h19z
M276 322q0 -12 -8 -20t-20 -8h-195q-10 0 -16.5 8t-6.5 20v26q0 11 6.5 18.5t16.5 7.5h195q12 0 20 -7.5t8 -18.5v-26z" />
    <glyph glyph-name="guillemotleft" unicode="&#xab;" horiz-adv-x="565" 
d="M284 509q0 -25 -14 -37l-113 -96l113 -97q14 -12 14 -37v-109q0 -9 -7.5 -12t-20.5 7l-229 208q-17 14 -17 37q0 19 15 34l232 215q13 10 20 6t7 -13v-106zM535 509q0 -25 -14 -37l-113 -96l113 -97q14 -12 14 -37v-109q0 -9 -7.5 -12t-20.5 7l-229 208q-17 14 -17 37
q0 19 15 34l232 215q13 10 20 6t7 -13v-106z" />
    <glyph glyph-name="logicalnot" unicode="&#xac;" horiz-adv-x="487" 
d="M327 296q0 25 -25 25h-237q-25 0 -25 25v68q0 25 25 25h357q25 0 25 -25v-220q0 -25 -25 -25h-70q-25 0 -25 25v102z" />
    <glyph glyph-name="registered" unicode="&#xae;" horiz-adv-x="829" 
d="M416 766q162 0 275 -113.5t113 -276.5t-113 -277t-275 -114q-164 0 -277.5 113.5t-113.5 277.5q0 163 114 276.5t277 113.5zM416 85q118 0 200 84.5t82 206.5q0 121 -82 205.5t-200 84.5q-119 0 -202 -84.5t-83 -205.5q0 -122 83 -206.5t202 -84.5zM523 254
q31 -69 35 -76q2 -5 -1 -8t-8 -3h-77q-10 0 -16 11q0 1 -5.5 14.5t-12 30t-10.5 27.5q-25 67 -32 86q0 -100 1 -158q0 -11 -11 -11h-74q-11 0 -11 11q0 36 0.5 108t0.5 95l-1 200q0 11 11 11h91q20 0 39.5 -4t45 -15.5t41.5 -40.5t16 -71q0 -70 -65 -104q6 -13 21.5 -50.5
t21.5 -52.5zM405 407q22 0 35.5 16.5t13.5 39.5t-14 37t-37 14q-6 0 -6 -7v-92q0 -8 8 -8z" />
    <glyph glyph-name="macron" unicode="&#xaf;" horiz-adv-x="600" 
d="M337 852q0 -28 -28 -28q-4 0 -23.5 0.5t-51 1t-65.5 0.5q-35 0 -68 -0.5t-54 -1t-25 -0.5q-23 0 -23 27v45q0 26 23 26q4 0 24.5 -0.5t54 -1t68.5 -0.5q34 0 65.5 0.5t51 1t23.5 0.5q28 0 28 -27v-43z" />
    <glyph glyph-name="degree" unicode="&#xb0;" horiz-adv-x="339" 
d="M319 615q0 -73 -42.5 -112.5t-106.5 -39.5q-65 0 -107.5 39.5t-42.5 112.5q0 71 42.5 111t107.5 40q64 0 106.5 -40t42.5 -111zM118 611q0 -28 15 -43.5t38 -15.5t37.5 15.5t14.5 43.5q0 30 -14.5 46t-37.5 16t-38 -16t-15 -46z" />
    <glyph glyph-name="plusminus" unicode="&#xb1;" horiz-adv-x="487" 
d="M422 521q25 0 25 -25v-68q0 -25 -25 -25h-130v-129q0 -25 -25 -25h-68q-25 0 -25 25v129h-109q-25 0 -25 25v68q0 25 25 25h109v110q0 25 25 25h68q25 0 25 -25v-110h130zM422 204q25 0 25 -25v-68q0 -25 -25 -25h-357q-25 0 -25 25v68q0 25 25 25h357z" />
    <glyph glyph-name="uni00B2" unicode="&#xb2;" horiz-adv-x="276" 
d="M233 461q16 0 16 -18v-50q0 -18 -15 -18h-199q-12 0 -15 7t2 14l105 161q33 52 33 93q0 35 -25 35q-31 0 -31 -54q0 -11 -12 -11h-66q-11 0 -11 12q0 65 31.5 99.5t89.5 34.5q54 0 84.5 -29t30.5 -77q0 -34 -12.5 -67.5t-25.5 -54.5t-51 -77h71z" />
    <glyph glyph-name="uni00B3" unicode="&#xb3;" horiz-adv-x="282" 
d="M190 579q67 -21 67 -95q0 -56 -32.5 -88.5t-93.5 -32.5q-113 0 -121 119q0 17 13 17h60q12 0 15 -15q6 -44 34 -44q31 0 31 51q0 45 -42 45q-15 0 -15 17v42q0 12 14 12q34 0 34 41t-23 41q-19 0 -27 -30q-4 -15 -19 -15h-55q-17 0 -14 20q13 102 120 102
q50 0 81.5 -27.5t31.5 -73.5q0 -65 -59 -83v-3z" />
    <glyph glyph-name="acute" unicode="&#xb4;" horiz-adv-x="600" 
d="M244 945q27 0 9 -21q-5 -6 -22 -23t-43.5 -42.5t-41.5 -40.5q-18 -18 -40 -18h-90q-12 0 -15 7.5t3 13.5l77 104q14 20 34 20h129z" />
    <glyph glyph-name="paragraph" unicode="&#xb6;" horiz-adv-x="526" 
d="M347 632h-68v-612q0 -20 -20 -20h-82q-20 0 -20 20v361q0 19 -20 21q-66 5 -101.5 51.5t-35.5 118.5q0 96 49.5 137t150.5 41h291q20 0 20 -20v-78q0 -20 -20 -20h-2q-20 0 -20 -20v-592q0 -20 -20 -20h-82q-20 0 -20 20v612z" />
    <glyph glyph-name="periodcentered" unicode="&#xb7;" horiz-adv-x="293" 
d="M147 493q46 0 76 -30t30 -77t-30 -77.5t-76 -30.5q-47 0 -77 30.5t-30 77.5q0 46 30 76.5t77 30.5z" />
    <glyph glyph-name="cedilla" unicode="&#xb8;" horiz-adv-x="600" 
d="M207 -122q0 -40 -33.5 -65t-89.5 -25q-54 0 -74 8q-10 2 -10 12v52q0 9 8 9l18 -3q17 -3 34 -3q29 0 29 24t-41 30q-11 2 -7 17l17 66h106l-11 -39q-4 -12 2 -13q22 -6 37 -26t15 -44z" />
    <glyph glyph-name="uni00B9" unicode="&#xb9;" horiz-adv-x="190" 
d="M160 742v-356q0 -11 -9 -11h-73q-8 0 -8 11v269l-54 -6q-11 -2 -11 9v68q0 8 9 9l137 16q4 1 6.5 -2t2.5 -7z" />
    <glyph glyph-name="ordmasculine" unicode="&#xba;" horiz-adv-x="318" 
d="M159 756q65 0 97 -51t32 -125t-32 -125t-97 -51t-97 51t-32 125t32 125t97 51zM159 491q18 0 28.5 25t10.5 64q0 38 -10.5 64t-28.5 26t-29 -25.5t-11 -64.5t11 -64t29 -25zM282 322q0 -12 -8 -20t-20 -8h-195q-10 0 -16.5 8t-6.5 20v26q0 11 6.5 18.5t16.5 7.5h195
q12 0 20 -7.5t8 -18.5v-26z" />
    <glyph glyph-name="guillemotright" unicode="&#xbb;" horiz-adv-x="565" 
d="M30 240q0 25 14 37l113 96l-113 97q-14 12 -14 37v109q0 9 7.5 12t20.5 -7l229 -208q17 -14 17 -37q0 -19 -15 -34l-232 -215q-13 -10 -20 -6t-7 13v106zM281 240q0 25 14 37l113 96l-113 97q-14 12 -14 37v109q0 9 7.5 12t20.5 -7l229 -208q17 -14 17 -37q0 -19 -15 -34
l-232 -215q-13 -10 -20 -6t-7 13v106z" />
    <glyph glyph-name="questiondown" unicode="&#xbf;" horiz-adv-x="442" 
d="M228 522q-38 0 -65 35.5t-27 86.5t27 86.5t65 35.5q39 0 66 -35.5t27 -86.5t-27 -86.5t-66 -35.5zM227 -15q-101 0 -151.5 54.5t-50.5 142.5q0 84 35 137t66 66q2 1 5.5 2.5t5.5 2t4 1.5t3.5 2t2.5 3t1.5 3.5t0.5 4.5v55q0 12 7 18t15 6h112q25 0 25 -24v-116
q0 -24 -22 -24h-25q-84 0 -84 -119q0 -36 11 -60.5t33 -24.5q44 0 38 80q-3 30 19 30h119q16 0 19 -32q9 -84 -40.5 -146t-148.5 -62z" />
    <glyph glyph-name="Agrave" unicode="&#xc0;" horiz-adv-x="558" 
d="M87 945h129q20 0 34 -20l77 -104q6 -6 3 -13.5t-15 -7.5h-90q-22 0 -40 18q-15 15 -41.5 40.5t-43.5 42.5t-22 23q-18 21 9 21zM552 28q6 -28 -27 -28h-130q-19 0 -24 19l-16 78q-3 13 -17 13h-118q-14 0 -17 -13l-16 -78q-5 -19 -24 -19h-130q-33 0 -27 28
q41 163 85 348q67 281 81 349q5 26 38 26h138q33 0 39 -27l80 -347q48 -206 85 -349zM311 245q19 0 16 20l-48 334h-2l-46 -334q-3 -20 16 -20h64z" />
    <glyph glyph-name="Agrave" unicode="&#xe0;" horiz-adv-x="558" 
d="M87 945h129q20 0 34 -20l77 -104q6 -6 3 -13.5t-15 -7.5h-90q-22 0 -40 18q-15 15 -41.5 40.5t-43.5 42.5t-22 23q-18 21 9 21zM552 28q6 -28 -27 -28h-130q-19 0 -24 19l-16 78q-3 13 -17 13h-118q-14 0 -17 -13l-16 -78q-5 -19 -24 -19h-130q-33 0 -27 28
q41 163 85 348q67 281 81 349q5 26 38 26h138q33 0 39 -27l80 -347q48 -206 85 -349zM311 245q19 0 16 20l-48 334h-2l-46 -334q-3 -20 16 -20h64z" />
    <glyph glyph-name="Aacute" unicode="&#xc1;" horiz-adv-x="558" 
d="M459 945q27 0 9 -21q-5 -6 -22 -23t-43.5 -42.5t-41.5 -40.5q-18 -18 -40 -18h-90q-12 0 -15 7.5t3 13.5l77 104q14 20 34 20h129zM552 28q6 -28 -27 -28h-130q-19 0 -24 19l-16 78q-3 13 -17 13h-118q-14 0 -17 -13l-16 -78q-5 -19 -24 -19h-130q-33 0 -27 28
q41 163 85 348q67 281 81 349q5 26 38 26h138q33 0 39 -27l80 -347q48 -206 85 -349zM311 245q19 0 16 20l-48 334h-2l-46 -334q-3 -20 16 -20h64z" />
    <glyph glyph-name="Aacute" unicode="&#xe1;" horiz-adv-x="558" 
d="M459 945q27 0 9 -21q-5 -6 -22 -23t-43.5 -42.5t-41.5 -40.5q-18 -18 -40 -18h-90q-12 0 -15 7.5t3 13.5l77 104q14 20 34 20h129zM552 28q6 -28 -27 -28h-130q-19 0 -24 19l-16 78q-3 13 -17 13h-118q-14 0 -17 -13l-16 -78q-5 -19 -24 -19h-130q-33 0 -27 28
q41 163 85 348q67 281 81 349q5 26 38 26h138q33 0 39 -27l80 -347q48 -206 85 -349zM311 245q19 0 16 20l-48 334h-2l-46 -334q-3 -20 16 -20h64z" />
    <glyph glyph-name="Acircumflex" unicode="&#xc2;" horiz-adv-x="558" 
d="M115 800q-14 0 -6 12q6 10 37.5 51.5t45.5 57.5q22 27 51 27h73q28 0 50 -26q24 -28 84 -110q4 -7 1.5 -9.5t-7.5 -2.5h-100q-14 0 -26 15l-40 52l-40 -53q-10 -14 -25 -14h-98zM552 28q6 -28 -27 -28h-130q-19 0 -24 19l-16 78q-3 13 -17 13h-118q-14 0 -17 -13l-16 -78
q-5 -19 -24 -19h-130q-33 0 -27 28q41 163 85 348q67 281 81 349q5 26 38 26h138q33 0 39 -27l80 -347q48 -206 85 -349zM311 245q19 0 16 20l-48 334h-2l-46 -334q-3 -20 16 -20h64z" />
    <glyph glyph-name="Acircumflex" unicode="&#xe2;" horiz-adv-x="558" 
d="M115 800q-14 0 -6 12q6 10 37.5 51.5t45.5 57.5q22 27 51 27h73q28 0 50 -26q24 -28 84 -110q4 -7 1.5 -9.5t-7.5 -2.5h-100q-14 0 -26 15l-40 52l-40 -53q-10 -14 -25 -14h-98zM552 28q6 -28 -27 -28h-130q-19 0 -24 19l-16 78q-3 13 -17 13h-118q-14 0 -17 -13l-16 -78
q-5 -19 -24 -19h-130q-33 0 -27 28q41 163 85 348q67 281 81 349q5 26 38 26h138q33 0 39 -27l80 -347q48 -206 85 -349zM311 245q19 0 16 20l-48 334h-2l-46 -334q-3 -20 16 -20h64z" />
    <glyph glyph-name="Atilde" unicode="&#xc3;" horiz-adv-x="558" 
d="M447 936q17 0 16 -16q-1 -55 -30.5 -91t-76.5 -36q-8 0 -16.5 1t-15 2.5t-14.5 4.5t-12.5 4.5t-12.5 5.5l-11 5.5t-11 6.5t-10 6q-36 21 -53 21q-21 0 -30 -28q-5 -16 -17 -16h-42q-17 0 -16 16q1 54 31 89t76 35q43 0 100 -34q36 -21 55 -21q23 0 31 29q4 16 17 16h42z
M552 28q6 -28 -27 -28h-130q-19 0 -24 19l-16 78q-3 13 -17 13h-118q-14 0 -17 -13l-16 -78q-5 -19 -24 -19h-130q-33 0 -27 28q41 163 85 348q67 281 81 349q5 26 38 26h138q33 0 39 -27l80 -347q48 -206 85 -349zM311 245q19 0 16 20l-48 334h-2l-46 -334q-3 -20 16 -20
h64z" />
    <glyph glyph-name="Atilde" unicode="&#xe3;" horiz-adv-x="558" 
d="M447 936q17 0 16 -16q-1 -55 -30.5 -91t-76.5 -36q-8 0 -16.5 1t-15 2.5t-14.5 4.5t-12.5 4.5t-12.5 5.5l-11 5.5t-11 6.5t-10 6q-36 21 -53 21q-21 0 -30 -28q-5 -16 -17 -16h-42q-17 0 -16 16q1 54 31 89t76 35q43 0 100 -34q36 -21 55 -21q23 0 31 29q4 16 17 16h42z
M552 28q6 -28 -27 -28h-130q-19 0 -24 19l-16 78q-3 13 -17 13h-118q-14 0 -17 -13l-16 -78q-5 -19 -24 -19h-130q-33 0 -27 28q41 163 85 348q67 281 81 349q5 26 38 26h138q33 0 39 -27l80 -347q48 -206 85 -349zM311 245q19 0 16 20l-48 334h-2l-46 -334q-3 -20 16 -20
h64z" />
    <glyph glyph-name="Adieresis" unicode="&#xc4;" horiz-adv-x="558" 
d="M169 792q-35 0 -59.5 23t-24.5 53t24.5 52.5t59.5 22.5q34 0 58.5 -22.5t24.5 -52.5t-24.5 -53t-58.5 -23zM399 792q-35 0 -59.5 23t-24.5 53t24.5 52.5t59.5 22.5q34 0 58.5 -22.5t24.5 -52.5t-24.5 -53t-58.5 -23zM552 28q6 -28 -27 -28h-130q-19 0 -24 19l-16 78
q-3 13 -17 13h-118q-14 0 -17 -13l-16 -78q-5 -19 -24 -19h-130q-33 0 -27 28q41 163 85 348q67 281 81 349q5 26 38 26h138q33 0 39 -27l80 -347q48 -206 85 -349zM311 245q19 0 16 20l-48 334h-2l-46 -334q-3 -20 16 -20h64z" />
    <glyph glyph-name="Adieresis" unicode="&#xe4;" horiz-adv-x="558" 
d="M169 792q-35 0 -59.5 23t-24.5 53t24.5 52.5t59.5 22.5q34 0 58.5 -22.5t24.5 -52.5t-24.5 -53t-58.5 -23zM399 792q-35 0 -59.5 23t-24.5 53t24.5 52.5t59.5 22.5q34 0 58.5 -22.5t24.5 -52.5t-24.5 -53t-58.5 -23zM552 28q6 -28 -27 -28h-130q-19 0 -24 19l-16 78
q-3 13 -17 13h-118q-14 0 -17 -13l-16 -78q-5 -19 -24 -19h-130q-33 0 -27 28q41 163 85 348q67 281 81 349q5 26 38 26h138q33 0 39 -27l80 -347q48 -206 85 -349zM311 245q19 0 16 20l-48 334h-2l-46 -334q-3 -20 16 -20h64z" />
    <glyph glyph-name="Aring" unicode="&#xc5;" horiz-adv-x="558" 
d="M167 877q0 42 32.5 71t79.5 29t79 -29t32 -71t-32 -70t-79 -28t-79.5 28t-32.5 70zM239 877q0 -15 11.5 -25t28.5 -10t28 10t11 25t-11.5 25.5t-27.5 10.5q-17 0 -28.5 -10.5t-11.5 -25.5zM552 28q6 -28 -27 -28h-130q-19 0 -24 19l-16 78q-3 13 -17 13h-118
q-14 0 -17 -13l-16 -78q-5 -19 -24 -19h-130q-33 0 -27 28q41 163 85 348q67 281 81 349q5 26 38 26h138q33 0 39 -27l80 -347q48 -206 85 -349zM311 245q19 0 16 20l-48 334h-2l-46 -334q-3 -20 16 -20h64z" />
    <glyph glyph-name="Aring" unicode="&#xe5;" horiz-adv-x="558" 
d="M167 877q0 42 32.5 71t79.5 29t79 -29t32 -71t-32 -70t-79 -28t-79.5 28t-32.5 70zM239 877q0 -15 11.5 -25t28.5 -10t28 10t11 25t-11.5 25.5t-27.5 10.5q-17 0 -28.5 -10.5t-11.5 -25.5zM552 28q6 -28 -27 -28h-130q-19 0 -24 19l-16 78q-3 13 -17 13h-118
q-14 0 -17 -13l-16 -78q-5 -19 -24 -19h-130q-33 0 -27 28q41 163 85 348q67 281 81 349q5 26 38 26h138q33 0 39 -27l80 -347q48 -206 85 -349zM311 245q19 0 16 20l-48 334h-2l-46 -334q-3 -20 16 -20h64z" />
    <glyph glyph-name="AE" unicode="&#xc6;" horiz-adv-x="734" 
d="M675 156q24 0 24 -18v-120q0 -18 -25 -18h-278q-15 0 -22 9t-7 20l1 69q0 12 -13 12h-114q-13 0 -17 -13l-26 -78q-7 -19 -24 -19h-140q-14 0 -23 7t-4 21q83 232 139 391q91 258 111 311q9 20 35 20h382q12 0 18.5 -5.5t6.5 -11.5v-118q0 -18 -26 -18h-130q-5 0 -5 -5
v-130q0 -8 5 -8h124q17 0 17 -15v-126q0 -14 -17 -14h-124q-5 0 -5 -8v-130q0 -5 5 -5h132zM352 254q15 0 15 15v320q0 8 -4 8t-7 -9l-48 -160t-46 -152q-2 -8 -2 -11q0 -11 12 -11h80z" />
    <glyph glyph-name="AE" unicode="&#xe6;" horiz-adv-x="734" 
d="M675 156q24 0 24 -18v-120q0 -18 -25 -18h-278q-15 0 -22 9t-7 20l1 69q0 12 -13 12h-114q-13 0 -17 -13l-26 -78q-7 -19 -24 -19h-140q-14 0 -23 7t-4 21q83 232 139 391q91 258 111 311q9 20 35 20h382q12 0 18.5 -5.5t6.5 -11.5v-118q0 -18 -26 -18h-130q-5 0 -5 -5
v-130q0 -8 5 -8h124q17 0 17 -15v-126q0 -14 -17 -14h-124q-5 0 -5 -8v-130q0 -5 5 -5h132zM352 254q15 0 15 15v320q0 8 -4 8t-7 -9l-48 -160t-46 -152q-2 -8 -2 -11q0 -11 12 -11h80z" />
    <glyph glyph-name="Ccedilla" unicode="&#xc7;" horiz-adv-x="468" 
d="M357 594q-69 0 -113 -62.5t-44 -158.5t43 -156t111 -60q20 0 42 3.5t24 3.5q18 0 18 -20v-112q0 -17 -13 -22q-34 -14 -79 -17l-9 -32q-4 -12 2 -13q22 -6 37 -26t15 -44q0 -40 -33.5 -65t-89.5 -25q-54 0 -74 8q-10 2 -10 12v52q0 9 8 9l18 -3q17 -3 34 -3q29 0 29 24
t-41 30q-11 2 -7 17l17 66h12q-103 26 -166 127.5t-63 245.5q0 170 82.5 278t211.5 108q69 0 107 -17q12 -5 12 -24v-112q0 -26 -26 -19t-55 7z" />
    <glyph glyph-name="Ccedilla" unicode="&#xe7;" horiz-adv-x="468" 
d="M357 594q-69 0 -113 -62.5t-44 -158.5t43 -156t111 -60q20 0 42 3.5t24 3.5q18 0 18 -20v-112q0 -17 -13 -22q-34 -14 -79 -17l-9 -32q-4 -12 2 -13q22 -6 37 -26t15 -44q0 -40 -33.5 -65t-89.5 -25q-54 0 -74 8q-10 2 -10 12v52q0 9 8 9l18 -3q17 -3 34 -3q29 0 29 24
t-41 30q-11 2 -7 17l17 66h12q-103 26 -166 127.5t-63 245.5q0 170 82.5 278t211.5 108q69 0 107 -17q12 -5 12 -24v-112q0 -26 -26 -19t-55 7z" />
    <glyph glyph-name="Egrave" unicode="&#xc8;" horiz-adv-x="417" 
d="M22 945h129q20 0 34 -20l77 -104q6 -6 3 -13.5t-15 -7.5h-90q-22 0 -40 18q-15 15 -41.5 40.5t-43.5 42.5t-22 23q-18 21 9 21zM356 156q26 0 26 -18v-120q0 -18 -25 -18h-278q-15 0 -22 9t-7 20q1 58 2.5 173.5t2.5 173.5q-1 57 -2.5 172.5t-2.5 173.5q0 11 7 19.5
t22 8.5h278q25 0 25 -17v-120q0 -18 -26 -18h-130q-5 0 -5 -6v-126q0 -9 5 -9h124q17 0 17 -16v-124q0 -15 -17 -15h-124q-5 0 -5 -8v-130q0 -5 5 -5h130z" />
    <glyph glyph-name="Egrave" unicode="&#xe8;" horiz-adv-x="417" 
d="M22 945h129q20 0 34 -20l77 -104q6 -6 3 -13.5t-15 -7.5h-90q-22 0 -40 18q-15 15 -41.5 40.5t-43.5 42.5t-22 23q-18 21 9 21zM356 156q26 0 26 -18v-120q0 -18 -25 -18h-278q-15 0 -22 9t-7 20q1 58 2.5 173.5t2.5 173.5q-1 57 -2.5 172.5t-2.5 173.5q0 11 7 19.5
t22 8.5h278q25 0 25 -17v-120q0 -18 -26 -18h-130q-5 0 -5 -6v-126q0 -9 5 -9h124q17 0 17 -16v-124q0 -15 -17 -15h-124q-5 0 -5 -8v-130q0 -5 5 -5h130z" />
    <glyph glyph-name="Eacute" unicode="&#xc9;" horiz-adv-x="417" 
d="M394 945q27 0 9 -21q-5 -6 -22 -23t-43.5 -42.5t-41.5 -40.5q-18 -18 -40 -18h-90q-12 0 -15 7.5t3 13.5l77 104q14 20 34 20h129zM356 156q26 0 26 -18v-120q0 -18 -25 -18h-278q-15 0 -22 9t-7 20q1 58 2.5 173.5t2.5 173.5q-1 57 -2.5 172.5t-2.5 173.5q0 11 7 19.5
t22 8.5h278q25 0 25 -17v-120q0 -18 -26 -18h-130q-5 0 -5 -6v-126q0 -9 5 -9h124q17 0 17 -16v-124q0 -15 -17 -15h-124q-5 0 -5 -8v-130q0 -5 5 -5h130z" />
    <glyph glyph-name="Eacute" unicode="&#xe9;" horiz-adv-x="417" 
d="M394 945q27 0 9 -21q-5 -6 -22 -23t-43.5 -42.5t-41.5 -40.5q-18 -18 -40 -18h-90q-12 0 -15 7.5t3 13.5l77 104q14 20 34 20h129zM356 156q26 0 26 -18v-120q0 -18 -25 -18h-278q-15 0 -22 9t-7 20q1 58 2.5 173.5t2.5 173.5q-1 57 -2.5 172.5t-2.5 173.5q0 11 7 19.5
t22 8.5h278q25 0 25 -17v-120q0 -18 -26 -18h-130q-5 0 -5 -6v-126q0 -9 5 -9h124q17 0 17 -16v-124q0 -15 -17 -15h-124q-5 0 -5 -8v-130q0 -5 5 -5h130z" />
    <glyph glyph-name="Ecircumflex" unicode="&#xca;" horiz-adv-x="417" 
d="M50 800q-14 0 -6 12q6 10 37.5 51.5t45.5 57.5q22 27 51 27h73q28 0 50 -26q24 -28 84 -110q4 -7 1.5 -9.5t-7.5 -2.5h-100q-14 0 -26 15l-40 52l-40 -53q-11 -14 -25 -14h-98zM356 156q26 0 26 -18v-120q0 -18 -25 -18h-278q-15 0 -22 9t-7 20q1 58 2.5 173.5t2.5 173.5
q-1 57 -2.5 172.5t-2.5 173.5q0 11 7 19.5t22 8.5h278q25 0 25 -17v-120q0 -18 -26 -18h-130q-5 0 -5 -6v-126q0 -9 5 -9h124q17 0 17 -16v-124q0 -15 -17 -15h-124q-5 0 -5 -8v-130q0 -5 5 -5h130z" />
    <glyph glyph-name="Ecircumflex" unicode="&#xea;" horiz-adv-x="417" 
d="M50 800q-14 0 -6 12q6 10 37.5 51.5t45.5 57.5q22 27 51 27h73q28 0 50 -26q24 -28 84 -110q4 -7 1.5 -9.5t-7.5 -2.5h-100q-14 0 -26 15l-40 52l-40 -53q-11 -14 -25 -14h-98zM356 156q26 0 26 -18v-120q0 -18 -25 -18h-278q-15 0 -22 9t-7 20q1 58 2.5 173.5t2.5 173.5
q-1 57 -2.5 172.5t-2.5 173.5q0 11 7 19.5t22 8.5h278q25 0 25 -17v-120q0 -18 -26 -18h-130q-5 0 -5 -6v-126q0 -9 5 -9h124q17 0 17 -16v-124q0 -15 -17 -15h-124q-5 0 -5 -8v-130q0 -5 5 -5h130z" />
    <glyph glyph-name="Edieresis" unicode="&#xcb;" horiz-adv-x="417" 
d="M104 792q-35 0 -59.5 23t-24.5 53t24.5 52.5t59.5 22.5q34 0 58.5 -22.5t24.5 -52.5t-24.5 -53t-58.5 -23zM334 792q-35 0 -59.5 23t-24.5 53t24.5 52.5t59.5 22.5q34 0 58.5 -22.5t24.5 -52.5t-24.5 -53t-58.5 -23zM356 156q26 0 26 -18v-120q0 -18 -25 -18h-278
q-15 0 -22 9t-7 20q1 58 2.5 173.5t2.5 173.5q-1 57 -2.5 172.5t-2.5 173.5q0 11 7 19.5t22 8.5h278q25 0 25 -17v-120q0 -18 -26 -18h-130q-5 0 -5 -6v-126q0 -9 5 -9h124q17 0 17 -16v-124q0 -15 -17 -15h-124q-5 0 -5 -8v-130q0 -5 5 -5h130z" />
    <glyph glyph-name="Edieresis" unicode="&#xeb;" horiz-adv-x="417" 
d="M104 792q-35 0 -59.5 23t-24.5 53t24.5 52.5t59.5 22.5q34 0 58.5 -22.5t24.5 -52.5t-24.5 -53t-58.5 -23zM334 792q-35 0 -59.5 23t-24.5 53t24.5 52.5t59.5 22.5q34 0 58.5 -22.5t24.5 -52.5t-24.5 -53t-58.5 -23zM356 156q26 0 26 -18v-120q0 -18 -25 -18h-278
q-15 0 -22 9t-7 20q1 58 2.5 173.5t2.5 173.5q-1 57 -2.5 172.5t-2.5 173.5q0 11 7 19.5t22 8.5h278q25 0 25 -17v-120q0 -18 -26 -18h-130q-5 0 -5 -6v-126q0 -9 5 -9h124q17 0 17 -16v-124q0 -15 -17 -15h-124q-5 0 -5 -8v-130q0 -5 5 -5h130z" />
    <glyph glyph-name="Igrave" unicode="&#xcc;" 
d="M-56 945h129q20 0 34 -20l77 -104q6 -6 3 -13.5t-15 -7.5h-90q-22 0 -40 18q-15 15 -41.5 40.5t-43.5 42.5t-22 23q-18 21 9 21zM221 732q0 -3 -0.5 -78.5t-1 -162t-0.5 -114.5t0.5 -114.5t1 -162.5t0.5 -79q0 -21 -25 -21h-122q-9 0 -16.5 5.5t-7.5 15.5q0 2 1 80
t1.5 165t0.5 111q0 25 -0.5 111t-1.5 163.5t-1 80.5q0 18 24 18h123q24 0 24 -18z" />
    <glyph glyph-name="Iacute" unicode="&#xcd;" 
d="M316 945q27 0 9 -21q-5 -6 -22 -23t-43.5 -42.5t-41.5 -40.5q-18 -18 -40 -18h-90q-12 0 -15 7.5t3 13.5l77 104q14 20 34 20h129zM221 732q0 -3 -0.5 -78.5t-1 -162t-0.5 -114.5t0.5 -114.5t1 -162.5t0.5 -79q0 -21 -25 -21h-122q-9 0 -16.5 5.5t-7.5 15.5q0 2 1 80
t1.5 165t0.5 111q0 25 -0.5 111t-1.5 163.5t-1 80.5q0 18 24 18h123q24 0 24 -18z" />
    <glyph glyph-name="Icircumflex" unicode="&#xce;" 
d="M-28 800q-14 0 -6 12q6 10 37.5 51.5t45.5 57.5q22 27 51 27h73q28 0 50 -26q24 -28 84 -110q4 -7 1.5 -9.5t-7.5 -2.5h-100q-14 0 -26 15l-40 52l-40 -53q-11 -14 -25 -14h-98zM221 732q0 -3 -0.5 -78.5t-1 -162t-0.5 -114.5t0.5 -114.5t1 -162.5t0.5 -79q0 -21 -25 -21
h-122q-9 0 -16.5 5.5t-7.5 15.5q0 2 1 80t1.5 165t0.5 111q0 25 -0.5 111t-1.5 163.5t-1 80.5q0 18 24 18h123q24 0 24 -18z" />
    <glyph glyph-name="Idieresis" unicode="&#xcf;" 
d="M26 792q-35 0 -59.5 23t-24.5 53t24.5 52.5t59.5 22.5q34 0 58.5 -22.5t24.5 -52.5t-24.5 -53t-58.5 -23zM256 792q-35 0 -59.5 23t-24.5 53t24.5 52.5t59.5 22.5q34 0 58.5 -22.5t24.5 -52.5t-24.5 -53t-58.5 -23zM221 732q0 -3 -0.5 -78.5t-1 -162t-0.5 -114.5
t0.5 -114.5t1 -162.5t0.5 -79q0 -21 -25 -21h-122q-9 0 -16.5 5.5t-7.5 15.5q0 2 1 80t1.5 165t0.5 111q0 25 -0.5 111t-1.5 163.5t-1 80.5q0 18 24 18h123q24 0 24 -18z" />
    <glyph glyph-name="Eth" unicode="&#xd0;" horiz-adv-x="612" 
d="M271 750q75 0 132.5 -22t91.5 -56.5t55.5 -84t29 -97t7.5 -101.5q0 -62 -10.5 -117.5t-34.5 -106t-59.5 -86.5t-89.5 -57.5t-122 -21.5h-145q-13 0 -23 8.5t-10 26.5l4 300h-64q-23 0 -23 27v52q0 26 23 26h63q0 44 -1 109.5t-1.5 114.5t-0.5 53q0 18 10 25.5t23 7.5h145
zM265 155q16 0 39.5 11.5t51.5 35.5t47.5 73.5t19.5 113.5q0 32 -6.5 64.5t-22.5 66.5t-49 55.5t-80 21.5q-3 -31 -3 -157h68q28 0 28 -27v-50q0 -28 -28 -28h-68q0 -116 3 -180z" />
    <glyph glyph-name="Eth" unicode="&#xf0;" horiz-adv-x="612" 
d="M271 750q75 0 132.5 -22t91.5 -56.5t55.5 -84t29 -97t7.5 -101.5q0 -62 -10.5 -117.5t-34.5 -106t-59.5 -86.5t-89.5 -57.5t-122 -21.5h-145q-13 0 -23 8.5t-10 26.5l4 300h-64q-23 0 -23 27v52q0 26 23 26h63q0 44 -1 109.5t-1.5 114.5t-0.5 53q0 18 10 25.5t23 7.5h145
zM265 155q16 0 39.5 11.5t51.5 35.5t47.5 73.5t19.5 113.5q0 32 -6.5 64.5t-22.5 66.5t-49 55.5t-80 21.5q-3 -31 -3 -157h68q28 0 28 -27v-50q0 -28 -28 -28h-68q0 -116 3 -180z" />
    <glyph glyph-name="Ntilde" unicode="&#xd1;" horiz-adv-x="600" 
d="M468 936q17 0 16 -16q-1 -55 -30.5 -91t-76.5 -36q-8 0 -16.5 1t-15 2.5t-14.5 4.5t-12.5 4.5t-12.5 5.5l-11 5.5t-11 6.5t-10 6q-36 21 -53 21q-21 0 -30 -28q-5 -16 -17 -16h-42q-17 0 -16 16q1 54 31 89t76 35q43 0 100 -34q36 -21 55 -21q23 0 31 29q4 16 17 16h42z
M217 407q-2 -128 -2 -195q0 -30 0.5 -75.5t1 -80t0.5 -36.5q0 -20 -23 -20h-124q-20 0 -20 20q0 1 1.5 168t1.5 189t-1.5 187t-1.5 167q0 19 16 19h133q18 0 26 -19q92 -215 154 -377h4q0 42 1 107t1 82q0 25 -0.5 70t-1 80.5t-0.5 37.5q0 19 21 19h124q22 0 22 -19
q0 -1 -1.5 -166t-1.5 -188t1.5 -189.5t1.5 -167.5q0 -20 -19 -20h-124q-25 0 -32 20q-20 41 -73.5 176t-80.5 211h-4z" />
    <glyph glyph-name="Ntilde" unicode="&#xf1;" horiz-adv-x="600" 
d="M468 936q17 0 16 -16q-1 -55 -30.5 -91t-76.5 -36q-8 0 -16.5 1t-15 2.5t-14.5 4.5t-12.5 4.5t-12.5 5.5l-11 5.5t-11 6.5t-10 6q-36 21 -53 21q-21 0 -30 -28q-5 -16 -17 -16h-42q-17 0 -16 16q1 54 31 89t76 35q43 0 100 -34q36 -21 55 -21q23 0 31 29q4 16 17 16h42z
M217 407q-2 -128 -2 -195q0 -30 0.5 -75.5t1 -80t0.5 -36.5q0 -20 -23 -20h-124q-20 0 -20 20q0 1 1.5 168t1.5 189t-1.5 187t-1.5 167q0 19 16 19h133q18 0 26 -19q92 -215 154 -377h4q0 42 1 107t1 82q0 25 -0.5 70t-1 80.5t-0.5 37.5q0 19 21 19h124q22 0 22 -19
q0 -1 -1.5 -166t-1.5 -188t1.5 -189.5t1.5 -167.5q0 -20 -19 -20h-124q-25 0 -32 20q-20 41 -73.5 176t-80.5 211h-4z" />
    <glyph glyph-name="Ograve" unicode="&#xd2;" horiz-adv-x="622" 
d="M119 945h129q20 0 34 -20l77 -104q6 -6 3 -13.5t-15 -7.5h-90q-22 0 -40 18q-15 15 -41.5 40.5t-43.5 42.5t-22 23q-18 21 9 21zM311 766q74 0 131 -33t90 -89.5t49 -124t16 -144.5q0 -76 -16 -143.5t-49 -124t-90 -89.5t-131 -33t-131 33t-90 89.5t-49 124t-16 143.5
q0 77 16 144.5t49 124t90 89.5t131 33zM311 140q52 0 80.5 66t28.5 169q0 102 -29.5 169t-79.5 67t-80 -67t-30 -169t29.5 -168.5t80.5 -66.5z" />
    <glyph glyph-name="Ograve" unicode="&#xf2;" horiz-adv-x="622" 
d="M119 945h129q20 0 34 -20l77 -104q6 -6 3 -13.5t-15 -7.5h-90q-22 0 -40 18q-15 15 -41.5 40.5t-43.5 42.5t-22 23q-18 21 9 21zM311 766q74 0 131 -33t90 -89.5t49 -124t16 -144.5q0 -76 -16 -143.5t-49 -124t-90 -89.5t-131 -33t-131 33t-90 89.5t-49 124t-16 143.5
q0 77 16 144.5t49 124t90 89.5t131 33zM311 140q52 0 80.5 66t28.5 169q0 102 -29.5 169t-79.5 67t-80 -67t-30 -169t29.5 -168.5t80.5 -66.5z" />
    <glyph glyph-name="Oacute" unicode="&#xd3;" horiz-adv-x="622" 
d="M491 945q27 0 9 -21q-5 -6 -22 -23t-43.5 -42.5t-41.5 -40.5q-18 -18 -40 -18h-90q-12 0 -15 7.5t3 13.5l77 104q14 20 34 20h129zM311 766q74 0 131 -33t90 -89.5t49 -124t16 -144.5q0 -76 -16 -143.5t-49 -124t-90 -89.5t-131 -33t-131 33t-90 89.5t-49 124t-16 143.5
q0 77 16 144.5t49 124t90 89.5t131 33zM311 140q52 0 80.5 66t28.5 169q0 102 -29.5 169t-79.5 67t-80 -67t-30 -169t29.5 -168.5t80.5 -66.5z" />
    <glyph glyph-name="Oacute" unicode="&#xf3;" horiz-adv-x="622" 
d="M491 945q27 0 9 -21q-5 -6 -22 -23t-43.5 -42.5t-41.5 -40.5q-18 -18 -40 -18h-90q-12 0 -15 7.5t3 13.5l77 104q14 20 34 20h129zM311 766q74 0 131 -33t90 -89.5t49 -124t16 -144.5q0 -76 -16 -143.5t-49 -124t-90 -89.5t-131 -33t-131 33t-90 89.5t-49 124t-16 143.5
q0 77 16 144.5t49 124t90 89.5t131 33zM311 140q52 0 80.5 66t28.5 169q0 102 -29.5 169t-79.5 67t-80 -67t-30 -169t29.5 -168.5t80.5 -66.5z" />
    <glyph glyph-name="Ocircumflex" unicode="&#xd4;" horiz-adv-x="622" 
d="M147 800q-14 0 -6 12q6 10 37.5 51.5t45.5 57.5q22 27 51 27h73q28 0 50 -26q24 -28 84 -110q4 -7 1.5 -9.5t-7.5 -2.5h-100q-14 0 -26 15l-40 52l-40 -53q-10 -14 -25 -14h-98zM311 766q74 0 131 -33t90 -89.5t49 -124t16 -144.5q0 -76 -16 -143.5t-49 -124t-90 -89.5
t-131 -33t-131 33t-90 89.5t-49 124t-16 143.5q0 77 16 144.5t49 124t90 89.5t131 33zM311 140q52 0 80.5 66t28.5 169q0 102 -29.5 169t-79.5 67t-80 -67t-30 -169t29.5 -168.5t80.5 -66.5z" />
    <glyph glyph-name="Ocircumflex" unicode="&#xf4;" horiz-adv-x="622" 
d="M147 800q-14 0 -6 12q6 10 37.5 51.5t45.5 57.5q22 27 51 27h73q28 0 50 -26q24 -28 84 -110q4 -7 1.5 -9.5t-7.5 -2.5h-100q-14 0 -26 15l-40 52l-40 -53q-10 -14 -25 -14h-98zM311 766q74 0 131 -33t90 -89.5t49 -124t16 -144.5q0 -76 -16 -143.5t-49 -124t-90 -89.5
t-131 -33t-131 33t-90 89.5t-49 124t-16 143.5q0 77 16 144.5t49 124t90 89.5t131 33zM311 140q52 0 80.5 66t28.5 169q0 102 -29.5 169t-79.5 67t-80 -67t-30 -169t29.5 -168.5t80.5 -66.5z" />
    <glyph glyph-name="Otilde" unicode="&#xd5;" horiz-adv-x="622" 
d="M479 936q17 0 16 -16q-1 -55 -30.5 -91t-76.5 -36q-8 0 -16.5 1t-15 2.5t-14.5 4.5t-12.5 4.5t-12.5 5.5l-11 5.5t-11 6.5t-10 6q-36 21 -53 21q-21 0 -30 -28q-5 -16 -17 -16h-42q-17 0 -16 16q1 54 31 89t76 35q43 0 100 -34q36 -21 55 -21q23 0 31 29q4 16 17 16h42z
M311 766q74 0 131 -33t90 -89.5t49 -124t16 -144.5q0 -76 -16 -143.5t-49 -124t-90 -89.5t-131 -33t-131 33t-90 89.5t-49 124t-16 143.5q0 77 16 144.5t49 124t90 89.5t131 33zM311 140q52 0 80.5 66t28.5 169q0 102 -29.5 169t-79.5 67t-80 -67t-30 -169t29.5 -168.5
t80.5 -66.5z" />
    <glyph glyph-name="Otilde" unicode="&#xf5;" horiz-adv-x="622" 
d="M479 936q17 0 16 -16q-1 -55 -30.5 -91t-76.5 -36q-8 0 -16.5 1t-15 2.5t-14.5 4.5t-12.5 4.5t-12.5 5.5l-11 5.5t-11 6.5t-10 6q-36 21 -53 21q-21 0 -30 -28q-5 -16 -17 -16h-42q-17 0 -16 16q1 54 31 89t76 35q43 0 100 -34q36 -21 55 -21q23 0 31 29q4 16 17 16h42z
M311 766q74 0 131 -33t90 -89.5t49 -124t16 -144.5q0 -76 -16 -143.5t-49 -124t-90 -89.5t-131 -33t-131 33t-90 89.5t-49 124t-16 143.5q0 77 16 144.5t49 124t90 89.5t131 33zM311 140q52 0 80.5 66t28.5 169q0 102 -29.5 169t-79.5 67t-80 -67t-30 -169t29.5 -168.5
t80.5 -66.5z" />
    <glyph glyph-name="Odieresis" unicode="&#xd6;" horiz-adv-x="622" 
d="M201 792q-35 0 -59.5 23t-24.5 53t24.5 52.5t59.5 22.5q34 0 58.5 -22.5t24.5 -52.5t-24.5 -53t-58.5 -23zM431 792q-35 0 -59.5 23t-24.5 53t24.5 52.5t59.5 22.5q34 0 58.5 -22.5t24.5 -52.5t-24.5 -53t-58.5 -23zM311 766q74 0 131 -33t90 -89.5t49 -124t16 -144.5
q0 -76 -16 -143.5t-49 -124t-90 -89.5t-131 -33t-131 33t-90 89.5t-49 124t-16 143.5q0 77 16 144.5t49 124t90 89.5t131 33zM311 140q52 0 80.5 66t28.5 169q0 102 -29.5 169t-79.5 67t-80 -67t-30 -169t29.5 -168.5t80.5 -66.5z" />
    <glyph glyph-name="Odieresis" unicode="&#xf6;" horiz-adv-x="622" 
d="M201 792q-35 0 -59.5 23t-24.5 53t24.5 52.5t59.5 22.5q34 0 58.5 -22.5t24.5 -52.5t-24.5 -53t-58.5 -23zM431 792q-35 0 -59.5 23t-24.5 53t24.5 52.5t59.5 22.5q34 0 58.5 -22.5t24.5 -52.5t-24.5 -53t-58.5 -23zM311 766q74 0 131 -33t90 -89.5t49 -124t16 -144.5
q0 -76 -16 -143.5t-49 -124t-90 -89.5t-131 -33t-131 33t-90 89.5t-49 124t-16 143.5q0 77 16 144.5t49 124t90 89.5t131 33zM311 140q52 0 80.5 66t28.5 169q0 102 -29.5 169t-79.5 67t-80 -67t-30 -169t29.5 -168.5t80.5 -66.5z" />
    <glyph glyph-name="multiply" unicode="&#xd7;" horiz-adv-x="467" 
d="M308 378l99 -116q15 -20 -3 -35l-52 -44q-19 -16 -35 3l-83 104l-83 -104q-16 -19 -35 -3l-52 44q-18 15 -3 35l99 116l-100 118q-16 20 4 35l52 43q21 16 35 -3l83 -104l83 104q14 19 35 3l52 -43q20 -15 4 -35z" />
    <glyph glyph-name="Oslash" unicode="&#xd8;" horiz-adv-x="625" 
d="M595 736l-60 -97q62 -105 62 -264q0 -76 -16 -143.5t-49 -124t-90 -89.5t-131 -33q-89 0 -152 47l-19 -30q-11 -17 -30 -17h-58q-15 0 -20 8.5t3 21.5l56 91q-66 105 -66 269q0 77 16 144.5t49 124t90 89.5t131 33q93 0 158 -51l21 34q11 17 30 17h58q15 0 20 -8.5
t-3 -21.5zM201 375q0 -44 6 -83l171 276q-29 43 -67 43q-50 0 -80 -67t-30 -169zM420 375q0 41 -4 72l-168 -271q27 -36 63 -36q52 0 80.5 66t28.5 169z" />
    <glyph glyph-name="Oslash" unicode="&#xf8;" horiz-adv-x="625" 
d="M595 736l-60 -97q62 -105 62 -264q0 -76 -16 -143.5t-49 -124t-90 -89.5t-131 -33q-89 0 -152 47l-19 -30q-11 -17 -30 -17h-58q-15 0 -20 8.5t3 21.5l56 91q-66 105 -66 269q0 77 16 144.5t49 124t90 89.5t131 33q93 0 158 -51l21 34q11 17 30 17h58q15 0 20 -8.5
t-3 -21.5zM201 375q0 -44 6 -83l171 276q-29 43 -67 43q-50 0 -80 -67t-30 -169zM420 375q0 41 -4 72l-168 -271q27 -36 63 -36q52 0 80.5 66t28.5 169z" />
    <glyph glyph-name="Ugrave" unicode="&#xd9;" horiz-adv-x="573" 
d="M90 945h129q20 0 34 -20l77 -104q6 -6 3 -13.5t-15 -7.5h-90q-22 0 -40 18q-15 15 -41.5 40.5t-43.5 42.5t-22 23q-18 21 9 21zM523 731q0 -12 -0.5 -88t-0.5 -116t0.5 -114t0.5 -103q0 -53 -3 -91t-17 -85.5t-38 -77t-69.5 -50.5t-109.5 -21q-46 0 -82.5 10.5t-60.5 27
t-42 43t-27.5 52.5t-15 62t-7 64t-1.5 66q0 29 0.5 103t0.5 114t-0.5 116t-0.5 88q0 19 18 19h133q20 0 20 -19q0 -12 -0.5 -88t-0.5 -116v-265q0 -23 1 -36.5t4.5 -30.5t10 -26.5t19.5 -16t31 -6.5q19 0 31.5 6.5t19.5 16t10.5 26.5t4.5 30.5t1 36.5v265q0 40 -0.5 116
t-0.5 88q0 19 19 19h133q19 0 19 -19z" />
    <glyph glyph-name="Ugrave" unicode="&#xf9;" horiz-adv-x="573" 
d="M90 945h129q20 0 34 -20l77 -104q6 -6 3 -13.5t-15 -7.5h-90q-22 0 -40 18q-15 15 -41.5 40.5t-43.5 42.5t-22 23q-18 21 9 21zM523 731q0 -12 -0.5 -88t-0.5 -116t0.5 -114t0.5 -103q0 -53 -3 -91t-17 -85.5t-38 -77t-69.5 -50.5t-109.5 -21q-46 0 -82.5 10.5t-60.5 27
t-42 43t-27.5 52.5t-15 62t-7 64t-1.5 66q0 29 0.5 103t0.5 114t-0.5 116t-0.5 88q0 19 18 19h133q20 0 20 -19q0 -12 -0.5 -88t-0.5 -116v-265q0 -23 1 -36.5t4.5 -30.5t10 -26.5t19.5 -16t31 -6.5q19 0 31.5 6.5t19.5 16t10.5 26.5t4.5 30.5t1 36.5v265q0 40 -0.5 116
t-0.5 88q0 19 19 19h133q19 0 19 -19z" />
    <glyph glyph-name="Uacute" unicode="&#xda;" horiz-adv-x="573" 
d="M462 945q27 0 9 -21q-5 -6 -22 -23t-43.5 -42.5t-41.5 -40.5q-18 -18 -40 -18h-90q-12 0 -15 7.5t3 13.5l77 104q14 20 34 20h129zM523 731q0 -12 -0.5 -88t-0.5 -116t0.5 -114t0.5 -103q0 -53 -3 -91t-17 -85.5t-38 -77t-69.5 -50.5t-109.5 -21q-46 0 -82.5 10.5
t-60.5 27t-42 43t-27.5 52.5t-15 62t-7 64t-1.5 66q0 29 0.5 103t0.5 114t-0.5 116t-0.5 88q0 19 18 19h133q20 0 20 -19q0 -12 -0.5 -88t-0.5 -116v-265q0 -23 1 -36.5t4.5 -30.5t10 -26.5t19.5 -16t31 -6.5q19 0 31.5 6.5t19.5 16t10.5 26.5t4.5 30.5t1 36.5v265
q0 40 -0.5 116t-0.5 88q0 19 19 19h133q19 0 19 -19z" />
    <glyph glyph-name="Uacute" unicode="&#xfa;" horiz-adv-x="573" 
d="M462 945q27 0 9 -21q-5 -6 -22 -23t-43.5 -42.5t-41.5 -40.5q-18 -18 -40 -18h-90q-12 0 -15 7.5t3 13.5l77 104q14 20 34 20h129zM523 731q0 -12 -0.5 -88t-0.5 -116t0.5 -114t0.5 -103q0 -53 -3 -91t-17 -85.5t-38 -77t-69.5 -50.5t-109.5 -21q-46 0 -82.5 10.5
t-60.5 27t-42 43t-27.5 52.5t-15 62t-7 64t-1.5 66q0 29 0.5 103t0.5 114t-0.5 116t-0.5 88q0 19 18 19h133q20 0 20 -19q0 -12 -0.5 -88t-0.5 -116v-265q0 -23 1 -36.5t4.5 -30.5t10 -26.5t19.5 -16t31 -6.5q19 0 31.5 6.5t19.5 16t10.5 26.5t4.5 30.5t1 36.5v265
q0 40 -0.5 116t-0.5 88q0 19 19 19h133q19 0 19 -19z" />
    <glyph glyph-name="Ucircumflex" unicode="&#xdb;" horiz-adv-x="573" 
d="M118 800q-14 0 -6 12q6 10 37.5 51.5t45.5 57.5q22 27 51 27h73q28 0 50 -26q24 -28 84 -110q4 -7 1.5 -9.5t-7.5 -2.5h-100q-14 0 -26 15l-40 52l-40 -53q-11 -14 -25 -14h-98zM523 731q0 -12 -0.5 -88t-0.5 -116t0.5 -114t0.5 -103q0 -53 -3 -91t-17 -85.5t-38 -77
t-69.5 -50.5t-109.5 -21q-46 0 -82.5 10.5t-60.5 27t-42 43t-27.5 52.5t-15 62t-7 64t-1.5 66q0 29 0.5 103t0.5 114t-0.5 116t-0.5 88q0 19 18 19h133q20 0 20 -19q0 -12 -0.5 -88t-0.5 -116v-265q0 -23 1 -36.5t4.5 -30.5t10 -26.5t19.5 -16t31 -6.5q19 0 31.5 6.5
t19.5 16t10.5 26.5t4.5 30.5t1 36.5v265q0 40 -0.5 116t-0.5 88q0 19 19 19h133q19 0 19 -19z" />
    <glyph glyph-name="Ucircumflex" unicode="&#xfb;" horiz-adv-x="573" 
d="M118 800q-14 0 -6 12q6 10 37.5 51.5t45.5 57.5q22 27 51 27h73q28 0 50 -26q24 -28 84 -110q4 -7 1.5 -9.5t-7.5 -2.5h-100q-14 0 -26 15l-40 52l-40 -53q-11 -14 -25 -14h-98zM523 731q0 -12 -0.5 -88t-0.5 -116t0.5 -114t0.5 -103q0 -53 -3 -91t-17 -85.5t-38 -77
t-69.5 -50.5t-109.5 -21q-46 0 -82.5 10.5t-60.5 27t-42 43t-27.5 52.5t-15 62t-7 64t-1.5 66q0 29 0.5 103t0.5 114t-0.5 116t-0.5 88q0 19 18 19h133q20 0 20 -19q0 -12 -0.5 -88t-0.5 -116v-265q0 -23 1 -36.5t4.5 -30.5t10 -26.5t19.5 -16t31 -6.5q19 0 31.5 6.5
t19.5 16t10.5 26.5t4.5 30.5t1 36.5v265q0 40 -0.5 116t-0.5 88q0 19 19 19h133q19 0 19 -19z" />
    <glyph glyph-name="Udieresis" unicode="&#xdc;" horiz-adv-x="573" 
d="M172 792q-35 0 -59.5 23t-24.5 53t24.5 52.5t59.5 22.5q34 0 58.5 -22.5t24.5 -52.5t-24.5 -53t-58.5 -23zM402 792q-35 0 -59.5 23t-24.5 53t24.5 52.5t59.5 22.5q34 0 58.5 -22.5t24.5 -52.5t-24.5 -53t-58.5 -23zM523 731q0 -12 -0.5 -88t-0.5 -116t0.5 -114t0.5 -103
q0 -53 -3 -91t-17 -85.5t-38 -77t-69.5 -50.5t-109.5 -21q-46 0 -82.5 10.5t-60.5 27t-42 43t-27.5 52.5t-15 62t-7 64t-1.5 66q0 29 0.5 103t0.5 114t-0.5 116t-0.5 88q0 19 18 19h133q20 0 20 -19q0 -12 -0.5 -88t-0.5 -116v-265q0 -23 1 -36.5t4.5 -30.5t10 -26.5
t19.5 -16t31 -6.5q19 0 31.5 6.5t19.5 16t10.5 26.5t4.5 30.5t1 36.5v265q0 40 -0.5 116t-0.5 88q0 19 19 19h133q19 0 19 -19z" />
    <glyph glyph-name="Udieresis" unicode="&#xfc;" horiz-adv-x="573" 
d="M172 792q-35 0 -59.5 23t-24.5 53t24.5 52.5t59.5 22.5q34 0 58.5 -22.5t24.5 -52.5t-24.5 -53t-58.5 -23zM402 792q-35 0 -59.5 23t-24.5 53t24.5 52.5t59.5 22.5q34 0 58.5 -22.5t24.5 -52.5t-24.5 -53t-58.5 -23zM523 731q0 -12 -0.5 -88t-0.5 -116t0.5 -114t0.5 -103
q0 -53 -3 -91t-17 -85.5t-38 -77t-69.5 -50.5t-109.5 -21q-46 0 -82.5 10.5t-60.5 27t-42 43t-27.5 52.5t-15 62t-7 64t-1.5 66q0 29 0.5 103t0.5 114t-0.5 116t-0.5 88q0 19 18 19h133q20 0 20 -19q0 -12 -0.5 -88t-0.5 -116v-265q0 -23 1 -36.5t4.5 -30.5t10 -26.5
t19.5 -16t31 -6.5q19 0 31.5 6.5t19.5 16t10.5 26.5t4.5 30.5t1 36.5v265q0 40 -0.5 116t-0.5 88q0 19 19 19h133q19 0 19 -19z" />
    <glyph glyph-name="Yacute" unicode="&#xdd;" horiz-adv-x="514" 
d="M443 945q27 0 9 -21q-5 -6 -22 -23t-43.5 -42.5t-41.5 -40.5q-18 -18 -40 -18h-90q-12 0 -15 7.5t3 13.5l77 104q14 20 34 20h129zM492 750q25 0 15 -21q-59 -122 -97 -211q-42 -98 -67 -170q-2 -90 -2 -169q0 -81 2 -159q-2 -19 -20 -19h-134q-16 0 -18 19q2 68 2 159
q0 89 -2 169q-52 131 -69 170q-68 159 -95 212q-5 9 0 14.5t18 5.5h128q24 0 32 -20q8 -18 78 -212q3 7 19.5 55t35 100.5t19.5 56.5q7 20 29 20h126z" />
    <glyph glyph-name="Yacute" unicode="&#xfd;" horiz-adv-x="514" 
d="M443 945q27 0 9 -21q-5 -6 -22 -23t-43.5 -42.5t-41.5 -40.5q-18 -18 -40 -18h-90q-12 0 -15 7.5t3 13.5l77 104q14 20 34 20h129zM492 750q25 0 15 -21q-59 -122 -97 -211q-42 -98 -67 -170q-2 -90 -2 -169q0 -81 2 -159q-2 -19 -20 -19h-134q-16 0 -18 19q2 68 2 159
q0 89 -2 169q-52 131 -69 170q-68 159 -95 212q-5 9 0 14.5t18 5.5h128q24 0 32 -20q8 -18 78 -212q3 7 19.5 55t35 100.5t19.5 56.5q7 20 29 20h126z" />
    <glyph glyph-name="Thorn" unicode="&#xde;" horiz-adv-x="513" 
d="M239 618q119 0 189 -69t70 -159q0 -106 -70 -178t-193 -72q-15 0 -15 -18l1 -107q0 -15 -17 -15h-137q-17 0 -17 20q0 3 1 78.5t1.5 158t0.5 103.5q0 28 -1 200l-2 171q0 19 22 19h132q17 0 17 -20v-99q0 -13 18 -13zM232 282q17 0 37.5 5.5t42.5 29.5t22 63
q0 50 -32 73.5t-70 23.5q-11 0 -11 -12v-171q0 -12 11 -12z" />
    <glyph glyph-name="Thorn" unicode="&#xfe;" horiz-adv-x="513" 
d="M239 618q119 0 189 -69t70 -159q0 -106 -70 -178t-193 -72q-15 0 -15 -18l1 -107q0 -15 -17 -15h-137q-17 0 -17 20q0 3 1 78.5t1.5 158t0.5 103.5q0 28 -1 200l-2 171q0 19 22 19h132q17 0 17 -20v-99q0 -13 18 -13zM232 282q17 0 37.5 5.5t42.5 29.5t22 63
q0 50 -32 73.5t-70 23.5q-11 0 -11 -12v-171q0 -12 11 -12z" />
    <glyph glyph-name="uni1E9E" unicode="&#xdf;" horiz-adv-x="563" 
d="M361 609q-22 5 -65 5q-42 0 -58.5 -28.5t-16.5 -90.5q0 -46 -0.5 -123t-0.5 -118q0 -37 0.5 -110t0.5 -109q0 -35 -34 -35h-104q-33 0 -33 35q0 37 1 110t1 109q0 40 -0.5 119.5t-0.5 117.5q0 145 57.5 208t173.5 63q98 0 205 -28q23 -6 23 -31l1 -113q0 -29 -26 -34
q-78 -16 -78 -83q0 -37 49 -100q4 -5 18.5 -23t21.5 -27t19 -28.5t17.5 -35t10.5 -38t5 -45.5q0 -85 -49.5 -133.5t-131.5 -48.5q-40 0 -85 12q-25 7 -25 32v88q0 26 24 16q44 -19 76.5 -4.5t32.5 55.5q0 16 -7.5 32.5t-15.5 28t-27 34.5t-28 35q-20 26 -31 43t-20 43t-9 53
q0 48 29 87.5t80 53.5v6z" />
    <glyph glyph-name="uni1E9E" unicode="&#x1e9e;" horiz-adv-x="563" 
d="M361 609q-22 5 -65 5q-42 0 -58.5 -28.5t-16.5 -90.5q0 -46 -0.5 -123t-0.5 -118q0 -37 0.5 -110t0.5 -109q0 -35 -34 -35h-104q-33 0 -33 35q0 37 1 110t1 109q0 40 -0.5 119.5t-0.5 117.5q0 145 57.5 208t173.5 63q98 0 205 -28q23 -6 23 -31l1 -113q0 -29 -26 -34
q-78 -16 -78 -83q0 -37 49 -100q4 -5 18.5 -23t21.5 -27t19 -28.5t17.5 -35t10.5 -38t5 -45.5q0 -85 -49.5 -133.5t-131.5 -48.5q-40 0 -85 12q-25 7 -25 32v88q0 26 24 16q44 -19 76.5 -4.5t32.5 55.5q0 16 -7.5 32.5t-15.5 28t-27 34.5t-28 35q-20 26 -31 43t-20 43t-9 53
q0 48 29 87.5t80 53.5v6z" />
    <glyph glyph-name="igrave" unicode="&#xec;" 
d="M-56 945h129q20 0 34 -20l77 -104q6 -6 3 -13.5t-15 -7.5h-90q-22 0 -40 18q-15 15 -41.5 40.5t-43.5 42.5t-22 23q-18 21 9 21zM221 732q0 -3 -0.5 -78.5t-1 -162t-0.5 -114.5t0.5 -114.5t1 -162.5t0.5 -79q0 -21 -25 -21h-122q-9 0 -16.5 5.5t-7.5 15.5q0 2 1 80
t1.5 165t0.5 111q0 25 -0.5 111t-1.5 163.5t-1 80.5q0 18 24 18h123q24 0 24 -18z" />
    <glyph glyph-name="iacute" unicode="&#xed;" 
d="M316 945q27 0 9 -21q-5 -6 -22 -23t-43.5 -42.5t-41.5 -40.5q-18 -18 -40 -18h-90q-12 0 -15 7.5t3 13.5l77 104q14 20 34 20h129zM221 732q0 -3 -0.5 -78.5t-1 -162t-0.5 -114.5t0.5 -114.5t1 -162.5t0.5 -79q0 -21 -25 -21h-122q-9 0 -16.5 5.5t-7.5 15.5q0 2 1 80
t1.5 165t0.5 111q0 25 -0.5 111t-1.5 163.5t-1 80.5q0 18 24 18h123q24 0 24 -18z" />
    <glyph glyph-name="icircumflex" unicode="&#xee;" 
d="M-28 800q-14 0 -6 12q6 10 37.5 51.5t45.5 57.5q22 27 51 27h73q28 0 50 -26q24 -28 84 -110q4 -7 1.5 -9.5t-7.5 -2.5h-100q-14 0 -26 15l-40 52l-40 -53q-11 -14 -25 -14h-98zM221 732q0 -3 -0.5 -78.5t-1 -162t-0.5 -114.5t0.5 -114.5t1 -162.5t0.5 -79q0 -21 -25 -21
h-122q-9 0 -16.5 5.5t-7.5 15.5q0 2 1 80t1.5 165t0.5 111q0 25 -0.5 111t-1.5 163.5t-1 80.5q0 18 24 18h123q24 0 24 -18z" />
    <glyph glyph-name="idieresis" unicode="&#xef;" 
d="M26 792q-35 0 -59.5 23t-24.5 53t24.5 52.5t59.5 22.5q34 0 58.5 -22.5t24.5 -52.5t-24.5 -53t-58.5 -23zM256 792q-35 0 -59.5 23t-24.5 53t24.5 52.5t59.5 22.5q34 0 58.5 -22.5t24.5 -52.5t-24.5 -53t-58.5 -23zM221 732q0 -3 -0.5 -78.5t-1 -162t-0.5 -114.5
t0.5 -114.5t1 -162.5t0.5 -79q0 -21 -25 -21h-122q-9 0 -16.5 5.5t-7.5 15.5q0 2 1 80t1.5 165t0.5 111q0 25 -0.5 111t-1.5 163.5t-1 80.5q0 18 24 18h123q24 0 24 -18z" />
    <glyph glyph-name="divide" unicode="&#xf7;" horiz-adv-x="487" 
d="M234 653q32 0 55 -25.5t23 -61.5t-23 -61t-55 -25q-33 0 -56 25t-23 61t23 61.5t56 25.5zM40 414q0 25 25 25h357q25 0 25 -25v-68q0 -25 -25 -25h-357q-25 0 -25 25v68zM234 278q32 0 55 -25.5t23 -61.5t-23 -61t-55 -25q-33 0 -56 25t-23 61t23 61.5t56 25.5z" />
    <glyph glyph-name="Ydieresis" unicode="&#xff;" horiz-adv-x="514" 
d="M153 792q-35 0 -59.5 23t-24.5 53t24.5 52.5t59.5 22.5q34 0 58.5 -22.5t24.5 -52.5t-24.5 -53t-58.5 -23zM383 792q-35 0 -59.5 23t-24.5 53t24.5 52.5t59.5 22.5q34 0 58.5 -22.5t24.5 -52.5t-24.5 -53t-58.5 -23zM492 750q25 0 15 -21q-59 -122 -97 -211
q-42 -98 -67 -170q-2 -90 -2 -169q0 -81 2 -159q-2 -19 -20 -19h-134q-16 0 -18 19q2 68 2 159q0 89 -2 169q-52 131 -69 170q-68 159 -95 212q-5 9 0 14.5t18 5.5h128q24 0 32 -20q8 -18 78 -212q3 7 19.5 55t35 100.5t19.5 56.5q7 20 29 20h126z" />
    <glyph glyph-name="Ydieresis" unicode="&#x178;" horiz-adv-x="514" 
d="M153 792q-35 0 -59.5 23t-24.5 53t24.5 52.5t59.5 22.5q34 0 58.5 -22.5t24.5 -52.5t-24.5 -53t-58.5 -23zM383 792q-35 0 -59.5 23t-24.5 53t24.5 52.5t59.5 22.5q34 0 58.5 -22.5t24.5 -52.5t-24.5 -53t-58.5 -23zM492 750q25 0 15 -21q-59 -122 -97 -211
q-42 -98 -67 -170q-2 -90 -2 -169q0 -81 2 -159q-2 -19 -20 -19h-134q-16 0 -18 19q2 68 2 159q0 89 -2 169q-52 131 -69 170q-68 159 -95 212q-5 9 0 14.5t18 5.5h128q24 0 32 -20q8 -18 78 -212q3 7 19.5 55t35 100.5t19.5 56.5q7 20 29 20h126z" />
    <glyph glyph-name="Amacron" unicode="&#x100;" horiz-adv-x="558" 
d="M448 852q0 -28 -28 -28q-4 0 -23.5 0.5t-51 1t-65.5 0.5q-35 0 -68 -0.5t-54 -1t-25 -0.5q-23 0 -23 27v45q0 26 23 26q4 0 24.5 -0.5t54 -1t68.5 -0.5q34 0 65.5 0.5t51 1t23.5 0.5q28 0 28 -27v-43zM552 28q6 -28 -27 -28h-130q-19 0 -24 19l-16 78q-3 13 -17 13h-118
q-14 0 -17 -13l-16 -78q-5 -19 -24 -19h-130q-33 0 -27 28q41 163 85 348q67 281 81 349q5 26 38 26h138q33 0 39 -27l80 -347q48 -206 85 -349zM311 245q19 0 16 20l-48 334h-2l-46 -334q-3 -20 16 -20h64z" />
    <glyph glyph-name="Amacron" unicode="&#x101;" horiz-adv-x="558" 
d="M448 852q0 -28 -28 -28q-4 0 -23.5 0.5t-51 1t-65.5 0.5q-35 0 -68 -0.5t-54 -1t-25 -0.5q-23 0 -23 27v45q0 26 23 26q4 0 24.5 -0.5t54 -1t68.5 -0.5q34 0 65.5 0.5t51 1t23.5 0.5q28 0 28 -27v-43zM552 28q6 -28 -27 -28h-130q-19 0 -24 19l-16 78q-3 13 -17 13h-118
q-14 0 -17 -13l-16 -78q-5 -19 -24 -19h-130q-33 0 -27 28q41 163 85 348q67 281 81 349q5 26 38 26h138q33 0 39 -27l80 -347q48 -206 85 -349zM311 245q19 0 16 20l-48 334h-2l-46 -334q-3 -20 16 -20h64z" />
    <glyph glyph-name="Abreve" unicode="&#x102;" horiz-adv-x="558" 
d="M278 791q-72 0 -110.5 40t-47.5 104q-1 10 8 10h75q9 0 12 -10q17 -42 63 -42t64 42q3 10 12 10h75q9 0 8 -10q-9 -64 -48 -104t-111 -40zM552 28q6 -28 -27 -28h-130q-19 0 -24 19l-16 78q-3 13 -17 13h-118q-14 0 -17 -13l-16 -78q-5 -19 -24 -19h-130q-33 0 -27 28
q41 163 85 348q67 281 81 349q5 26 38 26h138q33 0 39 -27l80 -347q48 -206 85 -349zM311 245q19 0 16 20l-48 334h-2l-46 -334q-3 -20 16 -20h64z" />
    <glyph glyph-name="Abreve" unicode="&#x103;" horiz-adv-x="558" 
d="M278 791q-72 0 -110.5 40t-47.5 104q-1 10 8 10h75q9 0 12 -10q17 -42 63 -42t64 42q3 10 12 10h75q9 0 8 -10q-9 -64 -48 -104t-111 -40zM552 28q6 -28 -27 -28h-130q-19 0 -24 19l-16 78q-3 13 -17 13h-118q-14 0 -17 -13l-16 -78q-5 -19 -24 -19h-130q-33 0 -27 28
q41 163 85 348q67 281 81 349q5 26 38 26h138q33 0 39 -27l80 -347q48 -206 85 -349zM311 245q19 0 16 20l-48 334h-2l-46 -334q-3 -20 16 -20h64z" />
    <glyph glyph-name="Aogonek" unicode="&#x104;" horiz-adv-x="558" 
d="M547 -121q7 0 7 -9v-55q0 -7 -9 -12q-24 -15 -72 -15q-51 0 -83 21t-32 66q0 67 94 125h-57q-19 0 -24 19l-16 78q-3 13 -17 13h-118q-14 0 -17 -13l-16 -78q-5 -19 -24 -19h-130q-33 0 -27 28q41 163 85 348q67 281 81 349q5 26 38 26h138q33 0 39 -27l80 -347
q45 -195 82 -337q5 -15 5 -25q0 -16 -11 -27q-41 -38 -53 -55.5t-12 -31.5q0 -26 34 -26q12 0 23 2t12 2zM311 245q19 0 16 20l-48 334h-2l-46 -334q-3 -20 16 -20h64z" />
    <glyph glyph-name="Aogonek" unicode="&#x105;" horiz-adv-x="558" 
d="M547 -121q7 0 7 -9v-55q0 -7 -9 -12q-24 -15 -72 -15q-51 0 -83 21t-32 66q0 67 94 125h-57q-19 0 -24 19l-16 78q-3 13 -17 13h-118q-14 0 -17 -13l-16 -78q-5 -19 -24 -19h-130q-33 0 -27 28q41 163 85 348q67 281 81 349q5 26 38 26h138q33 0 39 -27l80 -347
q45 -195 82 -337q5 -15 5 -25q0 -16 -11 -27q-41 -38 -53 -55.5t-12 -31.5q0 -26 34 -26q12 0 23 2t12 2zM311 245q19 0 16 20l-48 334h-2l-46 -334q-3 -20 16 -20h64z" />
    <glyph glyph-name="Cacute" unicode="&#x106;" horiz-adv-x="468" 
d="M474 945q27 0 9 -21q-5 -6 -22 -23t-43.5 -42.5t-41.5 -40.5q-18 -18 -40 -18h-90q-12 0 -15 7.5t3 13.5l77 104q14 20 34 20h129zM420 164q18 0 18 -20v-112q0 -17 -13 -22q-42 -18 -106 -18q-129 0 -211.5 107t-82.5 274q0 170 82.5 278t211.5 108q69 0 107 -17
q12 -5 12 -24v-112q0 -26 -26 -19t-55 7q-69 0 -113 -62.5t-44 -158.5t43 -156t111 -60q20 0 42 3.5t24 3.5z" />
    <glyph glyph-name="Cacute" unicode="&#x107;" horiz-adv-x="468" 
d="M474 945q27 0 9 -21q-5 -6 -22 -23t-43.5 -42.5t-41.5 -40.5q-18 -18 -40 -18h-90q-12 0 -15 7.5t3 13.5l77 104q14 20 34 20h129zM420 164q18 0 18 -20v-112q0 -17 -13 -22q-42 -18 -106 -18q-129 0 -211.5 107t-82.5 274q0 170 82.5 278t211.5 108q69 0 107 -17
q12 -5 12 -24v-112q0 -26 -26 -19t-55 7q-69 0 -113 -62.5t-44 -158.5t43 -156t111 -60q20 0 42 3.5t24 3.5z" />
    <glyph glyph-name="Ccircumflex" unicode="&#x108;" horiz-adv-x="468" 
d="M130 800q-14 0 -6 12q6 10 37.5 51.5t45.5 57.5q22 27 51 27h73q28 0 50 -26q24 -28 84 -110q4 -7 1.5 -9.5t-7.5 -2.5h-100q-14 0 -26 15l-40 52l-40 -53q-11 -14 -25 -14h-98zM420 164q18 0 18 -20v-112q0 -17 -13 -22q-42 -18 -106 -18q-129 0 -211.5 107t-82.5 274
q0 170 82.5 278t211.5 108q69 0 107 -17q12 -5 12 -24v-112q0 -26 -26 -19t-55 7q-69 0 -113 -62.5t-44 -158.5t43 -156t111 -60q20 0 42 3.5t24 3.5z" />
    <glyph glyph-name="Ccircumflex" unicode="&#x109;" horiz-adv-x="468" 
d="M130 800q-14 0 -6 12q6 10 37.5 51.5t45.5 57.5q22 27 51 27h73q28 0 50 -26q24 -28 84 -110q4 -7 1.5 -9.5t-7.5 -2.5h-100q-14 0 -26 15l-40 52l-40 -53q-11 -14 -25 -14h-98zM420 164q18 0 18 -20v-112q0 -17 -13 -22q-42 -18 -106 -18q-129 0 -211.5 107t-82.5 274
q0 170 82.5 278t211.5 108q69 0 107 -17q12 -5 12 -24v-112q0 -26 -26 -19t-55 7q-69 0 -113 -62.5t-44 -158.5t43 -156t111 -60q20 0 42 3.5t24 3.5z" />
    <glyph glyph-name="Cdotaccent" unicode="&#x10a;" horiz-adv-x="468" 
d="M294 795q-38 0 -64.5 24.5t-26.5 57.5t26.5 57.5t64.5 24.5q37 0 63.5 -24.5t26.5 -57.5t-26.5 -57.5t-63.5 -24.5zM420 164q18 0 18 -20v-112q0 -17 -13 -22q-42 -18 -106 -18q-129 0 -211.5 107t-82.5 274q0 170 82.5 278t211.5 108q69 0 107 -17q12 -5 12 -24v-112
q0 -26 -26 -19t-55 7q-69 0 -113 -62.5t-44 -158.5t43 -156t111 -60q20 0 42 3.5t24 3.5z" />
    <glyph glyph-name="Cdotaccent" unicode="&#x10b;" horiz-adv-x="468" 
d="M294 795q-38 0 -64.5 24.5t-26.5 57.5t26.5 57.5t64.5 24.5q37 0 63.5 -24.5t26.5 -57.5t-26.5 -57.5t-63.5 -24.5zM420 164q18 0 18 -20v-112q0 -17 -13 -22q-42 -18 -106 -18q-129 0 -211.5 107t-82.5 274q0 170 82.5 278t211.5 108q69 0 107 -17q12 -5 12 -24v-112
q0 -26 -26 -19t-55 7q-69 0 -113 -62.5t-44 -158.5t43 -156t111 -60q20 0 42 3.5t24 3.5z" />
    <glyph glyph-name="Ccaron" unicode="&#x10c;" horiz-adv-x="468" 
d="M458 945q14 0 6 -12q-6 -10 -37.5 -51.5t-45.5 -57.5q-22 -27 -51 -27h-73q-28 0 -50 26q-24 28 -84 110q-4 7 -1.5 9.5t7.5 2.5h100q14 0 26 -15l40 -52l40 53q11 14 25 14h98zM420 164q18 0 18 -20v-112q0 -17 -13 -22q-42 -18 -106 -18q-129 0 -211.5 107t-82.5 274
q0 170 82.5 278t211.5 108q69 0 107 -17q12 -5 12 -24v-112q0 -26 -26 -19t-55 7q-69 0 -113 -62.5t-44 -158.5t43 -156t111 -60q20 0 42 3.5t24 3.5z" />
    <glyph glyph-name="Ccaron" unicode="&#x10d;" horiz-adv-x="468" 
d="M458 945q14 0 6 -12q-6 -10 -37.5 -51.5t-45.5 -57.5q-22 -27 -51 -27h-73q-28 0 -50 26q-24 28 -84 110q-4 7 -1.5 9.5t7.5 2.5h100q14 0 26 -15l40 -52l40 53q11 14 25 14h98zM420 164q18 0 18 -20v-112q0 -17 -13 -22q-42 -18 -106 -18q-129 0 -211.5 107t-82.5 274
q0 170 82.5 278t211.5 108q69 0 107 -17q12 -5 12 -24v-112q0 -26 -26 -19t-55 7q-69 0 -113 -62.5t-44 -158.5t43 -156t111 -60q20 0 42 3.5t24 3.5z" />
    <glyph glyph-name="Dcaron" unicode="&#x10e;" horiz-adv-x="561" 
d="M396 945q14 0 6 -12q-6 -10 -37.5 -51.5t-45.5 -57.5q-22 -27 -51 -27h-73q-28 0 -50 26q-24 28 -84 110q-4 7 -1.5 9.5t7.5 2.5h100q14 0 26 -15l40 -52l40 53q11 14 25 14h98zM219 750q155 0 236 -93t81 -268q0 -188 -81 -288.5t-236 -100.5h-136q-15 0 -24 9.5
t-9 25.5q0 4 2 157t2 184t-2 183t-2 158q0 15 9 24t24 9h136zM222 155q66 0 105 63t39 171q0 95 -39 150.5t-105 55.5q-3 -49 -3 -219q0 -176 3 -221z" />
    <glyph glyph-name="Dcaron" unicode="&#x10f;" horiz-adv-x="561" 
d="M396 945q14 0 6 -12q-6 -10 -37.5 -51.5t-45.5 -57.5q-22 -27 -51 -27h-73q-28 0 -50 26q-24 28 -84 110q-4 7 -1.5 9.5t7.5 2.5h100q14 0 26 -15l40 -52l40 53q11 14 25 14h98zM219 750q155 0 236 -93t81 -268q0 -188 -81 -288.5t-236 -100.5h-136q-15 0 -24 9.5
t-9 25.5q0 4 2 157t2 184t-2 183t-2 158q0 15 9 24t24 9h136zM222 155q66 0 105 63t39 171q0 95 -39 150.5t-105 55.5q-3 -49 -3 -219q0 -176 3 -221z" />
    <glyph glyph-name="Dcroat" unicode="&#x110;" horiz-adv-x="612" 
d="M271 750q75 0 132.5 -22t91.5 -56.5t55.5 -84t29 -97t7.5 -101.5q0 -62 -10.5 -117.5t-34.5 -106t-59.5 -86.5t-89.5 -57.5t-122 -21.5h-145q-13 0 -23 8.5t-10 26.5l4 300h-64q-23 0 -23 27v52q0 26 23 26h63q0 44 -1 109.5t-1.5 114.5t-0.5 53q0 18 10 25.5t23 7.5h145
zM265 155q16 0 39.5 11.5t51.5 35.5t47.5 73.5t19.5 113.5q0 32 -6.5 64.5t-22.5 66.5t-49 55.5t-80 21.5q-3 -31 -3 -157h68q28 0 28 -27v-50q0 -28 -28 -28h-68q0 -116 3 -180z" />
    <glyph glyph-name="Dcroat" unicode="&#x111;" horiz-adv-x="612" 
d="M271 750q75 0 132.5 -22t91.5 -56.5t55.5 -84t29 -97t7.5 -101.5q0 -62 -10.5 -117.5t-34.5 -106t-59.5 -86.5t-89.5 -57.5t-122 -21.5h-145q-13 0 -23 8.5t-10 26.5l4 300h-64q-23 0 -23 27v52q0 26 23 26h63q0 44 -1 109.5t-1.5 114.5t-0.5 53q0 18 10 25.5t23 7.5h145
zM265 155q16 0 39.5 11.5t51.5 35.5t47.5 73.5t19.5 113.5q0 32 -6.5 64.5t-22.5 66.5t-49 55.5t-80 21.5q-3 -31 -3 -157h68q28 0 28 -27v-50q0 -28 -28 -28h-68q0 -116 3 -180z" />
    <glyph glyph-name="Emacron" unicode="&#x112;" horiz-adv-x="417" 
d="M383 852q0 -28 -28 -28q-4 0 -23.5 0.5t-51 1t-65.5 0.5q-35 0 -68 -0.5t-54 -1t-25 -0.5q-23 0 -23 27v45q0 26 23 26q4 0 24.5 -0.5t54 -1t68.5 -0.5q34 0 65.5 0.5t51 1t23.5 0.5q28 0 28 -27v-43zM356 156q26 0 26 -18v-120q0 -18 -25 -18h-278q-15 0 -22 9t-7 20
q1 58 2.5 173.5t2.5 173.5q-1 57 -2.5 172.5t-2.5 173.5q0 11 7 19.5t22 8.5h278q25 0 25 -17v-120q0 -18 -26 -18h-130q-5 0 -5 -6v-126q0 -9 5 -9h124q17 0 17 -16v-124q0 -15 -17 -15h-124q-5 0 -5 -8v-130q0 -5 5 -5h130z" />
    <glyph glyph-name="Emacron" unicode="&#x113;" horiz-adv-x="417" 
d="M383 852q0 -28 -28 -28q-4 0 -23.5 0.5t-51 1t-65.5 0.5q-35 0 -68 -0.5t-54 -1t-25 -0.5q-23 0 -23 27v45q0 26 23 26q4 0 24.5 -0.5t54 -1t68.5 -0.5q34 0 65.5 0.5t51 1t23.5 0.5q28 0 28 -27v-43zM356 156q26 0 26 -18v-120q0 -18 -25 -18h-278q-15 0 -22 9t-7 20
q1 58 2.5 173.5t2.5 173.5q-1 57 -2.5 172.5t-2.5 173.5q0 11 7 19.5t22 8.5h278q25 0 25 -17v-120q0 -18 -26 -18h-130q-5 0 -5 -6v-126q0 -9 5 -9h124q17 0 17 -16v-124q0 -15 -17 -15h-124q-5 0 -5 -8v-130q0 -5 5 -5h130z" />
    <glyph glyph-name="Ebreve" unicode="&#x114;" horiz-adv-x="417" 
d="M213 791q-72 0 -110.5 40t-47.5 104q-1 10 8 10h75q9 0 12 -10q18 -42 63 -42q47 0 64 42q3 10 12 10h75q9 0 8 -10q-9 -64 -48 -104t-111 -40zM356 156q26 0 26 -18v-120q0 -18 -25 -18h-278q-15 0 -22 9t-7 20q1 58 2.5 173.5t2.5 173.5q-1 57 -2.5 172.5t-2.5 173.5
q0 11 7 19.5t22 8.5h278q25 0 25 -17v-120q0 -18 -26 -18h-130q-5 0 -5 -6v-126q0 -9 5 -9h124q17 0 17 -16v-124q0 -15 -17 -15h-124q-5 0 -5 -8v-130q0 -5 5 -5h130z" />
    <glyph glyph-name="Ebreve" unicode="&#x115;" horiz-adv-x="417" 
d="M213 791q-72 0 -110.5 40t-47.5 104q-1 10 8 10h75q9 0 12 -10q18 -42 63 -42q47 0 64 42q3 10 12 10h75q9 0 8 -10q-9 -64 -48 -104t-111 -40zM356 156q26 0 26 -18v-120q0 -18 -25 -18h-278q-15 0 -22 9t-7 20q1 58 2.5 173.5t2.5 173.5q-1 57 -2.5 172.5t-2.5 173.5
q0 11 7 19.5t22 8.5h278q25 0 25 -17v-120q0 -18 -26 -18h-130q-5 0 -5 -6v-126q0 -9 5 -9h124q17 0 17 -16v-124q0 -15 -17 -15h-124q-5 0 -5 -8v-130q0 -5 5 -5h130z" />
    <glyph glyph-name="Edotaccent" unicode="&#x116;" horiz-adv-x="417" 
d="M214 795q-38 0 -64.5 24.5t-26.5 57.5t26.5 57.5t64.5 24.5q37 0 63.5 -24.5t26.5 -57.5t-26.5 -57.5t-63.5 -24.5zM356 156q26 0 26 -18v-120q0 -18 -25 -18h-278q-15 0 -22 9t-7 20q1 58 2.5 173.5t2.5 173.5q-1 57 -2.5 172.5t-2.5 173.5q0 11 7 19.5t22 8.5h278
q25 0 25 -17v-120q0 -18 -26 -18h-130q-5 0 -5 -6v-126q0 -9 5 -9h124q17 0 17 -16v-124q0 -15 -17 -15h-124q-5 0 -5 -8v-130q0 -5 5 -5h130z" />
    <glyph glyph-name="Edotaccent" unicode="&#x117;" horiz-adv-x="417" 
d="M214 795q-38 0 -64.5 24.5t-26.5 57.5t26.5 57.5t64.5 24.5q37 0 63.5 -24.5t26.5 -57.5t-26.5 -57.5t-63.5 -24.5zM356 156q26 0 26 -18v-120q0 -18 -25 -18h-278q-15 0 -22 9t-7 20q1 58 2.5 173.5t2.5 173.5q-1 57 -2.5 172.5t-2.5 173.5q0 11 7 19.5t22 8.5h278
q25 0 25 -17v-120q0 -18 -26 -18h-130q-5 0 -5 -6v-126q0 -9 5 -9h124q17 0 17 -16v-124q0 -15 -17 -15h-124q-5 0 -5 -8v-130q0 -5 5 -5h130z" />
    <glyph glyph-name="Eogonek" unicode="&#x118;" horiz-adv-x="417" 
d="M226 595q-5 0 -5 -6v-126q0 -9 5 -9h124q17 0 17 -16v-124q0 -15 -17 -15h-124q-5 0 -5 -8v-130q0 -5 5 -5h130q26 0 26 -18v-120v-1v-2q0 -16 -11 -27q-41 -38 -53 -55.5t-12 -31.5q0 -26 34 -26q12 0 23 2t12 2q7 0 7 -9v-55q0 -7 -9 -12q-24 -15 -72 -15q-51 0 -83 21
t-32 66q0 67 94 125h-201q-15 0 -22 9t-7 20q1 58 2.5 173.5t2.5 173.5q-1 57 -2.5 172.5t-2.5 173.5q0 11 7 19.5t22 8.5h278q25 0 25 -17v-120q0 -18 -26 -18h-130z" />
    <glyph glyph-name="Eogonek" unicode="&#x119;" horiz-adv-x="417" 
d="M226 595q-5 0 -5 -6v-126q0 -9 5 -9h124q17 0 17 -16v-124q0 -15 -17 -15h-124q-5 0 -5 -8v-130q0 -5 5 -5h130q26 0 26 -18v-120v-1v-2q0 -16 -11 -27q-41 -38 -53 -55.5t-12 -31.5q0 -26 34 -26q12 0 23 2t12 2q7 0 7 -9v-55q0 -7 -9 -12q-24 -15 -72 -15q-51 0 -83 21
t-32 66q0 67 94 125h-201q-15 0 -22 9t-7 20q1 58 2.5 173.5t2.5 173.5q-1 57 -2.5 172.5t-2.5 173.5q0 11 7 19.5t22 8.5h278q25 0 25 -17v-120q0 -18 -26 -18h-130z" />
    <glyph glyph-name="Ecaron" unicode="&#x11a;" horiz-adv-x="417" 
d="M378 945q14 0 6 -12q-6 -10 -37.5 -51.5t-45.5 -57.5q-22 -27 -51 -27h-73q-28 0 -50 26q-24 28 -84 110q-4 7 -1.5 9.5t7.5 2.5h100q14 0 26 -15l40 -52l40 53q11 14 25 14h98zM356 156q26 0 26 -18v-120q0 -18 -25 -18h-278q-15 0 -22 9t-7 20q1 58 2.5 173.5
t2.5 173.5q-1 57 -2.5 172.5t-2.5 173.5q0 11 7 19.5t22 8.5h278q25 0 25 -17v-120q0 -18 -26 -18h-130q-5 0 -5 -6v-126q0 -9 5 -9h124q17 0 17 -16v-124q0 -15 -17 -15h-124q-5 0 -5 -8v-130q0 -5 5 -5h130z" />
    <glyph glyph-name="Ecaron" unicode="&#x11b;" horiz-adv-x="417" 
d="M378 945q14 0 6 -12q-6 -10 -37.5 -51.5t-45.5 -57.5q-22 -27 -51 -27h-73q-28 0 -50 26q-24 28 -84 110q-4 7 -1.5 9.5t7.5 2.5h100q14 0 26 -15l40 -52l40 53q11 14 25 14h98zM356 156q26 0 26 -18v-120q0 -18 -25 -18h-278q-15 0 -22 9t-7 20q1 58 2.5 173.5
t2.5 173.5q-1 57 -2.5 172.5t-2.5 173.5q0 11 7 19.5t22 8.5h278q25 0 25 -17v-120q0 -18 -26 -18h-130q-5 0 -5 -6v-126q0 -9 5 -9h124q17 0 17 -16v-124q0 -15 -17 -15h-124q-5 0 -5 -8v-130q0 -5 5 -5h130z" />
    <glyph glyph-name="Gcircumflex" unicode="&#x11c;" horiz-adv-x="592" 
d="M137 800q-14 0 -6 12q6 10 37.5 51.5t45.5 57.5q22 27 51 27h73q28 0 50 -26q24 -28 84 -110q4 -7 1.5 -9.5t-7.5 -2.5h-100q-14 0 -26 15l-40 52l-40 -53q-11 -14 -25 -14h-98zM567 411q0 -426 -266 -426q-72 0 -127 32t-86.5 87.5t-47 123.5t-15.5 148q0 75 13 140
t42 123.5t83 92.5t127 34q87 0 154.5 -50t95.5 -137q8 -21 -7 -26q-80 -28 -138 -43q-11 -3 -17 14q-27 87 -86 87q-47 0 -71.5 -65.5t-24.5 -165.5q0 -118 29.5 -174.5t76.5 -56.5q37 0 63.5 31.5t30.5 86.5q0 10 -10 10h-87q-15 0 -15 11v130q0 13 15 13q92 -2 128 -2
q40 0 122 2q18 0 18 -20z" />
    <glyph glyph-name="Gcircumflex" unicode="&#x11d;" horiz-adv-x="592" 
d="M137 800q-14 0 -6 12q6 10 37.5 51.5t45.5 57.5q22 27 51 27h73q28 0 50 -26q24 -28 84 -110q4 -7 1.5 -9.5t-7.5 -2.5h-100q-14 0 -26 15l-40 52l-40 -53q-11 -14 -25 -14h-98zM567 411q0 -426 -266 -426q-72 0 -127 32t-86.5 87.5t-47 123.5t-15.5 148q0 75 13 140
t42 123.5t83 92.5t127 34q87 0 154.5 -50t95.5 -137q8 -21 -7 -26q-80 -28 -138 -43q-11 -3 -17 14q-27 87 -86 87q-47 0 -71.5 -65.5t-24.5 -165.5q0 -118 29.5 -174.5t76.5 -56.5q37 0 63.5 31.5t30.5 86.5q0 10 -10 10h-87q-15 0 -15 11v130q0 13 15 13q92 -2 128 -2
q40 0 122 2q18 0 18 -20z" />
    <glyph glyph-name="Gbreve" unicode="&#x11e;" horiz-adv-x="592" 
d="M300 791q-72 0 -110.5 40t-47.5 104q-1 10 8 10h75q9 0 12 -10q17 -42 63 -42t64 42q3 10 12 10h75q9 0 8 -10q-9 -64 -48 -104t-111 -40zM567 411q0 -426 -266 -426q-72 0 -127 32t-86.5 87.5t-47 123.5t-15.5 148q0 75 13 140t42 123.5t83 92.5t127 34q87 0 154.5 -50
t95.5 -137q8 -21 -7 -26q-80 -28 -138 -43q-11 -3 -17 14q-27 87 -86 87q-47 0 -71.5 -65.5t-24.5 -165.5q0 -118 29.5 -174.5t76.5 -56.5q37 0 63.5 31.5t30.5 86.5q0 10 -10 10h-87q-15 0 -15 11v130q0 13 15 13q92 -2 128 -2q40 0 122 2q18 0 18 -20z" />
    <glyph glyph-name="Gbreve" unicode="&#x11f;" horiz-adv-x="592" 
d="M300 791q-72 0 -110.5 40t-47.5 104q-1 10 8 10h75q9 0 12 -10q17 -42 63 -42t64 42q3 10 12 10h75q9 0 8 -10q-9 -64 -48 -104t-111 -40zM567 411q0 -426 -266 -426q-72 0 -127 32t-86.5 87.5t-47 123.5t-15.5 148q0 75 13 140t42 123.5t83 92.5t127 34q87 0 154.5 -50
t95.5 -137q8 -21 -7 -26q-80 -28 -138 -43q-11 -3 -17 14q-27 87 -86 87q-47 0 -71.5 -65.5t-24.5 -165.5q0 -118 29.5 -174.5t76.5 -56.5q37 0 63.5 31.5t30.5 86.5q0 10 -10 10h-87q-15 0 -15 11v130q0 13 15 13q92 -2 128 -2q40 0 122 2q18 0 18 -20z" />
    <glyph glyph-name="Gdotaccent" unicode="&#x120;" horiz-adv-x="592" 
d="M301 795q-38 0 -64.5 24.5t-26.5 57.5t26.5 57.5t64.5 24.5q37 0 63.5 -24.5t26.5 -57.5t-26.5 -57.5t-63.5 -24.5zM567 411q0 -426 -266 -426q-72 0 -127 32t-86.5 87.5t-47 123.5t-15.5 148q0 75 13 140t42 123.5t83 92.5t127 34q87 0 154.5 -50t95.5 -137
q8 -21 -7 -26q-80 -28 -138 -43q-11 -3 -17 14q-27 87 -86 87q-47 0 -71.5 -65.5t-24.5 -165.5q0 -118 29.5 -174.5t76.5 -56.5q37 0 63.5 31.5t30.5 86.5q0 10 -10 10h-87q-15 0 -15 11v130q0 13 15 13q92 -2 128 -2q40 0 122 2q18 0 18 -20z" />
    <glyph glyph-name="Gdotaccent" unicode="&#x121;" horiz-adv-x="592" 
d="M301 795q-38 0 -64.5 24.5t-26.5 57.5t26.5 57.5t64.5 24.5q37 0 63.5 -24.5t26.5 -57.5t-26.5 -57.5t-63.5 -24.5zM567 411q0 -426 -266 -426q-72 0 -127 32t-86.5 87.5t-47 123.5t-15.5 148q0 75 13 140t42 123.5t83 92.5t127 34q87 0 154.5 -50t95.5 -137
q8 -21 -7 -26q-80 -28 -138 -43q-11 -3 -17 14q-27 87 -86 87q-47 0 -71.5 -65.5t-24.5 -165.5q0 -118 29.5 -174.5t76.5 -56.5q37 0 63.5 31.5t30.5 86.5q0 10 -10 10h-87q-15 0 -15 11v130q0 13 15 13q92 -2 128 -2q40 0 122 2q18 0 18 -20z" />
    <glyph glyph-name="uni0122" unicode="&#x122;" horiz-adv-x="592" 
d="M567 411q0 -426 -266 -426q-72 0 -127 32t-86.5 87.5t-47 123.5t-15.5 148q0 75 13 140t42 123.5t83 92.5t127 34q87 0 154.5 -50t95.5 -137q8 -21 -7 -26q-80 -28 -138 -43q-11 -3 -17 14q-27 87 -86 87q-47 0 -71.5 -65.5t-24.5 -165.5q0 -118 29.5 -174.5t76.5 -56.5
q37 0 63.5 31.5t30.5 86.5q0 10 -10 10h-87q-15 0 -15 11v130q0 13 15 13q92 -2 128 -2q40 0 122 2q18 0 18 -20zM350 -46q27 0 18 -28l-33 -108q-12 -42 -51 -42h-36q-32 0 -26 48l11 92q4 38 39 38h78z" />
    <glyph glyph-name="uni0122" unicode="&#x123;" horiz-adv-x="592" 
d="M567 411q0 -426 -266 -426q-72 0 -127 32t-86.5 87.5t-47 123.5t-15.5 148q0 75 13 140t42 123.5t83 92.5t127 34q87 0 154.5 -50t95.5 -137q8 -21 -7 -26q-80 -28 -138 -43q-11 -3 -17 14q-27 87 -86 87q-47 0 -71.5 -65.5t-24.5 -165.5q0 -118 29.5 -174.5t76.5 -56.5
q37 0 63.5 31.5t30.5 86.5q0 10 -10 10h-87q-15 0 -15 11v130q0 13 15 13q92 -2 128 -2q40 0 122 2q18 0 18 -20zM350 -46q27 0 18 -28l-33 -108q-12 -42 -51 -42h-36q-32 0 -26 48l11 92q4 38 39 38h78z" />
    <glyph glyph-name="Hcircumflex" unicode="&#x124;" horiz-adv-x="573" 
d="M123 800q-14 0 -6 12q6 10 37.5 51.5t45.5 57.5q22 27 51 27h73q28 0 50 -26q24 -28 84 -110q4 -7 1.5 -9.5t-7.5 -2.5h-100q-14 0 -26 15l-40 52l-40 -53q-10 -14 -25 -14h-98zM520 376q0 -23 0.5 -80t1.5 -138.5t1 -121.5q1 -16 -6.5 -26t-21.5 -10h-117
q-14 1 -23 11.5t-9 25.5q0 3 3 122t3 136q0 9 -8 9h-115q-8 0 -8 -9q0 -19 3 -137.5t3 -120.5q0 -15 -9 -25.5t-23 -11.5h-118q-29 0 -27 36q4 252 4 341q0 92 -4 350q0 23 27 23h118q14 0 23 -9t9 -23q-1 -53 -2.5 -114.5t-2.5 -93.5t-1 -44q0 -10 8 -10h115q8 0 8 10
q0 12 -1 44.5t-2.5 95t-2.5 112.5q0 14 9 23t23 9h117q14 0 21.5 -6.5t6.5 -16.5q0 -41 -1 -125.5t-1.5 -143t-0.5 -82.5z" />
    <glyph glyph-name="Hcircumflex" unicode="&#x125;" horiz-adv-x="573" 
d="M123 800q-14 0 -6 12q6 10 37.5 51.5t45.5 57.5q22 27 51 27h73q28 0 50 -26q24 -28 84 -110q4 -7 1.5 -9.5t-7.5 -2.5h-100q-14 0 -26 15l-40 52l-40 -53q-10 -14 -25 -14h-98zM520 376q0 -23 0.5 -80t1.5 -138.5t1 -121.5q1 -16 -6.5 -26t-21.5 -10h-117
q-14 1 -23 11.5t-9 25.5q0 3 3 122t3 136q0 9 -8 9h-115q-8 0 -8 -9q0 -19 3 -137.5t3 -120.5q0 -15 -9 -25.5t-23 -11.5h-118q-29 0 -27 36q4 252 4 341q0 92 -4 350q0 23 27 23h118q14 0 23 -9t9 -23q-1 -53 -2.5 -114.5t-2.5 -93.5t-1 -44q0 -10 8 -10h115q8 0 8 10
q0 12 -1 44.5t-2.5 95t-2.5 112.5q0 14 9 23t23 9h117q14 0 21.5 -6.5t6.5 -16.5q0 -41 -1 -125.5t-1.5 -143t-0.5 -82.5z" />
    <glyph glyph-name="Hbar" unicode="&#x126;" horiz-adv-x="577" 
d="M562 639q25 0 25 -25v-54q0 -25 -25 -25q-24 0 -39 1q0 -40 -0.5 -95.5t-0.5 -64.5q0 -23 0.5 -80t1.5 -138.5t1 -121.5q1 -16 -6.5 -26t-21.5 -10h-117q-14 1 -23 11.5t-9 25.5q0 3 3 122t3 136q0 9 -8 9h-115q-8 0 -8 -9q0 -19 3 -137.5t3 -120.5q0 -15 -9 -25.5
t-23 -11.5h-118q-29 0 -27 36q4 252 4 341q0 2 -0.5 58t-0.5 101q-16 -1 -40 -1q-25 0 -25 25v54q0 25 25 25q24 0 38 -1q0 16 -0.5 45.5t-0.5 43.5q0 23 27 23h118q14 0 23 -9t9 -23t-0.5 -41.5t-1.5 -40.5h63h60q-1 13 -1.5 40.5t-0.5 41.5t9 23t23 9h117q14 0 21.5 -6.5
t6.5 -16.5q0 -13 -0.5 -42.5t-0.5 -46.5q15 1 38 1zM354 466q0 3 -0.5 27t-0.5 44h-64h-65q0 -20 -0.5 -44t-0.5 -27q0 -10 8 -10h115q8 0 8 10z" />
    <glyph glyph-name="Hbar" unicode="&#x127;" horiz-adv-x="577" 
d="M562 639q25 0 25 -25v-54q0 -25 -25 -25q-24 0 -39 1q0 -40 -0.5 -95.5t-0.5 -64.5q0 -23 0.5 -80t1.5 -138.5t1 -121.5q1 -16 -6.5 -26t-21.5 -10h-117q-14 1 -23 11.5t-9 25.5q0 3 3 122t3 136q0 9 -8 9h-115q-8 0 -8 -9q0 -19 3 -137.5t3 -120.5q0 -15 -9 -25.5
t-23 -11.5h-118q-29 0 -27 36q4 252 4 341q0 2 -0.5 58t-0.5 101q-16 -1 -40 -1q-25 0 -25 25v54q0 25 25 25q24 0 38 -1q0 16 -0.5 45.5t-0.5 43.5q0 23 27 23h118q14 0 23 -9t9 -23t-0.5 -41.5t-1.5 -40.5h63h60q-1 13 -1.5 40.5t-0.5 41.5t9 23t23 9h117q14 0 21.5 -6.5
t6.5 -16.5q0 -13 -0.5 -42.5t-0.5 -46.5q15 1 38 1zM354 466q0 3 -0.5 27t-0.5 44h-64h-65q0 -20 -0.5 -44t-0.5 -27q0 -10 8 -10h115q8 0 8 10z" />
    <glyph glyph-name="Itilde" unicode="&#x128;" 
d="M304 936q17 0 16 -16q-1 -55 -30.5 -91t-76.5 -36q-8 0 -16.5 1t-15 2.5t-14.5 4.5t-12.5 4.5t-12.5 5.5l-11 5.5t-11 6.5t-10 6q-36 21 -53 21q-21 0 -30 -28q-5 -16 -17 -16h-42q-17 0 -16 16q1 54 31 89t76 35q43 0 100 -34q36 -21 55 -21q23 0 31 29q4 16 17 16h42z
M221 732q0 -3 -0.5 -78.5t-1 -162t-0.5 -114.5t0.5 -114.5t1 -162.5t0.5 -79q0 -21 -25 -21h-122q-9 0 -16.5 5.5t-7.5 15.5q0 2 1 80t1.5 165t0.5 111q0 25 -0.5 111t-1.5 163.5t-1 80.5q0 18 24 18h123q24 0 24 -18z" />
    <glyph glyph-name="itilde" unicode="&#x129;" 
d="M304 936q17 0 16 -16q-1 -55 -30.5 -91t-76.5 -36q-8 0 -16.5 1t-15 2.5t-14.5 4.5t-12.5 4.5t-12.5 5.5l-11 5.5t-11 6.5t-10 6q-36 21 -53 21q-21 0 -30 -28q-5 -16 -17 -16h-42q-17 0 -16 16q1 54 31 89t76 35q43 0 100 -34q36 -21 55 -21q23 0 31 29q4 16 17 16h42z
M221 732q0 -3 -0.5 -78.5t-1 -162t-0.5 -114.5t0.5 -114.5t1 -162.5t0.5 -79q0 -21 -25 -21h-122q-9 0 -16.5 5.5t-7.5 15.5q0 2 1 80t1.5 165t0.5 111q0 25 -0.5 111t-1.5 163.5t-1 80.5q0 18 24 18h123q24 0 24 -18z" />
    <glyph glyph-name="Imacron" unicode="&#x12a;" 
d="M305 852q0 -28 -28 -28q-4 0 -23.5 0.5t-51 1t-65.5 0.5q-35 0 -68 -0.5t-54 -1t-25 -0.5q-23 0 -23 27v45q0 26 23 26q4 0 24.5 -0.5t54 -1t68.5 -0.5q34 0 65.5 0.5t51 1t23.5 0.5q28 0 28 -27v-43zM221 732q0 -3 -0.5 -78.5t-1 -162t-0.5 -114.5t0.5 -114.5t1 -162.5
t0.5 -79q0 -21 -25 -21h-122q-9 0 -16.5 5.5t-7.5 15.5q0 2 1 80t1.5 165t0.5 111q0 25 -0.5 111t-1.5 163.5t-1 80.5q0 18 24 18h123q24 0 24 -18z" />
    <glyph glyph-name="imacron" unicode="&#x12b;" 
d="M305 852q0 -28 -28 -28q-4 0 -23.5 0.5t-51 1t-65.5 0.5q-35 0 -68 -0.5t-54 -1t-25 -0.5q-23 0 -23 27v45q0 26 23 26q4 0 24.5 -0.5t54 -1t68.5 -0.5q34 0 65.5 0.5t51 1t23.5 0.5q28 0 28 -27v-43zM221 732q0 -3 -0.5 -78.5t-1 -162t-0.5 -114.5t0.5 -114.5t1 -162.5
t0.5 -79q0 -21 -25 -21h-122q-9 0 -16.5 5.5t-7.5 15.5q0 2 1 80t1.5 165t0.5 111q0 25 -0.5 111t-1.5 163.5t-1 80.5q0 18 24 18h123q24 0 24 -18z" />
    <glyph glyph-name="Ibreve" unicode="&#x12c;" 
d="M135 791q-72 0 -110.5 40t-47.5 104q-1 10 8 10h75q9 0 12 -10q17 -42 63 -42q47 0 64 42q3 10 12 10h75q9 0 8 -10q-9 -64 -48 -104t-111 -40zM221 732q0 -3 -0.5 -78.5t-1 -162t-0.5 -114.5t0.5 -114.5t1 -162.5t0.5 -79q0 -21 -25 -21h-122q-9 0 -16.5 5.5t-7.5 15.5
q0 2 1 80t1.5 165t0.5 111q0 25 -0.5 111t-1.5 163.5t-1 80.5q0 18 24 18h123q24 0 24 -18z" />
    <glyph glyph-name="ibreve" unicode="&#x12d;" 
d="M135 791q-72 0 -110.5 40t-47.5 104q-1 10 8 10h75q9 0 12 -10q17 -42 63 -42q47 0 64 42q3 10 12 10h75q9 0 8 -10q-9 -64 -48 -104t-111 -40zM221 732q0 -3 -0.5 -78.5t-1 -162t-0.5 -114.5t0.5 -114.5t1 -162.5t0.5 -79q0 -21 -25 -21h-122q-9 0 -16.5 5.5t-7.5 15.5
q0 2 1 80t1.5 165t0.5 111q0 25 -0.5 111t-1.5 163.5t-1 80.5q0 18 24 18h123q24 0 24 -18z" />
    <glyph glyph-name="Iogonek" unicode="&#x12e;" 
d="M219 377q0 -28 0.5 -114.5t1 -162.5t0.5 -79v-3v-3q0 -16 -11 -27q-41 -38 -53 -55.5t-12 -31.5q0 -26 34 -26q12 0 23 2t12 2q7 0 7 -9v-55q0 -7 -9 -12q-24 -15 -72 -15q-51 0 -83 21t-32 66q0 67 94 125h-45q-9 0 -16.5 5.5t-7.5 15.5q0 2 1 80t1.5 165t0.5 111
q0 25 -0.5 111t-1.5 163.5t-1 80.5q0 18 24 18h123q24 0 24 -18q0 -3 -0.5 -78.5t-1 -162t-0.5 -114.5z" />
    <glyph glyph-name="iogonek" unicode="&#x12f;" 
d="M219 377q0 -28 0.5 -114.5t1 -162.5t0.5 -79v-3v-3q0 -16 -11 -27q-41 -38 -53 -55.5t-12 -31.5q0 -26 34 -26q12 0 23 2t12 2q7 0 7 -9v-55q0 -7 -9 -12q-24 -15 -72 -15q-51 0 -83 21t-32 66q0 67 94 125h-45q-9 0 -16.5 5.5t-7.5 15.5q0 2 1 80t1.5 165t0.5 111
q0 25 -0.5 111t-1.5 163.5t-1 80.5q0 18 24 18h123q24 0 24 -18q0 -3 -0.5 -78.5t-1 -162t-0.5 -114.5z" />
    <glyph glyph-name="Idotaccent" unicode="&#x130;" 
d="M136 795q-38 0 -64.5 24.5t-26.5 57.5t26.5 57.5t64.5 24.5q37 0 63.5 -24.5t26.5 -57.5t-26.5 -57.5t-63.5 -24.5zM221 732q0 -3 -0.5 -78.5t-1 -162t-0.5 -114.5t0.5 -114.5t1 -162.5t0.5 -79q0 -21 -25 -21h-122q-9 0 -16.5 5.5t-7.5 15.5q0 2 1 80t1.5 165t0.5 111
q0 25 -0.5 111t-1.5 163.5t-1 80.5q0 18 24 18h123q24 0 24 -18z" />
    <glyph glyph-name="dotlessi" unicode="&#x131;" 
d="M221 732q0 -3 -0.5 -78.5t-1 -162t-0.5 -114.5t0.5 -114.5t1 -162.5t0.5 -79q0 -21 -25 -21h-122q-9 0 -16.5 5.5t-7.5 15.5q0 2 1 80t1.5 165t0.5 111q0 25 -0.5 111t-1.5 163.5t-1 80.5q0 18 24 18h123q24 0 24 -18z" />
    <glyph glyph-name="IJ" unicode="&#x132;" horiz-adv-x="639" 
d="M221 732q0 -3 -0.5 -78.5t-1 -162t-0.5 -114.5t0.5 -114.5t1 -162.5t0.5 -79q0 -21 -25 -21h-122q-9 0 -16.5 5.5t-7.5 15.5q0 2 1 80t1.5 165t0.5 111q0 25 -0.5 111t-1.5 163.5t-1 80.5q0 18 24 18h123q24 0 24 -18zM569 750q20 0 20 -19q0 -1 -0.5 -44.5t-1.5 -108.5
t-1 -120q0 -40 -0.5 -106.5t-0.5 -82.5q0 -53 -3 -90t-13 -75t-28 -61t-49 -37.5t-75 -14.5q-63 0 -110 22q-16 8 -16 30v128q0 21 21 13q37 -13 53 -13q28 0 39 16t15 64q3 44 1 207q0 56 -1 121.5t-1 108.5l-1 43q0 19 21 19h131z" />
    <glyph glyph-name="IJ" unicode="&#x133;" horiz-adv-x="639" 
d="M221 732q0 -3 -0.5 -78.5t-1 -162t-0.5 -114.5t0.5 -114.5t1 -162.5t0.5 -79q0 -21 -25 -21h-122q-9 0 -16.5 5.5t-7.5 15.5q0 2 1 80t1.5 165t0.5 111q0 25 -0.5 111t-1.5 163.5t-1 80.5q0 18 24 18h123q24 0 24 -18zM569 750q20 0 20 -19q0 -1 -0.5 -44.5t-1.5 -108.5
t-1 -120q0 -40 -0.5 -106.5t-0.5 -82.5q0 -53 -3 -90t-13 -75t-28 -61t-49 -37.5t-75 -14.5q-63 0 -110 22q-16 8 -16 30v128q0 21 21 13q37 -13 53 -13q28 0 39 16t15 64q3 44 1 207q0 56 -1 121.5t-1 108.5l-1 43q0 19 21 19h131z" />
    <glyph glyph-name="Jcircumflex" unicode="&#x134;" horiz-adv-x="368" 
d="M66 800q-14 0 -6 12q6 10 37.5 51.5t45.5 57.5q22 27 51 27h73q28 0 50 -26q24 -28 84 -110q4 -7 1.5 -9.5t-7.5 -2.5h-100q-14 0 -26 15l-40 52l-40 -53q-11 -14 -25 -14h-98zM298 750q20 0 20 -19q0 -1 -1 -44.5t-1.5 -108.5t-0.5 -120q0 -40 -0.5 -106.5t-0.5 -82.5
q0 -53 -3 -90t-13 -75t-28 -61t-49 -37.5t-75 -14.5q-63 0 -110 22q-16 8 -16 30v128q0 21 21 13q37 -13 53 -13q28 0 39 16t15 64q3 44 1 207q0 56 -0.5 121.5t-1.5 108.5l-1 43q0 19 21 19h131z" />
    <glyph glyph-name="Jcircumflex" unicode="&#x135;" horiz-adv-x="368" 
d="M66 800q-14 0 -6 12q6 10 37.5 51.5t45.5 57.5q22 27 51 27h73q28 0 50 -26q24 -28 84 -110q4 -7 1.5 -9.5t-7.5 -2.5h-100q-14 0 -26 15l-40 52l-40 -53q-11 -14 -25 -14h-98zM298 750q20 0 20 -19q0 -1 -1 -44.5t-1.5 -108.5t-0.5 -120q0 -40 -0.5 -106.5t-0.5 -82.5
q0 -53 -3 -90t-13 -75t-28 -61t-49 -37.5t-75 -14.5q-63 0 -110 22q-16 8 -16 30v128q0 21 21 13q37 -13 53 -13q28 0 39 16t15 64q3 44 1 207q0 56 -0.5 121.5t-1.5 108.5l-1 43q0 19 21 19h131z" />
    <glyph glyph-name="uni0136" unicode="&#x136;" horiz-adv-x="531" 
d="M520 20q8 -20 -20 -20h-141q-20 0 -27 20q-10 29 -35.5 96.5t-47 123.5t-22.5 58q-4 10 -6 10q-3 0 -3 -8q0 -28 1.5 -151.5t1.5 -128.5q0 -20 -20 -20h-131q-20 0 -20 20l2 166q2 165 2 191t-2 189.5t-2 164.5q0 19 20 19h131q20 0 20 -19q0 -3 -1.5 -119t-1.5 -154
q0 -7 3 -7q2 0 6 9l110 270q8 20 25 20h144q20 0 9 -21q-93 -177 -170 -340q21 -46 91.5 -194t83.5 -175zM331 -46q27 0 18 -28l-33 -108q-12 -42 -51 -42h-36q-32 0 -26 48l11 92q4 38 39 38h78z" />
    <glyph glyph-name="uni0136" unicode="&#x137;" horiz-adv-x="531" 
d="M520 20q8 -20 -20 -20h-141q-20 0 -27 20q-10 29 -35.5 96.5t-47 123.5t-22.5 58q-4 10 -6 10q-3 0 -3 -8q0 -28 1.5 -151.5t1.5 -128.5q0 -20 -20 -20h-131q-20 0 -20 20l2 166q2 165 2 191t-2 189.5t-2 164.5q0 19 20 19h131q20 0 20 -19q0 -3 -1.5 -119t-1.5 -154
q0 -7 3 -7q2 0 6 9l110 270q8 20 25 20h144q20 0 9 -21q-93 -177 -170 -340q21 -46 91.5 -194t83.5 -175zM331 -46q27 0 18 -28l-33 -108q-12 -42 -51 -42h-36q-32 0 -26 48l11 92q4 38 39 38h78z" />
    <glyph glyph-name="Lacute" unicode="&#x139;" horiz-adv-x="402" 
d="M315 945q27 0 9 -21q-5 -6 -22 -23t-43.5 -42.5t-41.5 -40.5q-18 -18 -40 -18h-90q-12 0 -15 7.5t3 13.5l77 104q14 20 34 20h129zM372 85v-66q0 -19 -21 -19h-282q-19 0 -19 19q0 3 1 80t1.5 164t0.5 114q0 26 -0.5 112.5t-1.5 162.5t-1 79q0 19 18 19h135q18 0 18 -19
q0 -5 -1 -163t-1 -195v-191q0 -19 16 -19h117q20 0 20 -16v-62z" />
    <glyph glyph-name="Lacute" unicode="&#x13a;" horiz-adv-x="402" 
d="M315 945q27 0 9 -21q-5 -6 -22 -23t-43.5 -42.5t-41.5 -40.5q-18 -18 -40 -18h-90q-12 0 -15 7.5t3 13.5l77 104q14 20 34 20h129zM372 85v-66q0 -19 -21 -19h-282q-19 0 -19 19q0 3 1 80t1.5 164t0.5 114q0 26 -0.5 112.5t-1.5 162.5t-1 79q0 19 18 19h135q18 0 18 -19
q0 -5 -1 -163t-1 -195v-191q0 -19 16 -19h117q20 0 20 -16v-62z" />
    <glyph glyph-name="uni013B" unicode="&#x13b;" horiz-adv-x="402" 
d="M372 85v-66q0 -19 -21 -19h-282q-19 0 -19 19q0 3 1 80t1.5 164t0.5 114q0 26 -0.5 112.5t-1.5 162.5t-1 79q0 19 18 19h135q18 0 18 -19q0 -5 -1 -163t-1 -195v-191q0 -19 16 -19h117q20 0 20 -16v-62zM261 -46q27 0 18 -28l-33 -108q-12 -42 -51 -42h-36q-32 0 -26 48
l11 92q4 38 39 38h78z" />
    <glyph glyph-name="uni013B" unicode="&#x13c;" horiz-adv-x="402" 
d="M372 85v-66q0 -19 -21 -19h-282q-19 0 -19 19q0 3 1 80t1.5 164t0.5 114q0 26 -0.5 112.5t-1.5 162.5t-1 79q0 19 18 19h135q18 0 18 -19q0 -5 -1 -163t-1 -195v-191q0 -19 16 -19h117q20 0 20 -16v-62zM261 -46q27 0 18 -28l-33 -108q-12 -42 -51 -42h-36q-32 0 -26 48
l11 92q4 38 39 38h78z" />
    <glyph glyph-name="Lcaron" unicode="&#x13d;" horiz-adv-x="402" 
d="M372 85v-66q0 -19 -21 -19h-282q-19 0 -19 19q0 3 1 80t1.5 164t0.5 114q0 26 -0.5 112.5t-1.5 162.5t-1 79q0 19 18 19h135q18 0 18 -19q0 -5 -1 -163t-1 -195v-191q0 -19 16 -19h117q20 0 20 -16v-62zM397 750q9 0 14 -6t3 -15q-27 -128 -45 -182q-6 -18 -30 -18h-59
q-22 0 -20 21q7 66 16 180q2 20 24 20h97z" />
    <glyph glyph-name="Lcaron" unicode="&#x13e;" horiz-adv-x="402" 
d="M372 85v-66q0 -19 -21 -19h-282q-19 0 -19 19q0 3 1 80t1.5 164t0.5 114q0 26 -0.5 112.5t-1.5 162.5t-1 79q0 19 18 19h135q18 0 18 -19q0 -5 -1 -163t-1 -195v-191q0 -19 16 -19h117q20 0 20 -16v-62zM397 750q9 0 14 -6t3 -15q-27 -128 -45 -182q-6 -18 -30 -18h-59
q-22 0 -20 21q7 66 16 180q2 20 24 20h97z" />
    <glyph glyph-name="Ldot" unicode="&#x13f;" horiz-adv-x="402" 
d="M372 85v-66q0 -19 -21 -19h-282q-19 0 -19 19q0 3 1 80t1.5 164t0.5 114q0 26 -0.5 112.5t-1.5 162.5t-1 79q0 19 18 19h135q18 0 18 -19q0 -5 -1 -163t-1 -195v-191q0 -19 16 -19h117q20 0 20 -16v-62zM332 347q-33 0 -56.5 24.5t-23.5 57.5t23.5 57.5t56.5 24.5
t56 -24.5t23 -57.5t-23 -57.5t-56 -24.5z" />
    <glyph glyph-name="Ldot" unicode="&#x140;" horiz-adv-x="402" 
d="M372 85v-66q0 -19 -21 -19h-282q-19 0 -19 19q0 3 1 80t1.5 164t0.5 114q0 26 -0.5 112.5t-1.5 162.5t-1 79q0 19 18 19h135q18 0 18 -19q0 -5 -1 -163t-1 -195v-191q0 -19 16 -19h117q20 0 20 -16v-62zM332 347q-33 0 -56.5 24.5t-23.5 57.5t23.5 57.5t56.5 24.5
t56 -24.5t23 -57.5t-23 -57.5t-56 -24.5z" />
    <glyph glyph-name="Lslash" unicode="&#x141;" horiz-adv-x="412" 
d="M362 163q20 0 20 -16v-62v-66q0 -19 -21 -19h-282q-19 0 -19 19l2 236l-27 -17q-13 -7 -21.5 -1.5t-8.5 19.5v60q0 18 18 29l40 25v7q0 26 -0.5 112.5t-1.5 162.5t-1 79q0 19 18 19h135q18 0 18 -19l-2 -258l111 69q13 7 21.5 1.5t8.5 -19.5v-60q0 -18 -18 -29l-123 -76
v-177q0 -19 16 -19h117z" />
    <glyph glyph-name="Lslash" unicode="&#x142;" horiz-adv-x="412" 
d="M362 163q20 0 20 -16v-62v-66q0 -19 -21 -19h-282q-19 0 -19 19l2 236l-27 -17q-13 -7 -21.5 -1.5t-8.5 19.5v60q0 18 18 29l40 25v7q0 26 -0.5 112.5t-1.5 162.5t-1 79q0 19 18 19h135q18 0 18 -19l-2 -258l111 69q13 7 21.5 1.5t8.5 -19.5v-60q0 -18 -18 -29l-123 -76
v-177q0 -19 16 -19h117z" />
    <glyph glyph-name="Nacute" unicode="&#x143;" horiz-adv-x="600" 
d="M480 945q27 0 9 -21q-5 -6 -22 -23t-43.5 -42.5t-41.5 -40.5q-18 -18 -40 -18h-90q-12 0 -15 7.5t3 13.5l77 104q14 20 34 20h129zM217 407q-2 -128 -2 -195q0 -30 0.5 -75.5t1 -80t0.5 -36.5q0 -20 -23 -20h-124q-20 0 -20 20q0 1 1.5 168t1.5 189t-1.5 187t-1.5 167
q0 19 16 19h133q18 0 26 -19q92 -215 154 -377h4q0 42 1 107t1 82q0 25 -0.5 70t-1 80.5t-0.5 37.5q0 19 21 19h124q22 0 22 -19q0 -1 -1.5 -166t-1.5 -188t1.5 -189.5t1.5 -167.5q0 -20 -19 -20h-124q-25 0 -32 20q-20 41 -73.5 176t-80.5 211h-4z" />
    <glyph glyph-name="Nacute" unicode="&#x144;" horiz-adv-x="600" 
d="M480 945q27 0 9 -21q-5 -6 -22 -23t-43.5 -42.5t-41.5 -40.5q-18 -18 -40 -18h-90q-12 0 -15 7.5t3 13.5l77 104q14 20 34 20h129zM217 407q-2 -128 -2 -195q0 -30 0.5 -75.5t1 -80t0.5 -36.5q0 -20 -23 -20h-124q-20 0 -20 20q0 1 1.5 168t1.5 189t-1.5 187t-1.5 167
q0 19 16 19h133q18 0 26 -19q92 -215 154 -377h4q0 42 1 107t1 82q0 25 -0.5 70t-1 80.5t-0.5 37.5q0 19 21 19h124q22 0 22 -19q0 -1 -1.5 -166t-1.5 -188t1.5 -189.5t1.5 -167.5q0 -20 -19 -20h-124q-25 0 -32 20q-20 41 -73.5 176t-80.5 211h-4z" />
    <glyph glyph-name="uni0145" unicode="&#x145;" horiz-adv-x="600" 
d="M217 407q-2 -128 -2 -195q0 -30 0.5 -75.5t1 -80t0.5 -36.5q0 -20 -23 -20h-124q-20 0 -20 20q0 1 1.5 168t1.5 189t-1.5 187t-1.5 167q0 19 16 19h133q18 0 26 -19q92 -215 154 -377h4q0 42 1 107t1 82q0 25 -0.5 70t-1 80.5t-0.5 37.5q0 19 21 19h124q22 0 22 -19
q0 -1 -1.5 -166t-1.5 -188t1.5 -189.5t1.5 -167.5q0 -20 -19 -20h-124q-25 0 -32 20q-20 41 -73.5 176t-80.5 211h-4zM349 -46q27 0 18 -28l-33 -108q-12 -42 -51 -42h-36q-32 0 -26 48l11 92q4 38 39 38h78z" />
    <glyph glyph-name="uni0145" unicode="&#x146;" horiz-adv-x="600" 
d="M217 407q-2 -128 -2 -195q0 -30 0.5 -75.5t1 -80t0.5 -36.5q0 -20 -23 -20h-124q-20 0 -20 20q0 1 1.5 168t1.5 189t-1.5 187t-1.5 167q0 19 16 19h133q18 0 26 -19q92 -215 154 -377h4q0 42 1 107t1 82q0 25 -0.5 70t-1 80.5t-0.5 37.5q0 19 21 19h124q22 0 22 -19
q0 -1 -1.5 -166t-1.5 -188t1.5 -189.5t1.5 -167.5q0 -20 -19 -20h-124q-25 0 -32 20q-20 41 -73.5 176t-80.5 211h-4zM349 -46q27 0 18 -28l-33 -108q-12 -42 -51 -42h-36q-32 0 -26 48l11 92q4 38 39 38h78z" />
    <glyph glyph-name="Ncaron" unicode="&#x147;" horiz-adv-x="600" 
d="M464 945q14 0 6 -12q-6 -10 -37.5 -51.5t-45.5 -57.5q-22 -27 -51 -27h-73q-28 0 -50 26q-24 28 -84 110q-4 7 -1.5 9.5t7.5 2.5h100q14 0 26 -15l40 -52l40 53q11 14 25 14h98zM217 407q-2 -128 -2 -195q0 -30 0.5 -75.5t1 -80t0.5 -36.5q0 -20 -23 -20h-124
q-20 0 -20 20q0 1 1.5 168t1.5 189t-1.5 187t-1.5 167q0 19 16 19h133q18 0 26 -19q92 -215 154 -377h4q0 42 1 107t1 82q0 25 -0.5 70t-1 80.5t-0.5 37.5q0 19 21 19h124q22 0 22 -19q0 -1 -1.5 -166t-1.5 -188t1.5 -189.5t1.5 -167.5q0 -20 -19 -20h-124q-25 0 -32 20
q-20 41 -73.5 176t-80.5 211h-4z" />
    <glyph glyph-name="Ncaron" unicode="&#x148;" horiz-adv-x="600" 
d="M464 945q14 0 6 -12q-6 -10 -37.5 -51.5t-45.5 -57.5q-22 -27 -51 -27h-73q-28 0 -50 26q-24 28 -84 110q-4 7 -1.5 9.5t7.5 2.5h100q14 0 26 -15l40 -52l40 53q11 14 25 14h98zM217 407q-2 -128 -2 -195q0 -30 0.5 -75.5t1 -80t0.5 -36.5q0 -20 -23 -20h-124
q-20 0 -20 20q0 1 1.5 168t1.5 189t-1.5 187t-1.5 167q0 19 16 19h133q18 0 26 -19q92 -215 154 -377h4q0 42 1 107t1 82q0 25 -0.5 70t-1 80.5t-0.5 37.5q0 19 21 19h124q22 0 22 -19q0 -1 -1.5 -166t-1.5 -188t1.5 -189.5t1.5 -167.5q0 -20 -19 -20h-124q-25 0 -32 20
q-20 41 -73.5 176t-80.5 211h-4z" />
    <glyph glyph-name="Eng" unicode="&#x14a;" horiz-adv-x="600" 
d="M383 356q2 152 2 186q0 29 -0.5 74t-1 79t-0.5 36q0 19 21 19h124q22 0 22 -19q0 -1 -1.5 -166t-1.5 -188q0 -17 1.5 -186.5t1.5 -200.5q0 -201 -156 -201q-44 0 -77 11q-23 8 -23 25v102q0 18 20 15q36 -6 42 -6q38 0 38 41q0 20 -13 51q-5 11 -62 145.5t-98 234.5h-4
q-2 -130 -2 -196q0 -30 0.5 -75.5t1 -80t0.5 -36.5q0 -20 -23 -20h-124q-20 0 -20 20q0 1 1.5 168t1.5 189t-1.5 187t-1.5 167q0 19 16 19h143q18 0 26 -19q55 -137 72 -186q66 -171 72 -189h4z" />
    <glyph glyph-name="Eng" unicode="&#x14b;" horiz-adv-x="600" 
d="M383 356q2 152 2 186q0 29 -0.5 74t-1 79t-0.5 36q0 19 21 19h124q22 0 22 -19q0 -1 -1.5 -166t-1.5 -188q0 -17 1.5 -186.5t1.5 -200.5q0 -201 -156 -201q-44 0 -77 11q-23 8 -23 25v102q0 18 20 15q36 -6 42 -6q38 0 38 41q0 20 -13 51q-5 11 -62 145.5t-98 234.5h-4
q-2 -130 -2 -196q0 -30 0.5 -75.5t1 -80t0.5 -36.5q0 -20 -23 -20h-124q-20 0 -20 20q0 1 1.5 168t1.5 189t-1.5 187t-1.5 167q0 19 16 19h143q18 0 26 -19q55 -137 72 -186q66 -171 72 -189h4z" />
    <glyph glyph-name="Omacron" unicode="&#x14c;" horiz-adv-x="622" 
d="M480 852q0 -28 -28 -28q-4 0 -23.5 0.5t-51 1t-65.5 0.5q-35 0 -68 -0.5t-54 -1t-25 -0.5q-23 0 -23 27v45q0 26 23 26q4 0 24.5 -0.5t54 -1t68.5 -0.5q34 0 65.5 0.5t51 1t23.5 0.5q28 0 28 -27v-43zM311 766q74 0 131 -33t90 -89.5t49 -124t16 -144.5q0 -76 -16 -143.5
t-49 -124t-90 -89.5t-131 -33t-131 33t-90 89.5t-49 124t-16 143.5q0 77 16 144.5t49 124t90 89.5t131 33zM311 140q52 0 80.5 66t28.5 169q0 102 -29.5 169t-79.5 67t-80 -67t-30 -169t29.5 -168.5t80.5 -66.5z" />
    <glyph glyph-name="Omacron" unicode="&#x14d;" horiz-adv-x="622" 
d="M480 852q0 -28 -28 -28q-4 0 -23.5 0.5t-51 1t-65.5 0.5q-35 0 -68 -0.5t-54 -1t-25 -0.5q-23 0 -23 27v45q0 26 23 26q4 0 24.5 -0.5t54 -1t68.5 -0.5q34 0 65.5 0.5t51 1t23.5 0.5q28 0 28 -27v-43zM311 766q74 0 131 -33t90 -89.5t49 -124t16 -144.5q0 -76 -16 -143.5
t-49 -124t-90 -89.5t-131 -33t-131 33t-90 89.5t-49 124t-16 143.5q0 77 16 144.5t49 124t90 89.5t131 33zM311 140q52 0 80.5 66t28.5 169q0 102 -29.5 169t-79.5 67t-80 -67t-30 -169t29.5 -168.5t80.5 -66.5z" />
    <glyph glyph-name="Obreve" unicode="&#x14e;" horiz-adv-x="622" 
d="M310 791q-72 0 -110.5 40t-47.5 104q-1 10 8 10h75q9 0 12 -10q17 -42 63 -42t64 42q3 10 12 10h75q9 0 8 -10q-9 -64 -48 -104t-111 -40zM311 766q74 0 131 -33t90 -89.5t49 -124t16 -144.5q0 -76 -16 -143.5t-49 -124t-90 -89.5t-131 -33t-131 33t-90 89.5t-49 124
t-16 143.5q0 77 16 144.5t49 124t90 89.5t131 33zM311 140q52 0 80.5 66t28.5 169q0 102 -29.5 169t-79.5 67t-80 -67t-30 -169t29.5 -168.5t80.5 -66.5z" />
    <glyph glyph-name="Obreve" unicode="&#x14f;" horiz-adv-x="622" 
d="M310 791q-72 0 -110.5 40t-47.5 104q-1 10 8 10h75q9 0 12 -10q17 -42 63 -42t64 42q3 10 12 10h75q9 0 8 -10q-9 -64 -48 -104t-111 -40zM311 766q74 0 131 -33t90 -89.5t49 -124t16 -144.5q0 -76 -16 -143.5t-49 -124t-90 -89.5t-131 -33t-131 33t-90 89.5t-49 124
t-16 143.5q0 77 16 144.5t49 124t90 89.5t131 33zM311 140q52 0 80.5 66t28.5 169q0 102 -29.5 169t-79.5 67t-80 -67t-30 -169t29.5 -168.5t80.5 -66.5z" />
    <glyph glyph-name="Ohungarumlaut" unicode="&#x150;" horiz-adv-x="622" 
d="M359 945q9 0 12 -6.5t-3 -14.5l-76 -106q-13 -18 -39 -18h-61q-22 0 -12 21l48 104q9 20 32 20h99zM534 945q12 0 15.5 -7.5t-4.5 -17.5l-85 -105q-12 -15 -37 -15h-65q-12 0 -14.5 7.5t2.5 13.5l62 104q12 20 32 20h94zM311 766q74 0 131 -33t90 -89.5t49 -124
t16 -144.5q0 -76 -16 -143.5t-49 -124t-90 -89.5t-131 -33t-131 33t-90 89.5t-49 124t-16 143.5q0 77 16 144.5t49 124t90 89.5t131 33zM311 140q52 0 80.5 66t28.5 169q0 102 -29.5 169t-79.5 67t-80 -67t-30 -169t29.5 -168.5t80.5 -66.5z" />
    <glyph glyph-name="Ohungarumlaut" unicode="&#x151;" horiz-adv-x="622" 
d="M359 945q9 0 12 -6.5t-3 -14.5l-76 -106q-13 -18 -39 -18h-61q-22 0 -12 21l48 104q9 20 32 20h99zM534 945q12 0 15.5 -7.5t-4.5 -17.5l-85 -105q-12 -15 -37 -15h-65q-12 0 -14.5 7.5t2.5 13.5l62 104q12 20 32 20h94zM311 766q74 0 131 -33t90 -89.5t49 -124
t16 -144.5q0 -76 -16 -143.5t-49 -124t-90 -89.5t-131 -33t-131 33t-90 89.5t-49 124t-16 143.5q0 77 16 144.5t49 124t90 89.5t131 33zM311 140q52 0 80.5 66t28.5 169q0 102 -29.5 169t-79.5 67t-80 -67t-30 -169t29.5 -168.5t80.5 -66.5z" />
    <glyph glyph-name="OE" unicode="&#x152;" horiz-adv-x="774" 
d="M583 595q-5 0 -5 -6v-126q0 -9 5 -9h124q17 0 17 -16v-124q0 -15 -17 -15h-124q-5 0 -5 -8v-130q0 -5 5 -5h130q26 0 26 -18v-120q0 -18 -25 -18h-278q-19 0 -27 17q-43 -18 -104 -18q-83 0 -148.5 53t-98.5 135t-33 176q0 173 76 282.5t204 109.5q57 0 106 -18
q7 13 25 13h278q25 0 25 -17v-120q0 -18 -26 -18h-130zM201 363q0 -197 149 -197q40 0 59 16l3 194q0 33 -1 98.5t-2 98.5q-20 17 -59 17q-149 0 -149 -227z" />
    <glyph glyph-name="OE" unicode="&#x153;" horiz-adv-x="774" 
d="M583 595q-5 0 -5 -6v-126q0 -9 5 -9h124q17 0 17 -16v-124q0 -15 -17 -15h-124q-5 0 -5 -8v-130q0 -5 5 -5h130q26 0 26 -18v-120q0 -18 -25 -18h-278q-19 0 -27 17q-43 -18 -104 -18q-83 0 -148.5 53t-98.5 135t-33 176q0 173 76 282.5t204 109.5q57 0 106 -18
q7 13 25 13h278q25 0 25 -17v-120q0 -18 -26 -18h-130zM201 363q0 -197 149 -197q40 0 59 16l3 194q0 33 -1 98.5t-2 98.5q-20 17 -59 17q-149 0 -149 -227z" />
    <glyph glyph-name="Racute" unicode="&#x154;" horiz-adv-x="509" 
d="M185 800q-12 0 -15 7.5t3 13.5l77 104q14 20 34 20h129q27 0 9 -21q-5 -6 -22 -23t-43.5 -42.5t-41.5 -40.5q-18 -18 -40 -18h-90zM502 19q4 -9 -1 -14t-15 -5h-135q-20 0 -28 19q-1 2 -10 26t-20.5 53.5t-19.5 48.5l-56 151q-1 -72 1 -278q0 -20 -19 -20h-131
q-18 0 -18 20q0 63 1 190t1 167q0 29 -0.5 115t-1 161t-0.5 77q0 10 6 15t13 5h160q27 0 53.5 -3.5t64 -17.5t65.5 -37t48 -68t20 -105q0 -59 -29.5 -107t-85.5 -76l76 -182q38 -88 61 -135zM233 423q39 0 62.5 29t23.5 70t-24.5 65.5t-64.5 24.5q-12 0 -12 -12v-162
q0 -15 15 -15z" />
    <glyph glyph-name="Racute" unicode="&#x155;" horiz-adv-x="509" 
d="M185 800q-12 0 -15 7.5t3 13.5l77 104q14 20 34 20h129q27 0 9 -21q-5 -6 -22 -23t-43.5 -42.5t-41.5 -40.5q-18 -18 -40 -18h-90zM502 19q4 -9 -1 -14t-15 -5h-135q-20 0 -28 19q-1 2 -10 26t-20.5 53.5t-19.5 48.5l-56 151q-1 -72 1 -278q0 -20 -19 -20h-131
q-18 0 -18 20q0 63 1 190t1 167q0 29 -0.5 115t-1 161t-0.5 77q0 10 6 15t13 5h160q27 0 53.5 -3.5t64 -17.5t65.5 -37t48 -68t20 -105q0 -59 -29.5 -107t-85.5 -76l76 -182q38 -88 61 -135zM233 423q39 0 62.5 29t23.5 70t-24.5 65.5t-64.5 24.5q-12 0 -12 -12v-162
q0 -15 15 -15z" />
    <glyph glyph-name="uni0156" unicode="&#x156;" horiz-adv-x="509" 
d="M502 19q4 -9 -1 -14t-15 -5h-135q-20 0 -28 19q-1 2 -10 26t-20.5 53.5t-19.5 48.5l-56 151q-1 -72 1 -278q0 -20 -19 -20h-131q-18 0 -18 20q0 63 1 190t1 167q0 29 -0.5 115t-1 161t-0.5 77q0 10 6 15t13 5h160q27 0 53.5 -3.5t64 -17.5t65.5 -37t48 -68t20 -105
q0 -59 -29.5 -107t-85.5 -76l76 -182q38 -88 61 -135zM233 423q39 0 62.5 29t23.5 70t-24.5 65.5t-64.5 24.5q-12 0 -12 -12v-162q0 -15 15 -15zM317 -46q27 0 18 -28l-33 -108q-12 -42 -51 -42h-36q-32 0 -26 48l11 92q4 38 39 38h78z" />
    <glyph glyph-name="uni0156" unicode="&#x157;" horiz-adv-x="509" 
d="M502 19q4 -9 -1 -14t-15 -5h-135q-20 0 -28 19q-1 2 -10 26t-20.5 53.5t-19.5 48.5l-56 151q-1 -72 1 -278q0 -20 -19 -20h-131q-18 0 -18 20q0 63 1 190t1 167q0 29 -0.5 115t-1 161t-0.5 77q0 10 6 15t13 5h160q27 0 53.5 -3.5t64 -17.5t65.5 -37t48 -68t20 -105
q0 -59 -29.5 -107t-85.5 -76l76 -182q38 -88 61 -135zM233 423q39 0 62.5 29t23.5 70t-24.5 65.5t-64.5 24.5q-12 0 -12 -12v-162q0 -15 15 -15zM317 -46q27 0 18 -28l-33 -108q-12 -42 -51 -42h-36q-32 0 -26 48l11 92q4 38 39 38h78z" />
    <glyph glyph-name="Rcaron" unicode="&#x158;" horiz-adv-x="509" 
d="M146 823q-24 28 -84 110q-4 7 -1.5 9.5t7.5 2.5h100q14 0 26 -15l40 -52l40 53q10 14 25 14h98q14 0 6 -12q-6 -10 -37.5 -51.5t-45.5 -57.5q-22 -27 -51 -27h-73q-28 0 -50 26zM502 19q4 -9 -1 -14t-15 -5h-135q-20 0 -28 19q-1 2 -10 26t-20.5 53.5t-19.5 48.5l-56 151
q-1 -72 1 -278q0 -20 -19 -20h-131q-18 0 -18 20q0 63 1 190t1 167q0 29 -0.5 115t-1 161t-0.5 77q0 10 6 15t13 5h160q27 0 53.5 -3.5t64 -17.5t65.5 -37t48 -68t20 -105q0 -59 -29.5 -107t-85.5 -76l76 -182q38 -88 61 -135zM233 423q39 0 62.5 29t23.5 70t-24.5 65.5
t-64.5 24.5q-12 0 -12 -12v-162q0 -15 15 -15z" />
    <glyph glyph-name="Rcaron" unicode="&#x159;" horiz-adv-x="509" 
d="M146 823q-24 28 -84 110q-4 7 -1.5 9.5t7.5 2.5h100q14 0 26 -15l40 -52l40 53q10 14 25 14h98q14 0 6 -12q-6 -10 -37.5 -51.5t-45.5 -57.5q-22 -27 -51 -27h-73q-28 0 -50 26zM502 19q4 -9 -1 -14t-15 -5h-135q-20 0 -28 19q-1 2 -10 26t-20.5 53.5t-19.5 48.5l-56 151
q-1 -72 1 -278q0 -20 -19 -20h-131q-18 0 -18 20q0 63 1 190t1 167q0 29 -0.5 115t-1 161t-0.5 77q0 10 6 15t13 5h160q27 0 53.5 -3.5t64 -17.5t65.5 -37t48 -68t20 -105q0 -59 -29.5 -107t-85.5 -76l76 -182q38 -88 61 -135zM233 423q39 0 62.5 29t23.5 70t-24.5 65.5
t-64.5 24.5q-12 0 -12 -12v-162q0 -15 15 -15z" />
    <glyph glyph-name="Sacute" unicode="&#x15a;" horiz-adv-x="441" 
d="M400 945q27 0 9 -21q-5 -6 -22 -23t-43.5 -42.5t-41.5 -40.5q-18 -18 -40 -18h-90q-12 0 -15 7.5t3 13.5l77 104q14 20 34 20h129zM309 430q107 -88 107 -220q0 -23 -4.5 -48.5t-18.5 -58t-35.5 -58t-61 -43t-89.5 -17.5q-78 0 -162 50q-15 9 -15 24v152q0 16 22 2
q89 -57 138 -57q36 0 50 20t14 43q0 30 -18 55.5t-71 67.5q-33 27 -53 46t-41 45.5t-30.5 57t-9.5 67.5q0 92 49.5 150t141.5 58q72 0 131 -26q20 -9 20 -26v-138q0 -17 -17 -7q-55 33 -99 33q-32 0 -46 -14.5t-14 -36.5q0 -16 12 -33t23.5 -27.5t39 -31.5t37.5 -29z" />
    <glyph glyph-name="Sacute" unicode="&#x15b;" horiz-adv-x="441" 
d="M400 945q27 0 9 -21q-5 -6 -22 -23t-43.5 -42.5t-41.5 -40.5q-18 -18 -40 -18h-90q-12 0 -15 7.5t3 13.5l77 104q14 20 34 20h129zM309 430q107 -88 107 -220q0 -23 -4.5 -48.5t-18.5 -58t-35.5 -58t-61 -43t-89.5 -17.5q-78 0 -162 50q-15 9 -15 24v152q0 16 22 2
q89 -57 138 -57q36 0 50 20t14 43q0 30 -18 55.5t-71 67.5q-33 27 -53 46t-41 45.5t-30.5 57t-9.5 67.5q0 92 49.5 150t141.5 58q72 0 131 -26q20 -9 20 -26v-138q0 -17 -17 -7q-55 33 -99 33q-32 0 -46 -14.5t-14 -36.5q0 -16 12 -33t23.5 -27.5t39 -31.5t37.5 -29z" />
    <glyph glyph-name="Scircumflex" unicode="&#x15c;" horiz-adv-x="441" 
d="M56 800q-14 0 -6 12q6 10 37.5 51.5t45.5 57.5q22 27 51 27h73q28 0 50 -26q24 -28 84 -110q4 -7 1.5 -9.5t-7.5 -2.5h-100q-14 0 -26 15l-40 52l-40 -53q-11 -14 -25 -14h-98zM309 430q107 -88 107 -220q0 -23 -4.5 -48.5t-18.5 -58t-35.5 -58t-61 -43t-89.5 -17.5
q-78 0 -162 50q-15 9 -15 24v152q0 16 22 2q89 -57 138 -57q36 0 50 20t14 43q0 30 -18 55.5t-71 67.5q-33 27 -53 46t-41 45.5t-30.5 57t-9.5 67.5q0 92 49.5 150t141.5 58q72 0 131 -26q20 -9 20 -26v-138q0 -17 -17 -7q-55 33 -99 33q-32 0 -46 -14.5t-14 -36.5
q0 -16 12 -33t23.5 -27.5t39 -31.5t37.5 -29z" />
    <glyph glyph-name="Scircumflex" unicode="&#x15d;" horiz-adv-x="441" 
d="M56 800q-14 0 -6 12q6 10 37.5 51.5t45.5 57.5q22 27 51 27h73q28 0 50 -26q24 -28 84 -110q4 -7 1.5 -9.5t-7.5 -2.5h-100q-14 0 -26 15l-40 52l-40 -53q-11 -14 -25 -14h-98zM309 430q107 -88 107 -220q0 -23 -4.5 -48.5t-18.5 -58t-35.5 -58t-61 -43t-89.5 -17.5
q-78 0 -162 50q-15 9 -15 24v152q0 16 22 2q89 -57 138 -57q36 0 50 20t14 43q0 30 -18 55.5t-71 67.5q-33 27 -53 46t-41 45.5t-30.5 57t-9.5 67.5q0 92 49.5 150t141.5 58q72 0 131 -26q20 -9 20 -26v-138q0 -17 -17 -7q-55 33 -99 33q-32 0 -46 -14.5t-14 -36.5
q0 -16 12 -33t23.5 -27.5t39 -31.5t37.5 -29z" />
    <glyph glyph-name="Scedilla" unicode="&#x15e;" horiz-adv-x="441" 
d="M259 -10l-8 -29q-4 -12 2 -13q22 -6 37 -26t15 -44q0 -40 -33.5 -65t-89.5 -25q-54 0 -74 8q-10 2 -10 12v52q0 9 8 9l18 -3q17 -3 34 -3q29 0 29 24t-41 30q-11 2 -7 17l14 56q-48 10 -108 45q-15 9 -15 24v152q0 16 22 2q89 -57 138 -57q36 0 50 20t14 43
q0 30 -18 55.5t-71 67.5q-33 27 -53 46t-41 45.5t-30.5 57t-9.5 67.5q0 92 49.5 150t141.5 58q72 0 131 -26q20 -9 20 -26v-138q0 -17 -17 -7q-55 33 -99 33q-32 0 -46 -14.5t-14 -36.5q0 -16 12 -33t23.5 -27.5t39 -31.5t37.5 -29q107 -88 107 -220q0 -26 -6.5 -55.5
t-22 -64.5t-49 -62.5t-79.5 -37.5z" />
    <glyph glyph-name="Scedilla" unicode="&#x15f;" horiz-adv-x="441" 
d="M259 -10l-8 -29q-4 -12 2 -13q22 -6 37 -26t15 -44q0 -40 -33.5 -65t-89.5 -25q-54 0 -74 8q-10 2 -10 12v52q0 9 8 9l18 -3q17 -3 34 -3q29 0 29 24t-41 30q-11 2 -7 17l14 56q-48 10 -108 45q-15 9 -15 24v152q0 16 22 2q89 -57 138 -57q36 0 50 20t14 43
q0 30 -18 55.5t-71 67.5q-33 27 -53 46t-41 45.5t-30.5 57t-9.5 67.5q0 92 49.5 150t141.5 58q72 0 131 -26q20 -9 20 -26v-138q0 -17 -17 -7q-55 33 -99 33q-32 0 -46 -14.5t-14 -36.5q0 -16 12 -33t23.5 -27.5t39 -31.5t37.5 -29q107 -88 107 -220q0 -26 -6.5 -55.5
t-22 -64.5t-49 -62.5t-79.5 -37.5z" />
    <glyph glyph-name="Scaron" unicode="&#x160;" horiz-adv-x="441" 
d="M384 945q14 0 6 -12q-6 -10 -37.5 -51.5t-45.5 -57.5q-22 -27 -51 -27h-73q-28 0 -50 26q-24 28 -84 110q-4 7 -1.5 9.5t7.5 2.5h100q14 0 26 -15l40 -52l40 53q11 14 25 14h98zM309 430q107 -88 107 -220q0 -23 -4.5 -48.5t-18.5 -58t-35.5 -58t-61 -43t-89.5 -17.5
q-78 0 -162 50q-15 9 -15 24v152q0 16 22 2q89 -57 138 -57q36 0 50 20t14 43q0 30 -18 55.5t-71 67.5q-33 27 -53 46t-41 45.5t-30.5 57t-9.5 67.5q0 92 49.5 150t141.5 58q72 0 131 -26q20 -9 20 -26v-138q0 -17 -17 -7q-55 33 -99 33q-32 0 -46 -14.5t-14 -36.5
q0 -16 12 -33t23.5 -27.5t39 -31.5t37.5 -29z" />
    <glyph glyph-name="Scaron" unicode="&#x161;" horiz-adv-x="441" 
d="M384 945q14 0 6 -12q-6 -10 -37.5 -51.5t-45.5 -57.5q-22 -27 -51 -27h-73q-28 0 -50 26q-24 28 -84 110q-4 7 -1.5 9.5t7.5 2.5h100q14 0 26 -15l40 -52l40 53q11 14 25 14h98zM309 430q107 -88 107 -220q0 -23 -4.5 -48.5t-18.5 -58t-35.5 -58t-61 -43t-89.5 -17.5
q-78 0 -162 50q-15 9 -15 24v152q0 16 22 2q89 -57 138 -57q36 0 50 20t14 43q0 30 -18 55.5t-71 67.5q-33 27 -53 46t-41 45.5t-30.5 57t-9.5 67.5q0 92 49.5 150t141.5 58q72 0 131 -26q20 -9 20 -26v-138q0 -17 -17 -7q-55 33 -99 33q-32 0 -46 -14.5t-14 -36.5
q0 -16 12 -33t23.5 -27.5t39 -31.5t37.5 -29z" />
    <glyph glyph-name="uni0162" unicode="&#x162;" horiz-adv-x="432" 
d="M391 750q21 0 21 -19v-122q0 -19 -21 -19h-82q-7 0 -7 -7q0 -1 -1 -83.5t-1 -123.5q0 -82 1 -218t1 -139q0 -19 -18 -19h-14l-11 -39q-4 -12 2 -13q22 -6 37 -26t15 -44q0 -40 -33.5 -65t-89.5 -25q-54 0 -74 8q-10 2 -10 12v52q0 9 8 9l18 -3q17 -3 34 -3q29 0 29 24
t-41 30q-11 2 -7 17l17 66h-14q-19 0 -19 19q0 3 1 139t1 218q0 41 -1 123.5t-1 83.5q0 7 -8 7h-85q-18 0 -18 19v122q0 19 18 19h353z" />
    <glyph glyph-name="uni0162" unicode="&#x163;" horiz-adv-x="432" 
d="M391 750q21 0 21 -19v-122q0 -19 -21 -19h-82q-7 0 -7 -7q0 -1 -1 -83.5t-1 -123.5q0 -82 1 -218t1 -139q0 -19 -18 -19h-14l-11 -39q-4 -12 2 -13q22 -6 37 -26t15 -44q0 -40 -33.5 -65t-89.5 -25q-54 0 -74 8q-10 2 -10 12v52q0 9 8 9l18 -3q17 -3 34 -3q29 0 29 24
t-41 30q-11 2 -7 17l17 66h-14q-19 0 -19 19q0 3 1 139t1 218q0 41 -1 123.5t-1 83.5q0 7 -8 7h-85q-18 0 -18 19v122q0 19 18 19h353z" />
    <glyph glyph-name="Tcaron" unicode="&#x164;" horiz-adv-x="432" 
d="M380 945q14 0 6 -12q-6 -10 -37.5 -51.5t-45.5 -57.5q-22 -27 -51 -27h-73q-28 0 -50 26q-24 28 -84 110q-4 7 -1.5 9.5t7.5 2.5h100q14 0 26 -15l40 -52l40 53q11 14 25 14h98zM391 750q21 0 21 -19v-122q0 -19 -21 -19h-82q-7 0 -7 -7q0 -1 -1 -83.5t-1 -123.5
q0 -82 1 -218t1 -139q0 -19 -18 -19h-134q-19 0 -19 19q0 3 1 139t1 218q0 41 -1 123.5t-1 83.5q0 7 -8 7h-85q-18 0 -18 19v122q0 19 18 19h353z" />
    <glyph glyph-name="Tcaron" unicode="&#x165;" horiz-adv-x="432" 
d="M380 945q14 0 6 -12q-6 -10 -37.5 -51.5t-45.5 -57.5q-22 -27 -51 -27h-73q-28 0 -50 26q-24 28 -84 110q-4 7 -1.5 9.5t7.5 2.5h100q14 0 26 -15l40 -52l40 53q11 14 25 14h98zM391 750q21 0 21 -19v-122q0 -19 -21 -19h-82q-7 0 -7 -7q0 -1 -1 -83.5t-1 -123.5
q0 -82 1 -218t1 -139q0 -19 -18 -19h-134q-19 0 -19 19q0 3 1 139t1 218q0 41 -1 123.5t-1 83.5q0 7 -8 7h-85q-18 0 -18 19v122q0 19 18 19h353z" />
    <glyph glyph-name="Tbar" unicode="&#x166;" horiz-adv-x="432" 
d="M391 750q21 0 21 -19v-122q0 -19 -21 -19h-82q-7 0 -7 -7l-2 -144q18 0 45 0.5t36 0.5q25 0 25 -25v-54q0 -25 -25 -25q-48 0 -81 1q0 -79 1 -197.5t1 -120.5q0 -19 -18 -19h-134q-19 0 -19 19q0 2 1 120.5t1 197.5q-33 -1 -81 -1q-25 0 -25 25v54q0 25 25 25
q10 0 37 -0.5t44 -0.5l-2 144q0 7 -8 7h-85q-18 0 -18 19v122q0 19 18 19h353z" />
    <glyph glyph-name="Tbar" unicode="&#x167;" horiz-adv-x="432" 
d="M391 750q21 0 21 -19v-122q0 -19 -21 -19h-82q-7 0 -7 -7l-2 -144q18 0 45 0.5t36 0.5q25 0 25 -25v-54q0 -25 -25 -25q-48 0 -81 1q0 -79 1 -197.5t1 -120.5q0 -19 -18 -19h-134q-19 0 -19 19q0 2 1 120.5t1 197.5q-33 -1 -81 -1q-25 0 -25 25v54q0 25 25 25
q10 0 37 -0.5t44 -0.5l-2 144q0 7 -8 7h-85q-18 0 -18 19v122q0 19 18 19h353z" />
    <glyph glyph-name="Utilde" unicode="&#x168;" horiz-adv-x="573" 
d="M450 936q17 0 16 -16q-1 -55 -30.5 -91t-76.5 -36q-8 0 -16.5 1t-15 2.5t-14.5 4.5t-12.5 4.5t-12.5 5.5l-11 5.5t-11 6.5t-10 6q-36 21 -53 21q-21 0 -30 -28q-5 -16 -17 -16h-42q-17 0 -16 16q1 54 31 89t76 35q43 0 100 -34q36 -21 55 -21q23 0 31 29q4 16 17 16h42z
M523 731q0 -12 -0.5 -88t-0.5 -116t0.5 -114t0.5 -103q0 -53 -3 -91t-17 -85.5t-38 -77t-69.5 -50.5t-109.5 -21q-46 0 -82.5 10.5t-60.5 27t-42 43t-27.5 52.5t-15 62t-7 64t-1.5 66q0 29 0.5 103t0.5 114t-0.5 116t-0.5 88q0 19 18 19h133q20 0 20 -19q0 -12 -0.5 -88
t-0.5 -116v-265q0 -23 1 -36.5t4.5 -30.5t10 -26.5t19.5 -16t31 -6.5q19 0 31.5 6.5t19.5 16t10.5 26.5t4.5 30.5t1 36.5v265q0 40 -0.5 116t-0.5 88q0 19 19 19h133q19 0 19 -19z" />
    <glyph glyph-name="Utilde" unicode="&#x169;" horiz-adv-x="573" 
d="M450 936q17 0 16 -16q-1 -55 -30.5 -91t-76.5 -36q-8 0 -16.5 1t-15 2.5t-14.5 4.5t-12.5 4.5t-12.5 5.5l-11 5.5t-11 6.5t-10 6q-36 21 -53 21q-21 0 -30 -28q-5 -16 -17 -16h-42q-17 0 -16 16q1 54 31 89t76 35q43 0 100 -34q36 -21 55 -21q23 0 31 29q4 16 17 16h42z
M523 731q0 -12 -0.5 -88t-0.5 -116t0.5 -114t0.5 -103q0 -53 -3 -91t-17 -85.5t-38 -77t-69.5 -50.5t-109.5 -21q-46 0 -82.5 10.5t-60.5 27t-42 43t-27.5 52.5t-15 62t-7 64t-1.5 66q0 29 0.5 103t0.5 114t-0.5 116t-0.5 88q0 19 18 19h133q20 0 20 -19q0 -12 -0.5 -88
t-0.5 -116v-265q0 -23 1 -36.5t4.5 -30.5t10 -26.5t19.5 -16t31 -6.5q19 0 31.5 6.5t19.5 16t10.5 26.5t4.5 30.5t1 36.5v265q0 40 -0.5 116t-0.5 88q0 19 19 19h133q19 0 19 -19z" />
    <glyph glyph-name="Umacron" unicode="&#x16a;" horiz-adv-x="573" 
d="M451 852q0 -28 -28 -28q-4 0 -23.5 0.5t-51 1t-65.5 0.5q-35 0 -68 -0.5t-54 -1t-25 -0.5q-23 0 -23 27v45q0 26 23 26q4 0 24.5 -0.5t54 -1t68.5 -0.5q34 0 65.5 0.5t51 1t23.5 0.5q28 0 28 -27v-43zM523 731q0 -12 -0.5 -88t-0.5 -116t0.5 -114t0.5 -103q0 -53 -3 -91
t-17 -85.5t-38 -77t-69.5 -50.5t-109.5 -21q-46 0 -82.5 10.5t-60.5 27t-42 43t-27.5 52.5t-15 62t-7 64t-1.5 66q0 29 0.5 103t0.5 114t-0.5 116t-0.5 88q0 19 18 19h133q20 0 20 -19q0 -12 -0.5 -88t-0.5 -116v-265q0 -23 1 -36.5t4.5 -30.5t10 -26.5t19.5 -16t31 -6.5
q19 0 31.5 6.5t19.5 16t10.5 26.5t4.5 30.5t1 36.5v265q0 40 -0.5 116t-0.5 88q0 19 19 19h133q19 0 19 -19z" />
    <glyph glyph-name="Umacron" unicode="&#x16b;" horiz-adv-x="573" 
d="M451 852q0 -28 -28 -28q-4 0 -23.5 0.5t-51 1t-65.5 0.5q-35 0 -68 -0.5t-54 -1t-25 -0.5q-23 0 -23 27v45q0 26 23 26q4 0 24.5 -0.5t54 -1t68.5 -0.5q34 0 65.5 0.5t51 1t23.5 0.5q28 0 28 -27v-43zM523 731q0 -12 -0.5 -88t-0.5 -116t0.5 -114t0.5 -103q0 -53 -3 -91
t-17 -85.5t-38 -77t-69.5 -50.5t-109.5 -21q-46 0 -82.5 10.5t-60.5 27t-42 43t-27.5 52.5t-15 62t-7 64t-1.5 66q0 29 0.5 103t0.5 114t-0.5 116t-0.5 88q0 19 18 19h133q20 0 20 -19q0 -12 -0.5 -88t-0.5 -116v-265q0 -23 1 -36.5t4.5 -30.5t10 -26.5t19.5 -16t31 -6.5
q19 0 31.5 6.5t19.5 16t10.5 26.5t4.5 30.5t1 36.5v265q0 40 -0.5 116t-0.5 88q0 19 19 19h133q19 0 19 -19z" />
    <glyph glyph-name="Ubreve" unicode="&#x16c;" horiz-adv-x="573" 
d="M281 791q-72 0 -110.5 40t-47.5 104q-1 10 8 10h75q9 0 12 -10q17 -42 63 -42q47 0 64 42q3 10 12 10h75q9 0 8 -10q-9 -64 -48 -104t-111 -40zM523 731q0 -12 -0.5 -88t-0.5 -116t0.5 -114t0.5 -103q0 -53 -3 -91t-17 -85.5t-38 -77t-69.5 -50.5t-109.5 -21
q-46 0 -82.5 10.5t-60.5 27t-42 43t-27.5 52.5t-15 62t-7 64t-1.5 66q0 29 0.5 103t0.5 114t-0.5 116t-0.5 88q0 19 18 19h133q20 0 20 -19q0 -12 -0.5 -88t-0.5 -116v-265q0 -23 1 -36.5t4.5 -30.5t10 -26.5t19.5 -16t31 -6.5q19 0 31.5 6.5t19.5 16t10.5 26.5t4.5 30.5
t1 36.5v265q0 40 -0.5 116t-0.5 88q0 19 19 19h133q19 0 19 -19z" />
    <glyph glyph-name="Ubreve" unicode="&#x16d;" horiz-adv-x="573" 
d="M281 791q-72 0 -110.5 40t-47.5 104q-1 10 8 10h75q9 0 12 -10q17 -42 63 -42q47 0 64 42q3 10 12 10h75q9 0 8 -10q-9 -64 -48 -104t-111 -40zM523 731q0 -12 -0.5 -88t-0.5 -116t0.5 -114t0.5 -103q0 -53 -3 -91t-17 -85.5t-38 -77t-69.5 -50.5t-109.5 -21
q-46 0 -82.5 10.5t-60.5 27t-42 43t-27.5 52.5t-15 62t-7 64t-1.5 66q0 29 0.5 103t0.5 114t-0.5 116t-0.5 88q0 19 18 19h133q20 0 20 -19q0 -12 -0.5 -88t-0.5 -116v-265q0 -23 1 -36.5t4.5 -30.5t10 -26.5t19.5 -16t31 -6.5q19 0 31.5 6.5t19.5 16t10.5 26.5t4.5 30.5
t1 36.5v265q0 40 -0.5 116t-0.5 88q0 19 19 19h133q19 0 19 -19z" />
    <glyph glyph-name="Uring" unicode="&#x16e;" horiz-adv-x="573" 
d="M170 877q0 42 32.5 71t79.5 29t79 -29t32 -71t-32 -70t-79 -28t-79.5 28t-32.5 70zM242 877q0 -15 11.5 -25t28.5 -10t28 10t11 25t-11.5 25.5t-27.5 10.5q-17 0 -28.5 -10.5t-11.5 -25.5zM523 731q0 -12 -0.5 -88t-0.5 -116t0.5 -114t0.5 -103q0 -53 -3 -91t-17 -85.5
t-38 -77t-69.5 -50.5t-109.5 -21q-46 0 -82.5 10.5t-60.5 27t-42 43t-27.5 52.5t-15 62t-7 64t-1.5 66q0 29 0.5 103t0.5 114t-0.5 116t-0.5 88q0 19 18 19h133q20 0 20 -19q0 -12 -0.5 -88t-0.5 -116v-265q0 -23 1 -36.5t4.5 -30.5t10 -26.5t19.5 -16t31 -6.5
q19 0 31.5 6.5t19.5 16t10.5 26.5t4.5 30.5t1 36.5v265q0 40 -0.5 116t-0.5 88q0 19 19 19h133q19 0 19 -19z" />
    <glyph glyph-name="Uring" unicode="&#x16f;" horiz-adv-x="573" 
d="M170 877q0 42 32.5 71t79.5 29t79 -29t32 -71t-32 -70t-79 -28t-79.5 28t-32.5 70zM242 877q0 -15 11.5 -25t28.5 -10t28 10t11 25t-11.5 25.5t-27.5 10.5q-17 0 -28.5 -10.5t-11.5 -25.5zM523 731q0 -12 -0.5 -88t-0.5 -116t0.5 -114t0.5 -103q0 -53 -3 -91t-17 -85.5
t-38 -77t-69.5 -50.5t-109.5 -21q-46 0 -82.5 10.5t-60.5 27t-42 43t-27.5 52.5t-15 62t-7 64t-1.5 66q0 29 0.5 103t0.5 114t-0.5 116t-0.5 88q0 19 18 19h133q20 0 20 -19q0 -12 -0.5 -88t-0.5 -116v-265q0 -23 1 -36.5t4.5 -30.5t10 -26.5t19.5 -16t31 -6.5
q19 0 31.5 6.5t19.5 16t10.5 26.5t4.5 30.5t1 36.5v265q0 40 -0.5 116t-0.5 88q0 19 19 19h133q19 0 19 -19z" />
    <glyph glyph-name="Uhungarumlaut" unicode="&#x170;" horiz-adv-x="573" 
d="M330 945q9 0 12 -6.5t-3 -14.5l-76 -106q-13 -18 -39 -18h-61q-23 0 -12 21l48 104q9 20 32 20h99zM505 945q12 0 15.5 -7.5t-4.5 -17.5l-85 -105q-12 -15 -37 -15h-65q-12 0 -14.5 7.5t2.5 13.5l62 104q12 20 32 20h94zM523 731q0 -12 -0.5 -88t-0.5 -116t0.5 -114
t0.5 -103q0 -53 -3 -91t-17 -85.5t-38 -77t-69.5 -50.5t-109.5 -21q-46 0 -82.5 10.5t-60.5 27t-42 43t-27.5 52.5t-15 62t-7 64t-1.5 66q0 29 0.5 103t0.5 114t-0.5 116t-0.5 88q0 19 18 19h133q20 0 20 -19q0 -12 -0.5 -88t-0.5 -116v-265q0 -23 1 -36.5t4.5 -30.5
t10 -26.5t19.5 -16t31 -6.5q19 0 31.5 6.5t19.5 16t10.5 26.5t4.5 30.5t1 36.5v265q0 40 -0.5 116t-0.5 88q0 19 19 19h133q19 0 19 -19z" />
    <glyph glyph-name="Uhungarumlaut" unicode="&#x171;" horiz-adv-x="573" 
d="M330 945q9 0 12 -6.5t-3 -14.5l-76 -106q-13 -18 -39 -18h-61q-23 0 -12 21l48 104q9 20 32 20h99zM505 945q12 0 15.5 -7.5t-4.5 -17.5l-85 -105q-12 -15 -37 -15h-65q-12 0 -14.5 7.5t2.5 13.5l62 104q12 20 32 20h94zM523 731q0 -12 -0.5 -88t-0.5 -116t0.5 -114
t0.5 -103q0 -53 -3 -91t-17 -85.5t-38 -77t-69.5 -50.5t-109.5 -21q-46 0 -82.5 10.5t-60.5 27t-42 43t-27.5 52.5t-15 62t-7 64t-1.5 66q0 29 0.5 103t0.5 114t-0.5 116t-0.5 88q0 19 18 19h133q20 0 20 -19q0 -12 -0.5 -88t-0.5 -116v-265q0 -23 1 -36.5t4.5 -30.5
t10 -26.5t19.5 -16t31 -6.5q19 0 31.5 6.5t19.5 16t10.5 26.5t4.5 30.5t1 36.5v265q0 40 -0.5 116t-0.5 88q0 19 19 19h133q19 0 19 -19z" />
    <glyph glyph-name="Uogonek" unicode="&#x172;" horiz-adv-x="573" 
d="M522 527q0 -40 0.5 -114t0.5 -103q0 -86 -12.5 -150.5t-51.5 -108.5q-19 -23 -63 -48q-29 -16 -54 -40q-40 -39 -40 -62q0 -26 34 -26q12 0 23 2t12 2q7 0 7 -9v-55q0 -7 -9 -12q-24 -15 -72 -15q-51 0 -83 21t-32 66q0 59 73 111q-55 5 -94.5 27t-60.5 51.5t-32.5 75
t-14.5 82t-3 88.5q0 29 0.5 103t0.5 114t-0.5 116t-0.5 88q0 19 18 19h133q20 0 20 -19q0 -12 -0.5 -88t-0.5 -116v-265q0 -23 1 -36.5t4.5 -30.5t10 -26.5t19.5 -16t31 -6.5q19 0 31.5 6.5t19.5 16t10.5 26.5t4.5 30.5t1 36.5v265q0 40 -0.5 116t-0.5 88q0 19 19 19h133
q19 0 19 -19q0 -12 -0.5 -88t-0.5 -116z" />
    <glyph glyph-name="Uogonek" unicode="&#x173;" horiz-adv-x="573" 
d="M522 527q0 -40 0.5 -114t0.5 -103q0 -86 -12.5 -150.5t-51.5 -108.5q-19 -23 -63 -48q-29 -16 -54 -40q-40 -39 -40 -62q0 -26 34 -26q12 0 23 2t12 2q7 0 7 -9v-55q0 -7 -9 -12q-24 -15 -72 -15q-51 0 -83 21t-32 66q0 59 73 111q-55 5 -94.5 27t-60.5 51.5t-32.5 75
t-14.5 82t-3 88.5q0 29 0.5 103t0.5 114t-0.5 116t-0.5 88q0 19 18 19h133q20 0 20 -19q0 -12 -0.5 -88t-0.5 -116v-265q0 -23 1 -36.5t4.5 -30.5t10 -26.5t19.5 -16t31 -6.5q19 0 31.5 6.5t19.5 16t10.5 26.5t4.5 30.5t1 36.5v265q0 40 -0.5 116t-0.5 88q0 19 19 19h133
q19 0 19 -19q0 -12 -0.5 -88t-0.5 -116z" />
    <glyph glyph-name="Wcircumflex" unicode="&#x174;" horiz-adv-x="821" 
d="M250 800q-14 0 -6 12q6 10 37.5 51.5t45.5 57.5q22 27 51 27h73q28 0 50 -26q24 -28 84 -110q4 -7 1.5 -9.5t-7.5 -2.5h-100q-14 0 -26 15l-40 52l-40 -53q-11 -14 -25 -14h-98zM797 750q23 0 18 -19q-18 -72 -83 -358l-81 -353q-5 -20 -21 -20h-131q-16 0 -19 19
l-25 160q-4 25 -14.5 97t-18 122.5t-8.5 50.5t-43 -270l-24 -160q-3 -19 -17 -19h-135q-16 0 -21 19l-80 354q-34 148 -88 358q-5 19 14 19h139q21 0 24 -19q5 -22 25 -145q42 -259 50 -259q3 0 36 178t41 225q3 20 23 20h104q25 0 28 -19q3 -20 23 -120t39 -192l18 -92
q2 0 49 259q21 113 25 145q5 19 26 19h127z" />
    <glyph glyph-name="Wcircumflex" unicode="&#x175;" horiz-adv-x="821" 
d="M250 800q-14 0 -6 12q6 10 37.5 51.5t45.5 57.5q22 27 51 27h73q28 0 50 -26q24 -28 84 -110q4 -7 1.5 -9.5t-7.5 -2.5h-100q-14 0 -26 15l-40 52l-40 -53q-11 -14 -25 -14h-98zM797 750q23 0 18 -19q-18 -72 -83 -358l-81 -353q-5 -20 -21 -20h-131q-16 0 -19 19
l-25 160q-4 25 -14.5 97t-18 122.5t-8.5 50.5t-43 -270l-24 -160q-3 -19 -17 -19h-135q-16 0 -21 19l-80 354q-34 148 -88 358q-5 19 14 19h139q21 0 24 -19q5 -22 25 -145q42 -259 50 -259q3 0 36 178t41 225q3 20 23 20h104q25 0 28 -19q3 -20 23 -120t39 -192l18 -92
q2 0 49 259q21 113 25 145q5 19 26 19h127z" />
    <glyph glyph-name="Ycircumflex" unicode="&#x176;" horiz-adv-x="514" 
d="M99 800q-14 0 -6 12q6 10 37.5 51.5t45.5 57.5q22 27 51 27h73q28 0 50 -26q24 -28 84 -110q4 -7 1.5 -9.5t-7.5 -2.5h-100q-14 0 -26 15l-40 52l-40 -53q-10 -14 -25 -14h-98zM492 750q25 0 15 -21q-59 -122 -97 -211q-42 -98 -67 -170q-2 -90 -2 -169q0 -81 2 -159
q-2 -19 -20 -19h-134q-16 0 -18 19q2 68 2 159q0 89 -2 169q-52 131 -69 170q-68 159 -95 212q-5 9 0 14.5t18 5.5h128q24 0 32 -20q8 -18 78 -212q3 7 19.5 55t35 100.5t19.5 56.5q7 20 29 20h126z" />
    <glyph glyph-name="Ycircumflex" unicode="&#x177;" horiz-adv-x="514" 
d="M99 800q-14 0 -6 12q6 10 37.5 51.5t45.5 57.5q22 27 51 27h73q28 0 50 -26q24 -28 84 -110q4 -7 1.5 -9.5t-7.5 -2.5h-100q-14 0 -26 15l-40 52l-40 -53q-10 -14 -25 -14h-98zM492 750q25 0 15 -21q-59 -122 -97 -211q-42 -98 -67 -170q-2 -90 -2 -169q0 -81 2 -159
q-2 -19 -20 -19h-134q-16 0 -18 19q2 68 2 159q0 89 -2 169q-52 131 -69 170q-68 159 -95 212q-5 9 0 14.5t18 5.5h128q24 0 32 -20q8 -18 78 -212q3 7 19.5 55t35 100.5t19.5 56.5q7 20 29 20h126z" />
    <glyph glyph-name="Zacute" unicode="&#x179;" horiz-adv-x="505" 
d="M436 945q27 0 9 -21q-5 -6 -22 -23t-43.5 -42.5t-41.5 -40.5q-18 -18 -40 -18h-90q-12 0 -15 7.5t3 13.5l77 104q14 20 34 20h129zM477 718q-28 -70 -83.5 -203t-61.5 -149q-38 -96 -74 -205h178q36 0 36 -37v-89q0 -36 -36 -36q-2 0 -68 1t-115 1t-123 -1t-82 -1
q-19 0 -22.5 12.5t3.5 23.5q22 48 51 117t60 145.5t38 93.5q65 159 80 207h-186q-19 0 -19 20v113q0 19 19 19q12 0 78 -0.5t108 -0.5q53 0 125 0.5t75 0.5q32 0 19 -32z" />
    <glyph glyph-name="Zacute" unicode="&#x17a;" horiz-adv-x="505" 
d="M436 945q27 0 9 -21q-5 -6 -22 -23t-43.5 -42.5t-41.5 -40.5q-18 -18 -40 -18h-90q-12 0 -15 7.5t3 13.5l77 104q14 20 34 20h129zM477 718q-28 -70 -83.5 -203t-61.5 -149q-38 -96 -74 -205h178q36 0 36 -37v-89q0 -36 -36 -36q-2 0 -68 1t-115 1t-123 -1t-82 -1
q-19 0 -22.5 12.5t3.5 23.5q22 48 51 117t60 145.5t38 93.5q65 159 80 207h-186q-19 0 -19 20v113q0 19 19 19q12 0 78 -0.5t108 -0.5q53 0 125 0.5t75 0.5q32 0 19 -32z" />
    <glyph glyph-name="Zdotaccent" unicode="&#x17b;" horiz-adv-x="505" 
d="M256 795q-38 0 -64.5 24.5t-26.5 57.5t26.5 57.5t64.5 24.5q37 0 63.5 -24.5t26.5 -57.5t-26.5 -57.5t-63.5 -24.5zM477 718q-28 -70 -83.5 -203t-61.5 -149q-38 -96 -74 -205h178q36 0 36 -37v-89q0 -36 -36 -36q-2 0 -68 1t-115 1t-123 -1t-82 -1q-19 0 -22.5 12.5
t3.5 23.5q22 48 51 117t60 145.5t38 93.5q65 159 80 207h-186q-19 0 -19 20v113q0 19 19 19q12 0 78 -0.5t108 -0.5q53 0 125 0.5t75 0.5q32 0 19 -32z" />
    <glyph glyph-name="Zdotaccent" unicode="&#x17c;" horiz-adv-x="505" 
d="M256 795q-38 0 -64.5 24.5t-26.5 57.5t26.5 57.5t64.5 24.5q37 0 63.5 -24.5t26.5 -57.5t-26.5 -57.5t-63.5 -24.5zM477 718q-28 -70 -83.5 -203t-61.5 -149q-38 -96 -74 -205h178q36 0 36 -37v-89q0 -36 -36 -36q-2 0 -68 1t-115 1t-123 -1t-82 -1q-19 0 -22.5 12.5
t3.5 23.5q22 48 51 117t60 145.5t38 93.5q65 159 80 207h-186q-19 0 -19 20v113q0 19 19 19q12 0 78 -0.5t108 -0.5q53 0 125 0.5t75 0.5q32 0 19 -32z" />
    <glyph glyph-name="Zcaron" unicode="&#x17d;" horiz-adv-x="505" 
d="M420 945q14 0 6 -12q-6 -10 -37.5 -51.5t-45.5 -57.5q-22 -27 -51 -27h-73q-28 0 -50 26q-24 28 -84 110q-4 7 -1.5 9.5t7.5 2.5h100q14 0 26 -15l40 -52l40 53q11 14 25 14h98zM477 718q-28 -70 -83.5 -203t-61.5 -149q-38 -96 -74 -205h178q36 0 36 -37v-89
q0 -36 -36 -36q-2 0 -68 1t-115 1t-123 -1t-82 -1q-19 0 -22.5 12.5t3.5 23.5q22 48 51 117t60 145.5t38 93.5q65 159 80 207h-186q-19 0 -19 20v113q0 19 19 19q12 0 78 -0.5t108 -0.5q53 0 125 0.5t75 0.5q32 0 19 -32z" />
    <glyph glyph-name="Zcaron" unicode="&#x17e;" horiz-adv-x="505" 
d="M420 945q14 0 6 -12q-6 -10 -37.5 -51.5t-45.5 -57.5q-22 -27 -51 -27h-73q-28 0 -50 26q-24 28 -84 110q-4 7 -1.5 9.5t7.5 2.5h100q14 0 26 -15l40 -52l40 53q11 14 25 14h98zM477 718q-28 -70 -83.5 -203t-61.5 -149q-38 -96 -74 -205h178q36 0 36 -37v-89
q0 -36 -36 -36q-2 0 -68 1t-115 1t-123 -1t-82 -1q-19 0 -22.5 12.5t3.5 23.5q22 48 51 117t60 145.5t38 93.5q65 159 80 207h-186q-19 0 -19 20v113q0 19 19 19q12 0 78 -0.5t108 -0.5q53 0 125 0.5t75 0.5q32 0 19 -32z" />
    <glyph glyph-name="uni0218" unicode="&#x218;" horiz-adv-x="441" 
d="M309 430q107 -88 107 -220q0 -23 -4.5 -48.5t-18.5 -58t-35.5 -58t-61 -43t-89.5 -17.5q-78 0 -162 50q-15 9 -15 24v152q0 16 22 2q89 -57 138 -57q36 0 50 20t14 43q0 30 -18 55.5t-71 67.5q-33 27 -53 46t-41 45.5t-30.5 57t-9.5 67.5q0 92 49.5 150t141.5 58
q72 0 131 -26q20 -9 20 -26v-138q0 -17 -17 -7q-55 33 -99 33q-32 0 -46 -14.5t-14 -36.5q0 -16 12 -33t23.5 -27.5t39 -31.5t37.5 -29zM257 -46q27 0 18 -28l-33 -108q-12 -42 -51 -42h-36q-32 0 -26 48l11 92q4 38 39 38h78z" />
    <glyph glyph-name="uni0218" unicode="&#x219;" horiz-adv-x="441" 
d="M309 430q107 -88 107 -220q0 -23 -4.5 -48.5t-18.5 -58t-35.5 -58t-61 -43t-89.5 -17.5q-78 0 -162 50q-15 9 -15 24v152q0 16 22 2q89 -57 138 -57q36 0 50 20t14 43q0 30 -18 55.5t-71 67.5q-33 27 -53 46t-41 45.5t-30.5 57t-9.5 67.5q0 92 49.5 150t141.5 58
q72 0 131 -26q20 -9 20 -26v-138q0 -17 -17 -7q-55 33 -99 33q-32 0 -46 -14.5t-14 -36.5q0 -16 12 -33t23.5 -27.5t39 -31.5t37.5 -29zM257 -46q27 0 18 -28l-33 -108q-12 -42 -51 -42h-36q-32 0 -26 48l11 92q4 38 39 38h78z" />
    <glyph glyph-name="uni021A" unicode="&#x21a;" horiz-adv-x="432" 
d="M391 750q21 0 21 -19v-122q0 -19 -21 -19h-82q-7 0 -7 -7q0 -1 -1 -83.5t-1 -123.5q0 -82 1 -218t1 -139q0 -19 -18 -19h-134q-19 0 -19 19q0 3 1 139t1 218q0 41 -1 123.5t-1 83.5q0 7 -8 7h-85q-18 0 -18 19v122q0 19 18 19h353zM265 -46q27 0 18 -28l-33 -108
q-12 -42 -51 -42h-36q-32 0 -26 48l11 92q4 38 39 38h78z" />
    <glyph glyph-name="uni021A" unicode="&#x21b;" horiz-adv-x="432" 
d="M391 750q21 0 21 -19v-122q0 -19 -21 -19h-82q-7 0 -7 -7q0 -1 -1 -83.5t-1 -123.5q0 -82 1 -218t1 -139q0 -19 -18 -19h-134q-19 0 -19 19q0 3 1 139t1 218q0 41 -1 123.5t-1 83.5q0 7 -8 7h-85q-18 0 -18 19v122q0 19 18 19h353zM265 -46q27 0 18 -28l-33 -108
q-12 -42 -51 -42h-36q-32 0 -26 48l11 92q4 38 39 38h78z" />
    <glyph glyph-name="circumflex" unicode="&#x2c6;" horiz-adv-x="600" 
d="M9 800q-14 0 -6 12q6 10 37.5 51.5t45.5 57.5q22 27 51 27h73q28 0 50 -26q24 -28 84 -110q4 -7 1.5 -9.5t-7.5 -2.5h-100q-14 0 -26 15l-40 52l-40 -53q-10 -14 -25 -14h-98z" />
    <glyph glyph-name="caron" unicode="&#x2c7;" horiz-adv-x="600" 
d="M324 945q14 0 6 -12q-6 -10 -37.5 -51.5t-45.5 -57.5q-22 -27 -51 -27h-73q-28 0 -50 26q-24 28 -84 110q-4 7 -1.5 9.5t7.5 2.5h100q14 0 26 -15l40 -52l40 53q11 14 25 14h98z" />
    <glyph glyph-name="breve" unicode="&#x2d8;" horiz-adv-x="600" 
d="M158 791q-72 0 -110.5 40t-47.5 104q-1 10 8 10h75q9 0 12 -10q17 -42 63 -42t64 42q3 10 12 10h75q9 0 8 -10q-9 -64 -48 -104t-111 -40z" />
    <glyph glyph-name="dotaccent" unicode="&#x2d9;" horiz-adv-x="600" 
d="M96 795q-38 0 -64.5 24.5t-26.5 57.5t26.5 57.5t64.5 24.5q37 0 63.5 -24.5t26.5 -57.5t-26.5 -57.5t-63.5 -24.5z" />
    <glyph glyph-name="ring" unicode="&#x2da;" horiz-adv-x="600" 
d="M-6 877q0 42 32.5 71t79.5 29t79 -29t32 -71t-32 -70t-79 -28t-79.5 28t-32.5 70zM66 877q0 -15 11.5 -25t28.5 -10t28 10t11 25t-11.5 25.5t-27.5 10.5q-17 0 -28.5 -10.5t-11.5 -25.5z" />
    <glyph glyph-name="ogonek" unicode="&#x2db;" horiz-adv-x="600" 
d="M0 -125q0 73 114 137l74 37q8 -22 8 -34q0 -16 -11 -27q-41 -38 -53 -55.5t-12 -31.5q0 -26 34 -26q12 0 23 2t12 2q7 0 7 -9v-55q0 -7 -9 -12q-24 -15 -72 -15q-51 0 -83 21t-32 66z" />
    <glyph glyph-name="tilde" unicode="&#x2dc;" horiz-adv-x="600" 
d="M352 936q17 0 16 -16q-1 -55 -30.5 -91t-76.5 -36q-8 0 -16.5 1t-15 2.5t-14.5 4.5t-12.5 4.5t-12.5 5.5l-11 5.5t-11 6.5t-10 6q-36 21 -53 21q-21 0 -30 -28q-5 -16 -17 -16h-42q-17 0 -16 16q1 54 31 89t76 35q43 0 100 -34q36 -21 55 -21q23 0 31 29q4 16 17 16h42z
" />
    <glyph glyph-name="hungarumlaut" unicode="&#x2dd;" horiz-adv-x="600" 
d="M171 945q9 0 12 -6.5t-3 -14.5l-76 -106q-13 -18 -39 -18h-61q-22 0 -12 21l48 104q9 20 32 20h99zM346 945q12 0 15.5 -7.5t-4.5 -17.5l-85 -105q-12 -15 -37 -15h-65q-12 0 -14.5 7.5t2.5 13.5l62 104q12 20 32 20h94z" />
    <glyph glyph-name="gravecomb" unicode="&#x300;" horiz-adv-x="0" 
d="M-244 945h129q20 0 34 -20l77 -104q6 -6 3 -13.5t-15 -7.5h-90q-22 0 -40 18q-15 15 -41.5 40.5t-43.5 42.5t-22 23q-18 21 9 21z" />
    <glyph glyph-name="acutecomb" unicode="&#x301;" horiz-adv-x="0" 
d="M-18 945q27 0 9 -21q-5 -6 -22 -23t-43.5 -42.5t-41.5 -40.5q-18 -18 -40 -18h-90q-12 0 -15 7.5t3 13.5l77 104q14 20 34 20h129z" />
    <glyph glyph-name="uni0302" unicode="&#x302;" horiz-adv-x="0" 
d="M-338 800q-14 0 -6 12q6 10 37.5 51.5t45.5 57.5q22 27 51 27h73q28 0 50 -26q24 -28 84 -110q4 -7 1.5 -9.5t-7.5 -2.5h-100q-14 0 -26 15l-40 52l-40 -53q-10 -14 -25 -14h-98z" />
    <glyph glyph-name="tildecomb" unicode="&#x303;" horiz-adv-x="0" 
d="M-16 936q17 0 16 -16q-1 -55 -30.5 -91t-76.5 -36q-8 0 -16.5 1t-15 2.5t-14.5 4.5t-12.5 4.5t-12.5 5.5l-11 5.5t-11 6.5t-10 6q-36 21 -53 21q-21 0 -30 -28q-5 -16 -17 -16h-42q-17 0 -16 16q1 54 31 89t76 35q43 0 100 -34q36 -21 55 -21q23 0 31 29q4 16 17 16h42z
" />
    <glyph glyph-name="uni0304" unicode="&#x304;" horiz-adv-x="0" 
d="M-1 852q0 -28 -28 -28q-4 0 -23.5 0.5t-51 1t-65.5 0.5q-35 0 -68 -0.5t-54 -1t-25 -0.5q-23 0 -23 27v45q0 26 23 26q4 0 24.5 -0.5t54 -1t68.5 -0.5q34 0 65.5 0.5t51 1t23.5 0.5q28 0 28 -27v-43z" />
    <glyph glyph-name="uni0306" unicode="&#x306;" horiz-adv-x="0" 
d="M-159 791q-72 0 -110.5 40t-47.5 104q-1 10 8 10h75q9 0 12 -10q18 -42 63 -42q47 0 64 42q3 10 12 10h75q9 0 8 -10q-9 -64 -48 -104t-111 -40z" />
    <glyph glyph-name="uni0307" unicode="&#x307;" horiz-adv-x="0" 
d="M-95 795q-38 0 -64.5 24.5t-26.5 57.5t26.5 57.5t64.5 24.5q37 0 63.5 -24.5t26.5 -57.5t-26.5 -57.5t-63.5 -24.5z" />
    <glyph glyph-name="uni0308" unicode="&#x308;" horiz-adv-x="0" 
d="M-308 792q-35 0 -59.5 23t-24.5 53t24.5 52.5t59.5 22.5q34 0 58.5 -22.5t24.5 -52.5t-24.5 -53t-58.5 -23zM-78 792q-35 0 -59.5 23t-24.5 53t24.5 52.5t59.5 22.5q34 0 58.5 -22.5t24.5 -52.5t-24.5 -53t-58.5 -23z" />
    <glyph glyph-name="uni030A" unicode="&#x30a;" horiz-adv-x="0" 
d="M-217 877q0 42 32.5 71t79.5 29t79 -29t32 -71t-32 -70t-79 -28t-79.5 28t-32.5 70zM-145 877q0 -15 11.5 -25t28.5 -10t28 10t11 25t-11.5 25.5t-27.5 10.5q-17 0 -28.5 -10.5t-11.5 -25.5z" />
    <glyph glyph-name="uni030B" unicode="&#x30b;" horiz-adv-x="0" 
d="M-175 945q9 0 12 -6.5t-3 -14.5l-76 -106q-13 -18 -39 -18h-61q-22 0 -12 21l48 104q9 20 32 20h99zM0 945q12 0 15.5 -7.5t-4.5 -17.5l-85 -105q-12 -15 -37 -15h-65q-12 0 -14.5 7.5t2.5 13.5l62 104q13 20 32 20h94z" />
    <glyph glyph-name="uni030C" unicode="&#x30c;" horiz-adv-x="0" 
d="M5 945q14 0 6 -12q-6 -10 -37.5 -51.5t-45.5 -57.5q-22 -27 -51 -27h-73q-28 0 -50 26q-24 28 -84 110q-4 7 -1.5 9.5t7.5 2.5h100q14 0 26 -15l40 -52l40 53q11 14 25 14h98z" />
    <glyph glyph-name="uni0326" unicode="&#x326;" horiz-adv-x="0" 
d="M-96 -46q27 0 18 -28l-33 -108q-12 -42 -51 -42h-36q-32 0 -26 48l11 92q4 38 39 38h78z" />
    <glyph glyph-name="uni0327" unicode="&#x327;" horiz-adv-x="0" 
d="M9 -122q0 -40 -33.5 -65t-89.5 -25q-54 0 -74 8q-10 2 -10 12v52q0 9 8 9l18 -3q17 -3 34 -3q29 0 29 24t-41 30q-11 2 -7 17l17 66h106l-11 -39q-4 -12 2 -13q22 -6 37 -26t15 -44z" />
    <glyph glyph-name="uni0328" unicode="&#x328;" horiz-adv-x="0" 
d="M-196 -125q0 73 114 137l74 37q8 -22 8 -34q0 -16 -11 -27q-41 -38 -53 -55.5t-12 -31.5q0 -26 34 -26q12 0 23 2t12 2q7 0 7 -9v-55q0 -7 -9 -12q-24 -15 -72 -15q-51 0 -83 21t-32 66z" />
    <glyph glyph-name="uni0400" unicode="&#x400;" horiz-adv-x="417" 
d="M22 945h129q20 0 34 -20l77 -104q6 -6 3 -13.5t-15 -7.5h-90q-22 0 -40 18q-15 15 -41.5 40.5t-43.5 42.5t-22 23q-18 21 9 21zM356 156q26 0 26 -18v-120q0 -18 -25 -18h-278q-15 0 -22 9t-7 20q1 58 2.5 173.5t2.5 173.5q-1 57 -2.5 172.5t-2.5 173.5q0 11 7 19.5
t22 8.5h278q25 0 25 -17v-120q0 -18 -26 -18h-130q-5 0 -5 -6v-126q0 -9 5 -9h124q17 0 17 -16v-124q0 -15 -17 -15h-124q-5 0 -5 -8v-130q0 -5 5 -5h130z" />
    <glyph glyph-name="uni0401" unicode="&#x401;" horiz-adv-x="417" 
d="M104 792q-35 0 -59.5 23t-24.5 53t24.5 52.5t59.5 22.5q34 0 58.5 -22.5t24.5 -52.5t-24.5 -53t-58.5 -23zM334 792q-35 0 -59.5 23t-24.5 53t24.5 52.5t59.5 22.5q34 0 58.5 -22.5t24.5 -52.5t-24.5 -53t-58.5 -23zM356 156q26 0 26 -18v-120q0 -18 -25 -18h-278
q-15 0 -22 9t-7 20q1 58 2.5 173.5t2.5 173.5q-1 57 -2.5 172.5t-2.5 173.5q0 11 7 19.5t22 8.5h278q25 0 25 -17v-120q0 -18 -26 -18h-130q-5 0 -5 -6v-126q0 -9 5 -9h124q17 0 17 -16v-124q0 -15 -17 -15h-124q-5 0 -5 -8v-130q0 -5 5 -5h130z" />
    <glyph glyph-name="uni0401" unicode="&#x451;" horiz-adv-x="417" 
d="M104 792q-35 0 -59.5 23t-24.5 53t24.5 52.5t59.5 22.5q34 0 58.5 -22.5t24.5 -52.5t-24.5 -53t-58.5 -23zM334 792q-35 0 -59.5 23t-24.5 53t24.5 52.5t59.5 22.5q34 0 58.5 -22.5t24.5 -52.5t-24.5 -53t-58.5 -23zM356 156q26 0 26 -18v-120q0 -18 -25 -18h-278
q-15 0 -22 9t-7 20q1 58 2.5 173.5t2.5 173.5q-1 57 -2.5 172.5t-2.5 173.5q0 11 7 19.5t22 8.5h278q25 0 25 -17v-120q0 -18 -26 -18h-130q-5 0 -5 -6v-126q0 -9 5 -9h124q17 0 17 -16v-124q0 -15 -17 -15h-124q-5 0 -5 -8v-130q0 -5 5 -5h130z" />
    <glyph glyph-name="uni0402" unicode="&#x402;" horiz-adv-x="621" 
d="M390 478q110 0 163 -62.5t53 -170.5q0 -111 -51.5 -180t-151.5 -69q-22 0 -33.5 1.5t-20.5 8.5t-9 20l1 106q0 20 22 20q39 0 54.5 25t15.5 58q0 81 -78 81q-33 0 -56 -14v-284q0 -18 -24 -18h-121q-24 0 -24 19q0 1 0.5 77t1 162.5t0.5 114.5q0 11 -0.5 90t-0.5 127h-93
q-18 0 -18 19v122q0 19 18 19h416q21 0 21 -19v-122q0 -19 -21 -19h-155v-126q40 14 91 14z" />
    <glyph glyph-name="uni0402" unicode="&#x452;" horiz-adv-x="621" 
d="M390 478q110 0 163 -62.5t53 -170.5q0 -111 -51.5 -180t-151.5 -69q-22 0 -33.5 1.5t-20.5 8.5t-9 20l1 106q0 20 22 20q39 0 54.5 25t15.5 58q0 81 -78 81q-33 0 -56 -14v-284q0 -18 -24 -18h-121q-24 0 -24 19q0 1 0.5 77t1 162.5t0.5 114.5q0 11 -0.5 90t-0.5 127h-93
q-18 0 -18 19v122q0 19 18 19h416q21 0 21 -19v-122q0 -19 -21 -19h-155v-126q40 14 91 14z" />
    <glyph glyph-name="uni0403" unicode="&#x403;" horiz-adv-x="388" 
d="M366 945q27 0 9 -21q-5 -6 -22 -23t-43.5 -42.5t-41.5 -40.5q-18 -18 -40 -18h-90q-12 0 -15 7.5t3 13.5l77 104q14 20 34 20h129zM347 750q21 0 21 -19v-122q0 -19 -21 -19h-119q-7 0 -7 -7q0 -1 -1 -83.5t-1 -123.5q0 -82 1 -218t1 -139q0 -19 -18 -19h-134
q-19 0 -19 19q0 3 1 139t1 218q0 119 -2 355q0 19 18 19h279z" />
    <glyph glyph-name="uni0403" unicode="&#x453;" horiz-adv-x="388" 
d="M366 945q27 0 9 -21q-5 -6 -22 -23t-43.5 -42.5t-41.5 -40.5q-18 -18 -40 -18h-90q-12 0 -15 7.5t3 13.5l77 104q14 20 34 20h129zM347 750q21 0 21 -19v-122q0 -19 -21 -19h-119q-7 0 -7 -7q0 -1 -1 -83.5t-1 -123.5q0 -82 1 -218t1 -139q0 -19 -18 -19h-134
q-19 0 -19 19q0 3 1 139t1 218q0 119 -2 355q0 19 18 19h279z" />
    <glyph glyph-name="uni0404" unicode="&#x404;" horiz-adv-x="492" 
d="M371 594q-139 0 -165 -144h185q20 0 20 -20v-112q0 -20 -20 -20h-185q25 -141 162 -141q34 0 76 7q18 3 18 -14v-118q0 -17 -13 -22q-42 -18 -114 -18q-136 0 -223 104.5t-87 276.5q0 175 87 280.5t223 105.5q80 0 115 -17q12 -5 12 -24v-112q0 -26 -26 -19q-28 7 -65 7z
" />
    <glyph glyph-name="uni0404" unicode="&#x454;" horiz-adv-x="492" 
d="M371 594q-139 0 -165 -144h185q20 0 20 -20v-112q0 -20 -20 -20h-185q25 -141 162 -141q34 0 76 7q18 3 18 -14v-118q0 -17 -13 -22q-42 -18 -114 -18q-136 0 -223 104.5t-87 276.5q0 175 87 280.5t223 105.5q80 0 115 -17q12 -5 12 -24v-112q0 -26 -26 -19q-28 7 -65 7z
" />
    <glyph glyph-name="uni0405" unicode="&#x405;" horiz-adv-x="441" 
d="M309 430q107 -88 107 -220q0 -23 -4.5 -48.5t-18.5 -58t-35.5 -58t-61 -43t-89.5 -17.5q-78 0 -162 50q-15 9 -15 24v152q0 16 22 2q89 -57 138 -57q36 0 50 20t14 43q0 30 -18 55.5t-71 67.5q-33 27 -53 46t-41 45.5t-30.5 57t-9.5 67.5q0 92 49.5 150t141.5 58
q72 0 131 -26q20 -9 20 -26v-138q0 -17 -17 -7q-55 33 -99 33q-32 0 -46 -14.5t-14 -36.5q0 -16 12 -33t23.5 -27.5t39 -31.5t37.5 -29z" />
    <glyph glyph-name="uni0405" unicode="&#x455;" horiz-adv-x="441" 
d="M309 430q107 -88 107 -220q0 -23 -4.5 -48.5t-18.5 -58t-35.5 -58t-61 -43t-89.5 -17.5q-78 0 -162 50q-15 9 -15 24v152q0 16 22 2q89 -57 138 -57q36 0 50 20t14 43q0 30 -18 55.5t-71 67.5q-33 27 -53 46t-41 45.5t-30.5 57t-9.5 67.5q0 92 49.5 150t141.5 58
q72 0 131 -26q20 -9 20 -26v-138q0 -17 -17 -7q-55 33 -99 33q-32 0 -46 -14.5t-14 -36.5q0 -16 12 -33t23.5 -27.5t39 -31.5t37.5 -29z" />
    <glyph glyph-name="uni0406" unicode="&#x406;" 
d="M221 732q0 -3 -0.5 -78.5t-1 -162t-0.5 -114.5t0.5 -114.5t1 -162.5t0.5 -79q0 -21 -25 -21h-122q-9 0 -16.5 5.5t-7.5 15.5q0 2 1 80t1.5 165t0.5 111q0 25 -0.5 111t-1.5 163.5t-1 80.5q0 18 24 18h123q24 0 24 -18z" />
    <glyph glyph-name="uni0406" unicode="&#x456;" 
d="M221 732q0 -3 -0.5 -78.5t-1 -162t-0.5 -114.5t0.5 -114.5t1 -162.5t0.5 -79q0 -21 -25 -21h-122q-9 0 -16.5 5.5t-7.5 15.5q0 2 1 80t1.5 165t0.5 111q0 25 -0.5 111t-1.5 163.5t-1 80.5q0 18 24 18h123q24 0 24 -18z" />
    <glyph glyph-name="uni0407" unicode="&#x407;" 
d="M26 792q-35 0 -59.5 23t-24.5 53t24.5 52.5t59.5 22.5q34 0 58.5 -22.5t24.5 -52.5t-24.5 -53t-58.5 -23zM256 792q-35 0 -59.5 23t-24.5 53t24.5 52.5t59.5 22.5q34 0 58.5 -22.5t24.5 -52.5t-24.5 -53t-58.5 -23zM221 732q0 -3 -0.5 -78.5t-1 -162t-0.5 -114.5
t0.5 -114.5t1 -162.5t0.5 -79q0 -21 -25 -21h-122q-9 0 -16.5 5.5t-7.5 15.5q0 2 1 80t1.5 165t0.5 111q0 25 -0.5 111t-1.5 163.5t-1 80.5q0 18 24 18h123q24 0 24 -18z" />
    <glyph glyph-name="uni0407" unicode="&#x457;" 
d="M26 792q-35 0 -59.5 23t-24.5 53t24.5 52.5t59.5 22.5q34 0 58.5 -22.5t24.5 -52.5t-24.5 -53t-58.5 -23zM256 792q-35 0 -59.5 23t-24.5 53t24.5 52.5t59.5 22.5q34 0 58.5 -22.5t24.5 -52.5t-24.5 -53t-58.5 -23zM221 732q0 -3 -0.5 -78.5t-1 -162t-0.5 -114.5
t0.5 -114.5t1 -162.5t0.5 -79q0 -21 -25 -21h-122q-9 0 -16.5 5.5t-7.5 15.5q0 2 1 80t1.5 165t0.5 111q0 25 -0.5 111t-1.5 163.5t-1 80.5q0 18 24 18h123q24 0 24 -18z" />
    <glyph glyph-name="uni0408" unicode="&#x408;" horiz-adv-x="368" 
d="M298 750q20 0 20 -19q0 -1 -1 -44.5t-1.5 -108.5t-0.5 -120q0 -40 -0.5 -106.5t-0.5 -82.5q0 -53 -3 -90t-13 -75t-28 -61t-49 -37.5t-75 -14.5q-63 0 -110 22q-16 8 -16 30v128q0 21 21 13q37 -13 53 -13q28 0 39 16t15 64q3 44 1 207q0 56 -0.5 121.5t-1.5 108.5l-1 43
q0 19 21 19h131z" />
    <glyph glyph-name="uni0408" unicode="&#x458;" horiz-adv-x="368" 
d="M298 750q20 0 20 -19q0 -1 -1 -44.5t-1.5 -108.5t-0.5 -120q0 -40 -0.5 -106.5t-0.5 -82.5q0 -53 -3 -90t-13 -75t-28 -61t-49 -37.5t-75 -14.5q-63 0 -110 22q-16 8 -16 30v128q0 21 21 13q37 -13 53 -13q28 0 39 16t15 64q3 44 1 207q0 56 -0.5 121.5t-1.5 108.5l-1 43
q0 19 21 19h131z" />
    <glyph glyph-name="uni0409" unicode="&#x409;" horiz-adv-x="881" 
d="M618 478q114 -11 181 -76t67 -164q0 -109 -75.5 -173.5t-203.5 -64.5h-133q-14 1 -23 11.5t-9 25.5q0 66 1.5 197t1.5 144q0 1 -3 211q0 9 -8 9h-101q-9 0 -9 -9v-302q0 -166 -46.5 -230.5t-147.5 -64.5q-43 0 -80 11q-20 6 -20 30v117q0 21 20 13q26 -9 44 -9
q60 0 60 105v118q0 5 -2 139.5t-2 210.5q0 23 27 23h425q17 0 17 -20v-2v-1q0 -101 -1 -154v-80q0 -13 20 -15zM613 147q31 0 57.5 21t26.5 69q0 54 -25.5 74.5t-58.5 20.5q-14 0 -14 -12v-161q0 -12 14 -12z" />
    <glyph glyph-name="uni0409" unicode="&#x459;" horiz-adv-x="881" 
d="M618 478q114 -11 181 -76t67 -164q0 -109 -75.5 -173.5t-203.5 -64.5h-133q-14 1 -23 11.5t-9 25.5q0 66 1.5 197t1.5 144q0 1 -3 211q0 9 -8 9h-101q-9 0 -9 -9v-302q0 -166 -46.5 -230.5t-147.5 -64.5q-43 0 -80 11q-20 6 -20 30v117q0 21 20 13q26 -9 44 -9
q60 0 60 105v118q0 5 -2 139.5t-2 210.5q0 23 27 23h425q17 0 17 -20v-2v-1q0 -101 -1 -154v-80q0 -13 20 -15zM613 147q31 0 57.5 21t26.5 69q0 54 -25.5 74.5t-58.5 20.5q-14 0 -14 -12v-161q0 -12 14 -12z" />
    <glyph glyph-name="uni040A" unicode="&#x40a;" horiz-adv-x="804" 
d="M541 479q113 -10 180.5 -76t67.5 -165q0 -109 -75.5 -173.5t-203.5 -64.5h-130q-14 1 -23 11.5t-9 25.5q0 3 2 134.5t2 148.5q0 9 -8 9h-115q-8 0 -8 -9q0 -19 3 -150t3 -133q0 -15 -9 -25.5t-23 -11.5h-118q-29 0 -27 36q4 252 4 341q0 92 -4 350q0 23 27 23h118
q14 0 23 -9t9 -23q-1 -55 -2.5 -108t-2.5 -80.5t-1 -38.5q0 -10 8 -10h115q8 0 8 10q0 12 -1 39.5t-2.5 81t-2.5 106.5q0 14 9 23t23 9h117q14 0 21.5 -6.5t6.5 -16.5q-2 -140 -2 -234q0 -12 20 -14zM536 147q31 0 57.5 21t26.5 69q0 94 -84 94q-14 0 -14 -12v-160
q0 -12 14 -12z" />
    <glyph glyph-name="uni040A" unicode="&#x45a;" horiz-adv-x="804" 
d="M541 479q113 -10 180.5 -76t67.5 -165q0 -109 -75.5 -173.5t-203.5 -64.5h-130q-14 1 -23 11.5t-9 25.5q0 3 2 134.5t2 148.5q0 9 -8 9h-115q-8 0 -8 -9q0 -19 3 -150t3 -133q0 -15 -9 -25.5t-23 -11.5h-118q-29 0 -27 36q4 252 4 341q0 92 -4 350q0 23 27 23h118
q14 0 23 -9t9 -23q-1 -55 -2.5 -108t-2.5 -80.5t-1 -38.5q0 -10 8 -10h115q8 0 8 10q0 12 -1 39.5t-2.5 81t-2.5 106.5q0 14 9 23t23 9h117q14 0 21.5 -6.5t6.5 -16.5q-2 -140 -2 -234q0 -12 20 -14zM536 147q31 0 57.5 21t26.5 69q0 94 -84 94q-14 0 -14 -12v-160
q0 -12 14 -12z" />
    <glyph glyph-name="uni040B" unicode="&#x40b;" horiz-adv-x="586" 
d="M387 478q107 0 145.5 -58.5t38.5 -173.5v-224q0 -22 -22 -22h-124q-22 0 -22 22v195q0 28 -1.5 42.5t-7 29.5t-18 21t-33.5 6q-31 0 -54 -14v-284q0 -18 -24 -18h-121q-24 0 -24 18q0 3 0.5 78.5t1 162t0.5 114.5q0 11 -0.5 89.5t-0.5 127.5h-83q-18 0 -18 19v122
q0 19 18 19h416q21 0 21 -19v-122q0 -19 -21 -19h-165v-128q43 16 98 16z" />
    <glyph glyph-name="uni040B" unicode="&#x45b;" horiz-adv-x="586" 
d="M387 478q107 0 145.5 -58.5t38.5 -173.5v-224q0 -22 -22 -22h-124q-22 0 -22 22v195q0 28 -1.5 42.5t-7 29.5t-18 21t-33.5 6q-31 0 -54 -14v-284q0 -18 -24 -18h-121q-24 0 -24 18q0 3 0.5 78.5t1 162t0.5 114.5q0 11 -0.5 89.5t-0.5 127.5h-83q-18 0 -18 19v122
q0 19 18 19h416q21 0 21 -19v-122q0 -19 -21 -19h-165v-128q43 16 98 16z" />
    <glyph glyph-name="uni040C" unicode="&#x40c;" horiz-adv-x="531" 
d="M462 945q27 0 9 -21q-5 -6 -22 -23t-43.5 -42.5t-41.5 -40.5q-18 -18 -40 -18h-90q-12 0 -15 7.5t3 13.5l77 104q14 20 34 20h129zM520 20q8 -20 -20 -20h-141q-20 0 -27 20q-10 29 -35.5 96.5t-47 123.5t-22.5 58q-4 10 -6 10q-3 0 -3 -8q0 -28 1.5 -151.5t1.5 -128.5
q0 -20 -20 -20h-131q-20 0 -20 20l2 166q2 165 2 191t-2 189.5t-2 164.5q0 19 20 19h131q20 0 20 -19q0 -3 -1.5 -119t-1.5 -154q0 -7 3 -7q2 0 6 9l110 270q8 20 25 20h144q20 0 9 -21q-93 -177 -170 -340q21 -46 91.5 -194t83.5 -175z" />
    <glyph glyph-name="uni040C" unicode="&#x45c;" horiz-adv-x="531" 
d="M462 945q27 0 9 -21q-5 -6 -22 -23t-43.5 -42.5t-41.5 -40.5q-18 -18 -40 -18h-90q-12 0 -15 7.5t3 13.5l77 104q14 20 34 20h129zM520 20q8 -20 -20 -20h-141q-20 0 -27 20q-10 29 -35.5 96.5t-47 123.5t-22.5 58q-4 10 -6 10q-3 0 -3 -8q0 -28 1.5 -151.5t1.5 -128.5
q0 -20 -20 -20h-131q-20 0 -20 20l2 166q2 165 2 191t-2 189.5t-2 164.5q0 19 20 19h131q20 0 20 -19q0 -3 -1.5 -119t-1.5 -154q0 -7 3 -7q2 0 6 9l110 270q8 20 25 20h144q20 0 9 -21q-93 -177 -170 -340q21 -46 91.5 -194t83.5 -175z" />
    <glyph glyph-name="uni040D" unicode="&#x40d;" horiz-adv-x="600" 
d="M108 945h129q20 0 34 -20l77 -104q6 -6 3 -13.5t-15 -7.5h-90q-22 0 -40 18q-15 15 -41.5 40.5t-43.5 42.5t-22 23q-18 21 9 21zM383 417h-4q-29 -80 -83 -216t-74 -181q-9 -20 -32 -20h-121q-19 0 -19 20q0 1 1.5 167.5t1.5 189.5t-1.5 188t-1.5 166q0 19 22 19h124
q21 0 21 -19q0 -2 -0.5 -37.5t-1 -80.5t-0.5 -70q0 -16 1 -83.5t1 -115.5h4q15 41 157 387q8 19 26 19h130q16 0 16 -19q0 -2 -1.5 -167t-1.5 -187t1.5 -189t1.5 -168q0 -20 -20 -20h-124q-23 0 -23 20q0 2 0.5 36.5t1 80t0.5 75.5q0 57 -2 205z" />
    <glyph glyph-name="uni040F" unicode="&#x40f;" horiz-adv-x="573" 
d="M496 750q29 0 27 -36q-4 -252 -4 -341q0 -92 4 -350q0 -23 -27 -23h-128v-99q0 -20 -20 -20h-124q-20 0 -20 20v99h-126q-14 0 -21.5 6.5t-6.5 16.5q0 41 1 125.5t1.5 143t0.5 82.5q0 23 -0.5 80t-1.5 138.5t-1 121.5q-1 16 6.5 26t21.5 10h117q14 -1 23 -11.5t9 -25.5
q0 -66 -1.5 -197t-1.5 -144q0 -1 3 -211q0 -9 8 -9h103q8 0 8 9q3 70 3 211q0 13 -1.5 144t-1.5 197q0 15 9 25.5t23 11.5h118z" />
    <glyph glyph-name="uni040F" unicode="&#x45f;" horiz-adv-x="573" 
d="M496 750q29 0 27 -36q-4 -252 -4 -341q0 -92 4 -350q0 -23 -27 -23h-128v-99q0 -20 -20 -20h-124q-20 0 -20 20v99h-126q-14 0 -21.5 6.5t-6.5 16.5q0 41 1 125.5t1.5 143t0.5 82.5q0 23 -0.5 80t-1.5 138.5t-1 121.5q-1 16 6.5 26t21.5 10h117q14 -1 23 -11.5t9 -25.5
q0 -66 -1.5 -197t-1.5 -144q0 -1 3 -211q0 -9 8 -9h103q8 0 8 9q3 70 3 211q0 13 -1.5 144t-1.5 197q0 15 9 25.5t23 11.5h118z" />
    <glyph glyph-name="uni0410" unicode="&#x410;" horiz-adv-x="558" 
d="M552 28q6 -28 -27 -28h-130q-19 0 -24 19l-16 78q-3 13 -17 13h-118q-14 0 -17 -13l-16 -78q-5 -19 -24 -19h-130q-33 0 -27 28q41 163 85 348q67 281 81 349q5 26 38 26h138q33 0 39 -27l80 -347q48 -206 85 -349zM311 245q19 0 16 20l-48 334h-2l-46 -334
q-3 -20 16 -20h64z" />
    <glyph glyph-name="uni0410" unicode="&#x430;" horiz-adv-x="558" 
d="M552 28q6 -28 -27 -28h-130q-19 0 -24 19l-16 78q-3 13 -17 13h-118q-14 0 -17 -13l-16 -78q-5 -19 -24 -19h-130q-33 0 -27 28q41 163 85 348q67 281 81 349q5 26 38 26h138q33 0 39 -27l80 -347q48 -206 85 -349zM311 245q19 0 16 20l-48 334h-2l-46 -334
q-3 -20 16 -20h64z" />
    <glyph glyph-name="uni0411" unicode="&#x411;" horiz-adv-x="502" 
d="M239 478q114 -11 181 -76t67 -164q0 -109 -75.5 -173.5t-203.5 -64.5h-136q-22 0 -22 19l2 165q2 164 2 192q0 21 -1 107t-2 165t-1 82q0 20 17 20h329q20 0 20 -20v-120q0 -20 -20 -20h-177v-97q0 -13 20 -15zM234 147q31 0 57.5 21t26.5 69q0 54 -25.5 74.5t-58.5 20.5
q-14 0 -14 -12v-161q0 -12 14 -12z" />
    <glyph glyph-name="uni0411" unicode="&#x431;" horiz-adv-x="502" 
d="M239 478q114 -11 181 -76t67 -164q0 -109 -75.5 -173.5t-203.5 -64.5h-136q-22 0 -22 19l2 165q2 164 2 192q0 21 -1 107t-2 165t-1 82q0 20 17 20h329q20 0 20 -20v-120q0 -20 -20 -20h-177v-97q0 -13 20 -15zM234 147q31 0 57.5 21t26.5 69q0 54 -25.5 74.5t-58.5 20.5
q-14 0 -14 -12v-161q0 -12 14 -12z" />
    <glyph glyph-name="uni0412" unicode="&#x412;" horiz-adv-x="527" 
d="M364 401q59 -16 98.5 -64t39.5 -125q0 -212 -258 -212h-158q-14 0 -25 8.5t-11 27.5q0 3 1 61t1.5 145t0.5 162q0 66 -0.5 138t-1.5 119.5t-1 51.5q0 37 36 37h164q224 0 224 -178q0 -128 -110 -166q-9 -3 0 -5zM315 544q0 40 -25.5 62t-68.5 20v-175q43 -2 68.5 23
t25.5 70zM221 130q52 1 81.5 27.5t29.5 72.5t-29.5 71.5t-81.5 25.5v-197z" />
    <glyph glyph-name="uni0412" unicode="&#x432;" horiz-adv-x="527" 
d="M364 401q59 -16 98.5 -64t39.5 -125q0 -212 -258 -212h-158q-14 0 -25 8.5t-11 27.5q0 3 1 61t1.5 145t0.5 162q0 66 -0.5 138t-1.5 119.5t-1 51.5q0 37 36 37h164q224 0 224 -178q0 -128 -110 -166q-9 -3 0 -5zM315 544q0 40 -25.5 62t-68.5 20v-175q43 -2 68.5 23
t25.5 70zM221 130q52 1 81.5 27.5t29.5 72.5t-29.5 71.5t-81.5 25.5v-197z" />
    <glyph glyph-name="uni0413" unicode="&#x413;" horiz-adv-x="388" 
d="M347 750q21 0 21 -19v-122q0 -19 -21 -19h-119q-7 0 -7 -7q0 -1 -1 -83.5t-1 -123.5q0 -82 1 -218t1 -139q0 -19 -18 -19h-134q-19 0 -19 19q0 3 1 139t1 218q0 119 -2 355q0 19 18 19h279z" />
    <glyph glyph-name="uni0413" unicode="&#x433;" horiz-adv-x="388" 
d="M347 750q21 0 21 -19v-122q0 -19 -21 -19h-119q-7 0 -7 -7q0 -1 -1 -83.5t-1 -123.5q0 -82 1 -218t1 -139q0 -19 -18 -19h-134q-19 0 -19 19q0 3 1 139t1 218q0 119 -2 355q0 19 18 19h279z" />
    <glyph glyph-name="uni0414" unicode="&#x414;" horiz-adv-x="632" 
d="M592 152q20 0 20 -20v-231q0 -20 -20 -20h-124q-20 0 -20 20v99h-264v-99q0 -20 -20 -20h-124q-20 0 -20 20v229q0 17 13 25q75 43 75 186q0 30 -2 174t-2 212q0 23 27 23h388q28 0 28 -23q0 -68 -1.5 -200t-1.5 -151q0 -38 2 -224h46zM278 589v-242q0 -156 -61 -193
l154 -2l2 226q0 16 -1.5 94t-1.5 117q0 9 -8 9h-75q-9 0 -9 -9z" />
    <glyph glyph-name="uni0414" unicode="&#x434;" horiz-adv-x="632" 
d="M592 152q20 0 20 -20v-231q0 -20 -20 -20h-124q-20 0 -20 20v99h-264v-99q0 -20 -20 -20h-124q-20 0 -20 20v229q0 17 13 25q75 43 75 186q0 30 -2 174t-2 212q0 23 27 23h388q28 0 28 -23q0 -68 -1.5 -200t-1.5 -151q0 -38 2 -224h46zM278 589v-242q0 -156 -61 -193
l154 -2l2 226q0 16 -1.5 94t-1.5 117q0 9 -8 9h-75q-9 0 -9 -9z" />
    <glyph glyph-name="uni0415" unicode="&#x415;" horiz-adv-x="417" 
d="M356 156q26 0 26 -18v-120q0 -18 -25 -18h-278q-15 0 -22 9t-7 20q1 58 2.5 173.5t2.5 173.5q-1 57 -2.5 172.5t-2.5 173.5q0 11 7 19.5t22 8.5h278q25 0 25 -17v-120q0 -18 -26 -18h-130q-5 0 -5 -6v-126q0 -9 5 -9h124q17 0 17 -16v-124q0 -15 -17 -15h-124q-5 0 -5 -8
v-130q0 -5 5 -5h130z" />
    <glyph glyph-name="uni0415" unicode="&#x435;" horiz-adv-x="417" 
d="M356 156q26 0 26 -18v-120q0 -18 -25 -18h-278q-15 0 -22 9t-7 20q1 58 2.5 173.5t2.5 173.5q-1 57 -2.5 172.5t-2.5 173.5q0 11 7 19.5t22 8.5h278q25 0 25 -17v-120q0 -18 -26 -18h-130q-5 0 -5 -6v-126q0 -9 5 -9h124q17 0 17 -16v-124q0 -15 -17 -15h-124q-5 0 -5 -8
v-130q0 -5 5 -5h130z" />
    <glyph glyph-name="uni0416" unicode="&#x416;" horiz-adv-x="791" 
d="M780 20q8 -20 -20 -20h-141q-20 0 -27 20q-10 29 -35.5 99t-47 128.5t-22.5 60.5q-4 10 -6 10q-3 0 -3 -8q0 -34 1.5 -160.5t1.5 -129.5q0 -20 -20 -20h-131q-20 0 -20 20q0 3 1.5 129.5t1.5 160.5q0 8 -3 8q-2 0 -6 -10q-1 -2 -22.5 -60.5t-47 -128.5t-35.5 -99
q-7 -20 -27 -20h-141q-28 0 -20 20q13 27 83.5 175t91.5 194q-77 163 -170 340q-11 21 9 21h144q17 0 25 -20l110 -280q4 -9 6 -9q3 0 3 7v63q-2 120 -2 171q-1 25 -1 49q0 19 20 19h131q20 0 20 -19q0 -24 -1 -49q0 -51 -2 -171v-63q0 -7 3 -7q2 0 6 9l110 280q8 20 25 20
h144q20 0 9 -21q-93 -177 -170 -340q21 -46 91.5 -194t83.5 -175z" />
    <glyph glyph-name="uni0416" unicode="&#x436;" horiz-adv-x="791" 
d="M780 20q8 -20 -20 -20h-141q-20 0 -27 20q-10 29 -35.5 99t-47 128.5t-22.5 60.5q-4 10 -6 10q-3 0 -3 -8q0 -34 1.5 -160.5t1.5 -129.5q0 -20 -20 -20h-131q-20 0 -20 20q0 3 1.5 129.5t1.5 160.5q0 8 -3 8q-2 0 -6 -10q-1 -2 -22.5 -60.5t-47 -128.5t-35.5 -99
q-7 -20 -27 -20h-141q-28 0 -20 20q13 27 83.5 175t91.5 194q-77 163 -170 340q-11 21 9 21h144q17 0 25 -20l110 -280q4 -9 6 -9q3 0 3 7v63q-2 120 -2 171q-1 25 -1 49q0 19 20 19h131q20 0 20 -19q0 -24 -1 -49q0 -51 -2 -171v-63q0 -7 3 -7q2 0 6 9l110 280q8 20 25 20
h144q20 0 9 -21q-93 -177 -170 -340q21 -46 91.5 -194t83.5 -175z" />
    <glyph glyph-name="uni0417" unicode="&#x417;" horiz-adv-x="441" 
d="M297 398q50 -20 82 -68t32 -123q0 -91 -66.5 -156.5t-161.5 -65.5q-83 0 -147 35q-16 9 -16 26v121q0 15 8 18.5t22 -9.5q39 -39 96 -39q42 0 67.5 25t25.5 67t-25.5 65t-70.5 23q-29 0 -29 32v79q0 12 7.5 19t19.5 7q38 0 59 22t21 62q0 34 -20 55t-49 21
q-47 0 -102 -55q-12 -12 -21 -8.5t-9 19.5v117q0 17 13 27q77 52 167 52q82 0 139 -57t57 -139q0 -121 -99 -166q-4 -1 -4 -3t4 -3z" />
    <glyph glyph-name="uni0417" unicode="&#x437;" horiz-adv-x="441" 
d="M297 398q50 -20 82 -68t32 -123q0 -91 -66.5 -156.5t-161.5 -65.5q-83 0 -147 35q-16 9 -16 26v121q0 15 8 18.5t22 -9.5q39 -39 96 -39q42 0 67.5 25t25.5 67t-25.5 65t-70.5 23q-29 0 -29 32v79q0 12 7.5 19t19.5 7q38 0 59 22t21 62q0 34 -20 55t-49 21
q-47 0 -102 -55q-12 -12 -21 -8.5t-9 19.5v117q0 17 13 27q77 52 167 52q82 0 139 -57t57 -139q0 -121 -99 -166q-4 -1 -4 -3t4 -3z" />
    <glyph glyph-name="uni0418" unicode="&#x418;" horiz-adv-x="600" 
d="M383 417h-4q-29 -80 -83 -216t-74 -181q-9 -20 -32 -20h-121q-19 0 -19 20q0 1 1.5 167.5t1.5 189.5t-1.5 188t-1.5 166q0 19 22 19h124q21 0 21 -19q0 -2 -0.5 -37.5t-1 -80.5t-0.5 -70q0 -16 1 -83.5t1 -115.5h4q15 41 157 387q8 19 26 19h130q16 0 16 -19
q0 -2 -1.5 -167t-1.5 -187t1.5 -189t1.5 -168q0 -20 -20 -20h-124q-23 0 -23 20q0 2 0.5 36.5t1 80t0.5 75.5q0 57 -2 205z" />
    <glyph glyph-name="uni0418" unicode="&#x438;" horiz-adv-x="600" 
d="M383 417h-4q-29 -80 -83 -216t-74 -181q-9 -20 -32 -20h-121q-19 0 -19 20q0 1 1.5 167.5t1.5 189.5t-1.5 188t-1.5 166q0 19 22 19h124q21 0 21 -19q0 -2 -0.5 -37.5t-1 -80.5t-0.5 -70q0 -16 1 -83.5t1 -115.5h4q15 41 157 387q8 19 26 19h130q16 0 16 -19
q0 -2 -1.5 -167t-1.5 -187t1.5 -189t1.5 -168q0 -20 -20 -20h-124q-23 0 -23 20q0 2 0.5 36.5t1 80t0.5 75.5q0 57 -2 205z" />
    <glyph glyph-name="uni0419" unicode="&#x419;" horiz-adv-x="600" 
d="M299 791q-83 0 -124.5 38.5t-39.5 103.5q3 12 13 12h78q12 0 12 -13q0 -23 16.5 -38t44.5 -15t45 14.5t17 38.5q0 13 12 13h78q10 0 13 -12q2 -65 -39.5 -103.5t-125.5 -38.5zM383 417h-4q-29 -80 -83 -216t-74 -181q-9 -20 -32 -20h-121q-19 0 -19 20q0 1 1.5 167.5
t1.5 189.5t-1.5 188t-1.5 166q0 19 22 19h124q21 0 21 -19q0 -2 -0.5 -37.5t-1 -80.5t-0.5 -70q0 -16 1 -83.5t1 -115.5h4q15 41 157 387q8 19 26 19h130q16 0 16 -19q0 -2 -1.5 -167t-1.5 -187t1.5 -189t1.5 -168q0 -20 -20 -20h-124q-23 0 -23 20q0 2 0.5 36.5t1 80
t0.5 75.5q0 57 -2 205z" />
    <glyph glyph-name="uni0419" unicode="&#x439;" horiz-adv-x="600" 
d="M299 791q-83 0 -124.5 38.5t-39.5 103.5q3 12 13 12h78q12 0 12 -13q0 -23 16.5 -38t44.5 -15t45 14.5t17 38.5q0 13 12 13h78q10 0 13 -12q2 -65 -39.5 -103.5t-125.5 -38.5zM383 417h-4q-29 -80 -83 -216t-74 -181q-9 -20 -32 -20h-121q-19 0 -19 20q0 1 1.5 167.5
t1.5 189.5t-1.5 188t-1.5 166q0 19 22 19h124q21 0 21 -19q0 -2 -0.5 -37.5t-1 -80.5t-0.5 -70q0 -16 1 -83.5t1 -115.5h4q15 41 157 387q8 19 26 19h130q16 0 16 -19q0 -2 -1.5 -167t-1.5 -187t1.5 -189t1.5 -168q0 -20 -20 -20h-124q-23 0 -23 20q0 2 0.5 36.5t1 80
t0.5 75.5q0 57 -2 205z" />
    <glyph glyph-name="uni041A" unicode="&#x41a;" horiz-adv-x="531" 
d="M520 20q8 -20 -20 -20h-141q-20 0 -27 20q-10 29 -35.5 96.5t-47 123.5t-22.5 58q-4 10 -6 10q-3 0 -3 -8q0 -28 1.5 -151.5t1.5 -128.5q0 -20 -20 -20h-131q-20 0 -20 20l2 166q2 165 2 191t-2 189.5t-2 164.5q0 19 20 19h131q20 0 20 -19q0 -3 -1.5 -119t-1.5 -154
q0 -7 3 -7q2 0 6 9l110 270q8 20 25 20h144q20 0 9 -21q-93 -177 -170 -340q21 -46 91.5 -194t83.5 -175z" />
    <glyph glyph-name="uni041A" unicode="&#x43a;" horiz-adv-x="531" 
d="M520 20q8 -20 -20 -20h-141q-20 0 -27 20q-10 29 -35.5 96.5t-47 123.5t-22.5 58q-4 10 -6 10q-3 0 -3 -8q0 -28 1.5 -151.5t1.5 -128.5q0 -20 -20 -20h-131q-20 0 -20 20l2 166q2 165 2 191t-2 189.5t-2 164.5q0 19 20 19h131q20 0 20 -19q0 -3 -1.5 -119t-1.5 -154
q0 -7 3 -7q2 0 6 9l110 270q8 20 25 20h144q20 0 9 -21q-93 -177 -170 -340q21 -46 91.5 -194t83.5 -175z" />
    <glyph glyph-name="uni041B" unicode="&#x41b;" horiz-adv-x="572" 
d="M519 376q0 -23 0.5 -80t1.5 -138.5t1 -121.5q1 -16 -6.5 -26t-21.5 -10h-117q-14 1 -23 11.5t-9 25.5q0 66 1.5 197t1.5 144q0 1 -3 211q0 9 -8 9h-103q-8 0 -8 -9v-552q0 -15 -9 -25.5t-23 -11.5h-118q-26 0 -26 36v691q0 23 26 23h418q14 0 21.5 -6.5t6.5 -16.5
q0 -41 -1 -125.5t-1.5 -143t-0.5 -82.5z" />
    <glyph glyph-name="uni041B" unicode="&#x43b;" horiz-adv-x="572" 
d="M519 376q0 -23 0.5 -80t1.5 -138.5t1 -121.5q1 -16 -6.5 -26t-21.5 -10h-117q-14 1 -23 11.5t-9 25.5q0 66 1.5 197t1.5 144q0 1 -3 211q0 9 -8 9h-103q-8 0 -8 -9v-552q0 -15 -9 -25.5t-23 -11.5h-118q-26 0 -26 36v691q0 23 26 23h418q14 0 21.5 -6.5t6.5 -16.5
q0 -41 -1 -125.5t-1.5 -143t-0.5 -82.5z" />
    <glyph glyph-name="uni041C" unicode="&#x41c;" horiz-adv-x="687" 
d="M217 415q-3 -56 -14 -209.5t-13 -186.5q-2 -19 -15 -19h-130q-17 0 -15 20q24 264 32 328q13 108 34 383q2 19 19 19h138q17 0 20 -19l30 -178q32 -190 37 -230h4q8 54 23.5 140t16.5 90l30 178q3 19 20 19h138q17 0 19 -19q11 -148 34 -383q13 -123 32 -328
q2 -20 -15 -20h-135q-12 0 -14 19q-17 279 -18 396h-4l-69 -396q-3 -19 -17 -19h-87q-14 0 -17 19l-60 396h-4z" />
    <glyph glyph-name="uni041C" unicode="&#x43c;" horiz-adv-x="687" 
d="M217 415q-3 -56 -14 -209.5t-13 -186.5q-2 -19 -15 -19h-130q-17 0 -15 20q24 264 32 328q13 108 34 383q2 19 19 19h138q17 0 20 -19l30 -178q32 -190 37 -230h4q8 54 23.5 140t16.5 90l30 178q3 19 20 19h138q17 0 19 -19q11 -148 34 -383q13 -123 32 -328
q2 -20 -15 -20h-135q-12 0 -14 19q-17 279 -18 396h-4l-69 -396q-3 -19 -17 -19h-87q-14 0 -17 19l-60 396h-4z" />
    <glyph glyph-name="uni041D" unicode="&#x41d;" horiz-adv-x="573" 
d="M520 376q0 -23 0.5 -80t1.5 -138.5t1 -121.5q1 -16 -6.5 -26t-21.5 -10h-117q-14 1 -23 11.5t-9 25.5q0 3 3 122t3 136q0 9 -8 9h-115q-8 0 -8 -9q0 -19 3 -137.5t3 -120.5q0 -15 -9 -25.5t-23 -11.5h-118q-29 0 -27 36q4 252 4 341q0 92 -4 350q0 23 27 23h118
q14 0 23 -9t9 -23q-1 -53 -2.5 -114.5t-2.5 -93.5t-1 -44q0 -10 8 -10h115q8 0 8 10q0 12 -1 44.5t-2.5 95t-2.5 112.5q0 14 9 23t23 9h117q14 0 21.5 -6.5t6.5 -16.5q0 -41 -1 -125.5t-1.5 -143t-0.5 -82.5z" />
    <glyph glyph-name="uni041D" unicode="&#x43d;" horiz-adv-x="573" 
d="M520 376q0 -23 0.5 -80t1.5 -138.5t1 -121.5q1 -16 -6.5 -26t-21.5 -10h-117q-14 1 -23 11.5t-9 25.5q0 3 3 122t3 136q0 9 -8 9h-115q-8 0 -8 -9q0 -19 3 -137.5t3 -120.5q0 -15 -9 -25.5t-23 -11.5h-118q-29 0 -27 36q4 252 4 341q0 92 -4 350q0 23 27 23h118
q14 0 23 -9t9 -23q-1 -53 -2.5 -114.5t-2.5 -93.5t-1 -44q0 -10 8 -10h115q8 0 8 10q0 12 -1 44.5t-2.5 95t-2.5 112.5q0 14 9 23t23 9h117q14 0 21.5 -6.5t6.5 -16.5q0 -41 -1 -125.5t-1.5 -143t-0.5 -82.5z" />
    <glyph glyph-name="uni041E" unicode="&#x41e;" horiz-adv-x="622" 
d="M311 766q74 0 131 -33t90 -89.5t49 -124t16 -144.5q0 -76 -16 -143.5t-49 -124t-90 -89.5t-131 -33t-131 33t-90 89.5t-49 124t-16 143.5q0 77 16 144.5t49 124t90 89.5t131 33zM311 140q52 0 80.5 66t28.5 169q0 102 -29.5 169t-79.5 67t-80 -67t-30 -169t29.5 -168.5
t80.5 -66.5z" />
    <glyph glyph-name="uni041E" unicode="&#x43e;" horiz-adv-x="622" 
d="M311 766q74 0 131 -33t90 -89.5t49 -124t16 -144.5q0 -76 -16 -143.5t-49 -124t-90 -89.5t-131 -33t-131 33t-90 89.5t-49 124t-16 143.5q0 77 16 144.5t49 124t90 89.5t131 33zM311 140q52 0 80.5 66t28.5 169q0 102 -29.5 169t-79.5 67t-80 -67t-30 -169t29.5 -168.5
t80.5 -66.5z" />
    <glyph glyph-name="uni041F" unicode="&#x41f;" horiz-adv-x="573" 
d="M520 376q0 -23 0.5 -80t1.5 -138.5t1 -121.5q1 -16 -6.5 -26t-21.5 -10h-117q-14 1 -23 11.5t-9 25.5q0 66 1.5 197t1.5 144q0 1 -3 211q0 9 -8 9h-103q-8 0 -8 -9q-3 -70 -3 -211q0 -13 1.5 -144t1.5 -197q0 -15 -9 -25.5t-23 -11.5h-118q-29 0 -27 36q4 252 4 341
q0 92 -4 350q0 23 27 23h418q14 0 21.5 -6.5t6.5 -16.5q0 -41 -1 -125.5t-1.5 -143t-0.5 -82.5z" />
    <glyph glyph-name="uni041F" unicode="&#x43f;" horiz-adv-x="573" 
d="M520 376q0 -23 0.5 -80t1.5 -138.5t1 -121.5q1 -16 -6.5 -26t-21.5 -10h-117q-14 1 -23 11.5t-9 25.5q0 66 1.5 197t1.5 144q0 1 -3 211q0 9 -8 9h-103q-8 0 -8 -9q-3 -70 -3 -211q0 -13 1.5 -144t1.5 -197q0 -15 -9 -25.5t-23 -11.5h-118q-29 0 -27 36q4 252 4 341
q0 92 -4 350q0 23 27 23h418q14 0 21.5 -6.5t6.5 -16.5q0 -41 -1 -125.5t-1.5 -143t-0.5 -82.5z" />
    <glyph glyph-name="uni0420" unicode="&#x420;" horiz-adv-x="502" 
d="M208 750q128 0 203.5 -64.5t75.5 -173.5q0 -99 -67 -164t-181 -76q-20 -2 -20 -15v-121q0 -19 0.5 -46t0.5 -47.5v-22.5q0 -20 -17 -20h-136q-17 0 -17 20q0 3 1 82t2 165t1 107q0 28 -2 192l-2 165q0 19 22 19h136zM234 418q33 0 58.5 20.5t25.5 74.5q0 48 -26.5 69
t-57.5 21q-14 0 -14 -12v-161q0 -12 14 -12z" />
    <glyph glyph-name="uni0420" unicode="&#x440;" horiz-adv-x="502" 
d="M208 750q128 0 203.5 -64.5t75.5 -173.5q0 -99 -67 -164t-181 -76q-20 -2 -20 -15v-121q0 -19 0.5 -46t0.5 -47.5v-22.5q0 -20 -17 -20h-136q-17 0 -17 20q0 3 1 82t2 165t1 107q0 28 -2 192l-2 165q0 19 22 19h136zM234 418q33 0 58.5 20.5t25.5 74.5q0 48 -26.5 69
t-57.5 21q-14 0 -14 -12v-161q0 -12 14 -12z" />
    <glyph glyph-name="uni0421" unicode="&#x421;" horiz-adv-x="468" 
d="M420 164q18 0 18 -20v-112q0 -17 -13 -22q-42 -18 -106 -18q-129 0 -211.5 107t-82.5 274q0 170 82.5 278t211.5 108q69 0 107 -17q12 -5 12 -24v-112q0 -26 -26 -19t-55 7q-69 0 -113 -62.5t-44 -158.5t43 -156t111 -60q20 0 42 3.5t24 3.5z" />
    <glyph glyph-name="uni0421" unicode="&#x441;" horiz-adv-x="468" 
d="M420 164q18 0 18 -20v-112q0 -17 -13 -22q-42 -18 -106 -18q-129 0 -211.5 107t-82.5 274q0 170 82.5 278t211.5 108q69 0 107 -17q12 -5 12 -24v-112q0 -26 -26 -19t-55 7q-69 0 -113 -62.5t-44 -158.5t43 -156t111 -60q20 0 42 3.5t24 3.5z" />
    <glyph glyph-name="uni0422" unicode="&#x422;" horiz-adv-x="432" 
d="M391 750q21 0 21 -19v-122q0 -19 -21 -19h-82q-7 0 -7 -7q0 -1 -1 -83.5t-1 -123.5q0 -82 1 -218t1 -139q0 -19 -18 -19h-134q-19 0 -19 19q0 3 1 139t1 218q0 41 -1 123.5t-1 83.5q0 7 -8 7h-85q-18 0 -18 19v122q0 19 18 19h353z" />
    <glyph glyph-name="uni0422" unicode="&#x442;" horiz-adv-x="432" 
d="M391 750q21 0 21 -19v-122q0 -19 -21 -19h-82q-7 0 -7 -7q0 -1 -1 -83.5t-1 -123.5q0 -82 1 -218t1 -139q0 -19 -18 -19h-134q-19 0 -19 19q0 3 1 139t1 218q0 41 -1 123.5t-1 83.5q0 7 -8 7h-85q-18 0 -18 19v122q0 19 18 19h353z" />
    <glyph glyph-name="uni0423" unicode="&#x423;" horiz-adv-x="553" 
d="M282 409q22 110 55 212l36 111q6 18 25 18h130q26 0 18 -25l-250 -706q-6 -18 -25 -18h-129q-26 0 -18 25l68 193l-185 506q-8 25 18 25h132q19 0 25 -18l40 -120q27 -82 52 -203q1 -5 4 -5t4 5z" />
    <glyph glyph-name="uni0423" unicode="&#x443;" horiz-adv-x="553" 
d="M282 409q22 110 55 212l36 111q6 18 25 18h130q26 0 18 -25l-250 -706q-6 -18 -25 -18h-129q-26 0 -18 25l68 193l-185 506q-8 25 18 25h132q19 0 25 -18l40 -120q27 -82 52 -203q1 -5 4 -5t4 5z" />
    <glyph glyph-name="uni0424" unicode="&#x424;" horiz-adv-x="752" 
d="M727 375q0 -131 -69.5 -212t-200.5 -96v-62q0 -21 -25 -21h-122q-9 0 -16.5 5.5t-7.5 15.5q0 27 1 62q-127 16 -194.5 96.5t-67.5 211.5t67.5 211.5t194.5 96.5q-1 36 -1 65q0 18 24 18h123q24 0 24 -18v-65q131 -15 200.5 -96t69.5 -212zM456 220q95 25 95 155t-95 155
q-1 -65 -1 -153q0 -89 1 -157zM200 375q0 -127 88 -154q1 69 1 156q0 85 -1 152q-88 -27 -88 -154z" />
    <glyph glyph-name="uni0424" unicode="&#x444;" horiz-adv-x="752" 
d="M727 375q0 -131 -69.5 -212t-200.5 -96v-62q0 -21 -25 -21h-122q-9 0 -16.5 5.5t-7.5 15.5q0 27 1 62q-127 16 -194.5 96.5t-67.5 211.5t67.5 211.5t194.5 96.5q-1 36 -1 65q0 18 24 18h123q24 0 24 -18v-65q131 -15 200.5 -96t69.5 -212zM456 220q95 25 95 155t-95 155
q-1 -65 -1 -153q0 -89 1 -157zM200 375q0 -127 88 -154q1 69 1 156q0 85 -1 152q-88 -27 -88 -154z" />
    <glyph glyph-name="uni0425" unicode="&#x425;" horiz-adv-x="551" 
d="M543 20q13 -19 -17 -19h-150q-19 0 -27 20q-69 176 -74 176t-77 -176q-8 -20 -27 -20h-149q-26 0 -13 19q178 349 178 378q0 12 -37 89.5t-78.5 158t-43.5 85.5q-8 19 17 19h148q22 0 30 -19q1 -3 14.5 -42t24.5 -66.5t14 -27.5q2 0 7.5 12t12.5 31t13.5 36.5t12.5 35
t7 21.5q6 19 33 19h139q22 0 14 -19q-1 -2 -41.5 -82.5t-75.5 -155t-35 -86.5q0 -22 180 -387z" />
    <glyph glyph-name="uni0425" unicode="&#x445;" horiz-adv-x="551" 
d="M543 20q13 -19 -17 -19h-150q-19 0 -27 20q-69 176 -74 176t-77 -176q-8 -20 -27 -20h-149q-26 0 -13 19q178 349 178 378q0 12 -37 89.5t-78.5 158t-43.5 85.5q-8 19 17 19h148q22 0 30 -19q1 -3 14.5 -42t24.5 -66.5t14 -27.5q2 0 7.5 12t12.5 31t13.5 36.5t12.5 35
t7 21.5q6 19 33 19h139q22 0 14 -19q-1 -2 -41.5 -82.5t-75.5 -155t-35 -86.5q0 -22 180 -387z" />
    <glyph glyph-name="uni0426" unicode="&#x426;" horiz-adv-x="617" 
d="M577 152q20 0 20 -20v-231q0 -20 -20 -20h-124q-20 0 -20 20v99h-355q-14 0 -21.5 6.5t-6.5 16.5q0 41 1 125.5t1.5 143t0.5 82.5q0 23 -0.5 80t-1.5 138.5t-1 121.5q-1 16 6.5 26t21.5 10h117q14 -1 23 -11.5t9 -25.5q0 -66 -1.5 -197t-1.5 -144q0 -1 3 -211q0 -9 8 -9
h103q8 0 8 9q3 70 3 211q0 13 -1.5 144t-1.5 197q0 15 9 25.5t23 11.5h118q29 0 27 -36q-4 -252 -4 -341l2 -221h56z" />
    <glyph glyph-name="uni0426" unicode="&#x446;" horiz-adv-x="617" 
d="M577 152q20 0 20 -20v-231q0 -20 -20 -20h-124q-20 0 -20 20v99h-355q-14 0 -21.5 6.5t-6.5 16.5q0 41 1 125.5t1.5 143t0.5 82.5q0 23 -0.5 80t-1.5 138.5t-1 121.5q-1 16 6.5 26t21.5 10h117q14 -1 23 -11.5t9 -25.5q0 -66 -1.5 -197t-1.5 -144q0 -1 3 -211q0 -9 8 -9
h103q8 0 8 9q3 70 3 211q0 13 -1.5 144t-1.5 197q0 15 9 25.5t23 11.5h118q29 0 27 -36q-4 -252 -4 -341l2 -221h56z" />
    <glyph glyph-name="uni0427" unicode="&#x427;" horiz-adv-x="531" 
d="M481 732q0 -3 -0.5 -78.5t-1 -162t-0.5 -114.5t0.5 -114.5t1 -162.5t0.5 -79q0 -21 -25 -21h-120q-9 0 -16.5 5.5t-7.5 15.5v267q-43 -16 -98 -16q-107 0 -145.5 58.5t-38.5 173.5v224q0 22 22 22h124q22 0 22 -22v-195q0 -28 1.5 -42.5t7 -29.5t18 -21t33.5 -6
q31 0 54 14v284q0 18 24 18h121q24 0 24 -18z" />
    <glyph glyph-name="uni0427" unicode="&#x447;" horiz-adv-x="531" 
d="M481 732q0 -3 -0.5 -78.5t-1 -162t-0.5 -114.5t0.5 -114.5t1 -162.5t0.5 -79q0 -21 -25 -21h-120q-9 0 -16.5 5.5t-7.5 15.5v267q-43 -16 -98 -16q-107 0 -145.5 58.5t-38.5 173.5v224q0 22 22 22h124q22 0 22 -22v-195q0 -28 1.5 -42.5t7 -29.5t18 -21t33.5 -6
q31 0 54 14v284q0 18 24 18h121q24 0 24 -18z" />
    <glyph glyph-name="uni0428" unicode="&#x428;" horiz-adv-x="869" 
d="M792 750q29 0 27 -36q-4 -252 -4 -341q0 -92 4 -350q0 -23 -27 -23h-714q-14 0 -21.5 6.5t-6.5 16.5q0 41 1 125.5t1.5 143t0.5 82.5q0 23 -0.5 80t-1.5 138.5t-1 121.5q-1 16 6.5 26t21.5 10h117q14 -1 23 -11.5t9 -25.5q0 -66 -1.5 -197t-1.5 -144q0 -1 3 -211
q0 -9 8 -9h103q8 0 8 9q1 10 1.5 32.5t0.5 33.5q1 63 1 146q0 14 -1.5 144.5t-1.5 195.5v1q-1 16 6.5 26t21.5 10h122q29 0 27 -36v-1q0 -66 -1.5 -197t-1.5 -144q0 -1 3 -211q0 -9 8 -9h103q8 0 8 9q3 70 3 211q0 13 -1.5 144t-1.5 197q0 15 9 25.5t23 11.5h118z" />
    <glyph glyph-name="uni0428" unicode="&#x448;" horiz-adv-x="869" 
d="M792 750q29 0 27 -36q-4 -252 -4 -341q0 -92 4 -350q0 -23 -27 -23h-714q-14 0 -21.5 6.5t-6.5 16.5q0 41 1 125.5t1.5 143t0.5 82.5q0 23 -0.5 80t-1.5 138.5t-1 121.5q-1 16 6.5 26t21.5 10h117q14 -1 23 -11.5t9 -25.5q0 -66 -1.5 -197t-1.5 -144q0 -1 3 -211
q0 -9 8 -9h103q8 0 8 9q1 10 1.5 32.5t0.5 33.5q1 63 1 146q0 14 -1.5 144.5t-1.5 195.5v1q-1 16 6.5 26t21.5 10h122q29 0 27 -36v-1q0 -66 -1.5 -197t-1.5 -144q0 -1 3 -211q0 -9 8 -9h103q8 0 8 9q3 70 3 211q0 13 -1.5 144t-1.5 197q0 15 9 25.5t23 11.5h118z" />
    <glyph glyph-name="uni0429" unicode="&#x429;" horiz-adv-x="913" 
d="M873 152q20 0 20 -20v-231q0 -20 -20 -20h-124q-20 0 -20 20v99h-651q-14 0 -21.5 6.5t-6.5 16.5q0 41 1 125.5t1.5 143t0.5 82.5q0 23 -0.5 80t-1.5 138.5t-1 121.5q-1 16 6.5 26t21.5 10h117q14 -1 23 -11.5t9 -25.5q0 -66 -1.5 -197t-1.5 -144q0 -1 3 -211q0 -9 8 -9
h103q8 0 8 9q1 10 1.5 32.5t0.5 33.5q1 63 1 146q0 14 -1.5 144.5t-1.5 195.5v1q-1 16 6.5 26t21.5 10h122q29 0 27 -36v-1q0 -66 -1.5 -197t-1.5 -144q0 -1 3 -211q0 -9 8 -9h103q8 0 8 9q3 70 3 211q0 13 -1.5 144t-1.5 197q0 15 9 25.5t23 11.5h118q29 0 27 -36
q-4 -252 -4 -341l2 -221h56z" />
    <glyph glyph-name="uni0429" unicode="&#x449;" horiz-adv-x="913" 
d="M873 152q20 0 20 -20v-231q0 -20 -20 -20h-124q-20 0 -20 20v99h-651q-14 0 -21.5 6.5t-6.5 16.5q0 41 1 125.5t1.5 143t0.5 82.5q0 23 -0.5 80t-1.5 138.5t-1 121.5q-1 16 6.5 26t21.5 10h117q14 -1 23 -11.5t9 -25.5q0 -66 -1.5 -197t-1.5 -144q0 -1 3 -211q0 -9 8 -9
h103q8 0 8 9q1 10 1.5 32.5t0.5 33.5q1 63 1 146q0 14 -1.5 144.5t-1.5 195.5v1q-1 16 6.5 26t21.5 10h122q29 0 27 -36v-1q0 -66 -1.5 -197t-1.5 -144q0 -1 3 -211q0 -9 8 -9h103q8 0 8 9q3 70 3 211q0 13 -1.5 144t-1.5 197q0 15 9 25.5t23 11.5h118q29 0 27 -36
q-4 -252 -4 -341l2 -221h56z" />
    <glyph glyph-name="uni042A" unicode="&#x42a;" horiz-adv-x="560" 
d="M297 478q114 -11 181 -76t67 -164q0 -109 -75.5 -173.5t-203.5 -64.5h-136q-22 0 -22 19l2 165q2 164 2 192l-2 214h-70q-20 0 -20 20v120q0 20 20 20h221q17 0 17 -20v-22.5t-0.5 -47.5t-0.5 -46v-121q0 -13 20 -15zM292 147q31 0 57.5 21t26.5 69q0 54 -25.5 74.5
t-58.5 20.5q-14 0 -14 -12v-161q0 -12 14 -12z" />
    <glyph glyph-name="uni042A" unicode="&#x44a;" horiz-adv-x="560" 
d="M297 478q114 -11 181 -76t67 -164q0 -109 -75.5 -173.5t-203.5 -64.5h-136q-22 0 -22 19l2 165q2 164 2 192l-2 214h-70q-20 0 -20 20v120q0 20 20 20h221q17 0 17 -20v-22.5t-0.5 -47.5t-0.5 -46v-121q0 -13 20 -15zM292 147q31 0 57.5 21t26.5 69q0 54 -25.5 74.5
t-58.5 20.5q-14 0 -14 -12v-161q0 -12 14 -12z" />
    <glyph glyph-name="uni042B" unicode="&#x42b;" horiz-adv-x="773" 
d="M208 0h-136q-22 0 -22 19l2 165q2 164 2 192q0 21 -1 107t-2 165t-1 82q0 20 17 20h136q17 0 17 -20v-22.5t-0.5 -47.5t-0.5 -46v-121q0 -13 20 -15q114 -11 181 -76t67 -164q0 -109 -75.5 -173.5t-203.5 -64.5zM723 732q0 -3 -0.5 -78.5t-1 -162t-0.5 -114.5t0.5 -114.5
t1 -162.5t0.5 -79q0 -21 -25 -21h-122q-9 0 -16.5 5.5t-7.5 15.5q0 2 1 80t1.5 165t0.5 111q0 25 -0.5 111t-1.5 163.5t-1 80.5q0 18 24 18h123q24 0 24 -18zM234 332q-14 0 -14 -12v-161q0 -12 14 -12q31 0 57.5 21t26.5 69q0 54 -25.5 74.5t-58.5 20.5z" />
    <glyph glyph-name="uni042B" unicode="&#x44b;" horiz-adv-x="773" 
d="M208 0h-136q-22 0 -22 19l2 165q2 164 2 192q0 21 -1 107t-2 165t-1 82q0 20 17 20h136q17 0 17 -20v-22.5t-0.5 -47.5t-0.5 -46v-121q0 -13 20 -15q114 -11 181 -76t67 -164q0 -109 -75.5 -173.5t-203.5 -64.5zM723 732q0 -3 -0.5 -78.5t-1 -162t-0.5 -114.5t0.5 -114.5
t1 -162.5t0.5 -79q0 -21 -25 -21h-122q-9 0 -16.5 5.5t-7.5 15.5q0 2 1 80t1.5 165t0.5 111q0 25 -0.5 111t-1.5 163.5t-1 80.5q0 18 24 18h123q24 0 24 -18zM234 332q-14 0 -14 -12v-161q0 -12 14 -12q31 0 57.5 21t26.5 69q0 54 -25.5 74.5t-58.5 20.5z" />
    <glyph glyph-name="uni042C" unicode="&#x42c;" horiz-adv-x="502" 
d="M208 0h-136q-22 0 -22 19l2 165q2 164 2 192q0 21 -1 107t-2 165t-1 82q0 20 17 20h136q17 0 17 -20v-22.5t-0.5 -47.5t-0.5 -46v-121q0 -13 20 -15q114 -11 181 -76t67 -164q0 -109 -75.5 -173.5t-203.5 -64.5zM234 332q-14 0 -14 -12v-161q0 -12 14 -12q31 0 57.5 21
t26.5 69q0 54 -25.5 74.5t-58.5 20.5z" />
    <glyph glyph-name="uni042C" unicode="&#x44c;" horiz-adv-x="502" 
d="M208 0h-136q-22 0 -22 19l2 165q2 164 2 192q0 21 -1 107t-2 165t-1 82q0 20 17 20h136q17 0 17 -20v-22.5t-0.5 -47.5t-0.5 -46v-121q0 -13 20 -15q114 -11 181 -76t67 -164q0 -109 -75.5 -173.5t-203.5 -64.5zM234 332q-14 0 -14 -12v-161q0 -12 14 -12q31 0 57.5 21
t26.5 69q0 54 -25.5 74.5t-58.5 20.5z" />
    <glyph glyph-name="uni042D" unicode="&#x42d;" horiz-adv-x="492" 
d="M157 759q136 0 223 -105.5t87 -280.5q0 -172 -87 -276.5t-223 -104.5q-72 0 -114 18q-13 5 -13 22v118q0 17 18 14q42 -7 76 -7q137 0 162 141h-185q-20 0 -20 20v112q0 20 20 20h185q-26 144 -165 144q-37 0 -65 -7q-26 -7 -26 19v112q0 19 12 24q35 17 115 17z" />
    <glyph glyph-name="uni042D" unicode="&#x44d;" horiz-adv-x="492" 
d="M157 759q136 0 223 -105.5t87 -280.5q0 -172 -87 -276.5t-223 -104.5q-72 0 -114 18q-13 5 -13 22v118q0 17 18 14q42 -7 76 -7q137 0 162 141h-185q-20 0 -20 20v112q0 20 20 20h185q-26 144 -165 144q-37 0 -65 -7q-26 -7 -26 19v112q0 19 12 24q35 17 115 17z" />
    <glyph glyph-name="uni042E" unicode="&#x42e;" horiz-adv-x="890" 
d="M573 766q76 0 134 -33t91.5 -89.5t50 -124t16.5 -144.5q0 -76 -16.5 -143.5t-50 -124t-91.5 -89.5t-134 -33q-66 0 -119 25t-87 69.5t-54 99t-28 119.5h-66l2 -276q0 -21 -25 -21h-122q-9 0 -16.5 5.5t-7.5 15.5q0 2 1 80t1.5 165t0.5 111q0 25 -0.5 111t-1.5 163.5
t-1 80.5q0 18 24 18h123q24 0 24 -18l-2 -275h67q8 64 28.5 118t54.5 97.5t86 68t118 24.5zM573 140q55 0 85 66t30 169q0 102 -31 169t-84 67t-84.5 -67t-31.5 -169q0 -103 31 -169t85 -66z" />
    <glyph glyph-name="uni042E" unicode="&#x44e;" horiz-adv-x="890" 
d="M573 766q76 0 134 -33t91.5 -89.5t50 -124t16.5 -144.5q0 -76 -16.5 -143.5t-50 -124t-91.5 -89.5t-134 -33q-66 0 -119 25t-87 69.5t-54 99t-28 119.5h-66l2 -276q0 -21 -25 -21h-122q-9 0 -16.5 5.5t-7.5 15.5q0 2 1 80t1.5 165t0.5 111q0 25 -0.5 111t-1.5 163.5
t-1 80.5q0 18 24 18h123q24 0 24 -18l-2 -275h67q8 64 28.5 118t54.5 97.5t86 68t118 24.5zM573 140q55 0 85 66t30 169q0 102 -31 169t-84 67t-84.5 -67t-31.5 -169q0 -103 31 -169t85 -66z" />
    <glyph glyph-name="uni042F" unicode="&#x42f;" horiz-adv-x="514" 
d="M464 730q0 -2 -0.5 -77t-1 -161t-0.5 -115q0 -40 1 -167t1 -190q0 -20 -18 -20h-131q-19 0 -19 20q2 206 1 278l-56 -151q-8 -19 -19.5 -48.5t-20.5 -53.5t-10 -26q-8 -19 -28 -19h-135q-10 0 -15 5t-1 14q16 33 60 135q64 154 72 172q-115 57 -115 193q0 60 20.5 105
t49.5 68.5t69.5 37t70 17t62.5 3.5h144q7 0 13 -5t6 -15zM296 438v162q0 12 -12 12q-40 0 -64.5 -24.5t-24.5 -65.5t23.5 -70t62.5 -29q15 0 15 15z" />
    <glyph glyph-name="uni042F" unicode="&#x44f;" horiz-adv-x="514" 
d="M464 730q0 -2 -0.5 -77t-1 -161t-0.5 -115q0 -40 1 -167t1 -190q0 -20 -18 -20h-131q-19 0 -19 20q2 206 1 278l-56 -151q-8 -19 -19.5 -48.5t-20.5 -53.5t-10 -26q-8 -19 -28 -19h-135q-10 0 -15 5t-1 14q16 33 60 135q64 154 72 172q-115 57 -115 193q0 60 20.5 105
t49.5 68.5t69.5 37t70 17t62.5 3.5h144q7 0 13 -5t6 -15zM296 438v162q0 12 -12 12q-40 0 -64.5 -24.5t-24.5 -65.5t23.5 -70t62.5 -29q15 0 15 15z" />
    <glyph glyph-name="uni0490" unicode="&#x490;" horiz-adv-x="412" 
d="M372 869q20 0 20 -20v-239q0 -20 -20 -20h-144q-7 0 -7 -7q0 -1 -1 -83.5t-1 -123.5q0 -82 1 -218t1 -139q0 -19 -18 -19h-134q-19 0 -19 19q0 3 1 139t1 218q0 119 -2 355q0 19 18 19h160v99q0 20 20 20h124z" />
    <glyph glyph-name="uni0490" unicode="&#x491;" horiz-adv-x="412" 
d="M372 869q20 0 20 -20v-239q0 -20 -20 -20h-144q-7 0 -7 -7q0 -1 -1 -83.5t-1 -123.5q0 -82 1 -218t1 -139q0 -19 -18 -19h-134q-19 0 -19 19q0 3 1 139t1 218q0 119 -2 355q0 19 18 19h160v99q0 20 20 20h124z" />
    <glyph glyph-name="Wgrave" unicode="&#x1e80;" horiz-adv-x="821" 
d="M222 945h129q20 0 34 -20l77 -104q6 -6 3 -13.5t-15 -7.5h-90q-22 0 -40 18q-15 15 -41.5 40.5t-43.5 42.5t-22 23q-18 21 9 21zM797 750q23 0 18 -19q-18 -72 -83 -358l-81 -353q-5 -20 -21 -20h-131q-16 0 -19 19l-25 160q-4 25 -14.5 97t-18 122.5t-8.5 50.5t-43 -270
l-24 -160q-3 -19 -17 -19h-135q-16 0 -21 19l-80 354q-34 148 -88 358q-5 19 14 19h139q21 0 24 -19q5 -22 25 -145q42 -259 50 -259q3 0 36 178t41 225q3 20 23 20h104q25 0 28 -19q3 -20 23 -120t39 -192l18 -92q2 0 49 259q21 113 25 145q5 19 26 19h127z" />
    <glyph glyph-name="Wgrave" unicode="&#x1e81;" horiz-adv-x="821" 
d="M222 945h129q20 0 34 -20l77 -104q6 -6 3 -13.5t-15 -7.5h-90q-22 0 -40 18q-15 15 -41.5 40.5t-43.5 42.5t-22 23q-18 21 9 21zM797 750q23 0 18 -19q-18 -72 -83 -358l-81 -353q-5 -20 -21 -20h-131q-16 0 -19 19l-25 160q-4 25 -14.5 97t-18 122.5t-8.5 50.5t-43 -270
l-24 -160q-3 -19 -17 -19h-135q-16 0 -21 19l-80 354q-34 148 -88 358q-5 19 14 19h139q21 0 24 -19q5 -22 25 -145q42 -259 50 -259q3 0 36 178t41 225q3 20 23 20h104q25 0 28 -19q3 -20 23 -120t39 -192l18 -92q2 0 49 259q21 113 25 145q5 19 26 19h127z" />
    <glyph glyph-name="Wacute" unicode="&#x1e82;" horiz-adv-x="821" 
d="M594 945q27 0 9 -21q-5 -6 -22 -23t-43.5 -42.5t-41.5 -40.5q-18 -18 -40 -18h-90q-12 0 -15 7.5t3 13.5l77 104q14 20 34 20h129zM797 750q23 0 18 -19q-18 -72 -83 -358l-81 -353q-5 -20 -21 -20h-131q-16 0 -19 19l-25 160q-4 25 -14.5 97t-18 122.5t-8.5 50.5
t-43 -270l-24 -160q-3 -19 -17 -19h-135q-16 0 -21 19l-80 354q-34 148 -88 358q-5 19 14 19h139q21 0 24 -19q5 -22 25 -145q42 -259 50 -259q3 0 36 178t41 225q3 20 23 20h104q25 0 28 -19q3 -20 23 -120t39 -192l18 -92q2 0 49 259q21 113 25 145q5 19 26 19h127z" />
    <glyph glyph-name="Wacute" unicode="&#x1e83;" horiz-adv-x="821" 
d="M594 945q27 0 9 -21q-5 -6 -22 -23t-43.5 -42.5t-41.5 -40.5q-18 -18 -40 -18h-90q-12 0 -15 7.5t3 13.5l77 104q14 20 34 20h129zM797 750q23 0 18 -19q-18 -72 -83 -358l-81 -353q-5 -20 -21 -20h-131q-16 0 -19 19l-25 160q-4 25 -14.5 97t-18 122.5t-8.5 50.5
t-43 -270l-24 -160q-3 -19 -17 -19h-135q-16 0 -21 19l-80 354q-34 148 -88 358q-5 19 14 19h139q21 0 24 -19q5 -22 25 -145q42 -259 50 -259q3 0 36 178t41 225q3 20 23 20h104q25 0 28 -19q3 -20 23 -120t39 -192l18 -92q2 0 49 259q21 113 25 145q5 19 26 19h127z" />
    <glyph glyph-name="Wdieresis" unicode="&#x1e84;" horiz-adv-x="821" 
d="M304 792q-35 0 -59.5 23t-24.5 53t24.5 52.5t59.5 22.5q34 0 58.5 -22.5t24.5 -52.5t-24.5 -53t-58.5 -23zM534 792q-35 0 -59.5 23t-24.5 53t24.5 52.5t59.5 22.5q34 0 58.5 -22.5t24.5 -52.5t-24.5 -53t-58.5 -23zM797 750q23 0 18 -19q-18 -72 -83 -358l-81 -353
q-5 -20 -21 -20h-131q-16 0 -19 19l-25 160q-4 25 -14.5 97t-18 122.5t-8.5 50.5t-43 -270l-24 -160q-3 -19 -17 -19h-135q-16 0 -21 19l-80 354q-34 148 -88 358q-5 19 14 19h139q21 0 24 -19q5 -22 25 -145q42 -259 50 -259q3 0 36 178t41 225q3 20 23 20h104q25 0 28 -19
q3 -20 23 -120t39 -192l18 -92q2 0 49 259q21 113 25 145q5 19 26 19h127z" />
    <glyph glyph-name="Wdieresis" unicode="&#x1e85;" horiz-adv-x="821" 
d="M304 792q-35 0 -59.5 23t-24.5 53t24.5 52.5t59.5 22.5q34 0 58.5 -22.5t24.5 -52.5t-24.5 -53t-58.5 -23zM534 792q-35 0 -59.5 23t-24.5 53t24.5 52.5t59.5 22.5q34 0 58.5 -22.5t24.5 -52.5t-24.5 -53t-58.5 -23zM797 750q23 0 18 -19q-18 -72 -83 -358l-81 -353
q-5 -20 -21 -20h-131q-16 0 -19 19l-25 160q-4 25 -14.5 97t-18 122.5t-8.5 50.5t-43 -270l-24 -160q-3 -19 -17 -19h-135q-16 0 -21 19l-80 354q-34 148 -88 358q-5 19 14 19h139q21 0 24 -19q5 -22 25 -145q42 -259 50 -259q3 0 36 178t41 225q3 20 23 20h104q25 0 28 -19
q3 -20 23 -120t39 -192l18 -92q2 0 49 259q21 113 25 145q5 19 26 19h127z" />
    <glyph glyph-name="Ygrave" unicode="&#x1ef2;" horiz-adv-x="514" 
d="M71 945h129q20 0 34 -20l77 -104q6 -6 3 -13.5t-15 -7.5h-90q-22 0 -40 18q-15 15 -41.5 40.5t-43.5 42.5t-22 23q-18 21 9 21zM492 750q25 0 15 -21q-59 -122 -97 -211q-42 -98 -67 -170q-2 -90 -2 -169q0 -81 2 -159q-2 -19 -20 -19h-134q-16 0 -18 19q2 68 2 159
q0 89 -2 169q-52 131 -69 170q-68 159 -95 212q-5 9 0 14.5t18 5.5h128q24 0 32 -20q8 -18 78 -212q3 7 19.5 55t35 100.5t19.5 56.5q7 20 29 20h126z" />
    <glyph glyph-name="Ygrave" unicode="&#x1ef3;" horiz-adv-x="514" 
d="M71 945h129q20 0 34 -20l77 -104q6 -6 3 -13.5t-15 -7.5h-90q-22 0 -40 18q-15 15 -41.5 40.5t-43.5 42.5t-22 23q-18 21 9 21zM492 750q25 0 15 -21q-59 -122 -97 -211q-42 -98 -67 -170q-2 -90 -2 -169q0 -81 2 -159q-2 -19 -20 -19h-134q-16 0 -18 19q2 68 2 159
q0 89 -2 169q-52 131 -69 170q-68 159 -95 212q-5 9 0 14.5t18 5.5h128q24 0 32 -20q8 -18 78 -212q3 7 19.5 55t35 100.5t19.5 56.5q7 20 29 20h126z" />
    <glyph glyph-name="endash" unicode="&#x2013;" horiz-adv-x="500" 
d="M470 350q0 -12 -8 -20t-20 -8h-389q-10 0 -16.5 8t-6.5 20v64q0 11 6.5 18.5t16.5 7.5h389q12 0 20 -7.5t8 -18.5v-64z" />
    <glyph glyph-name="emdash" unicode="&#x2014;" horiz-adv-x="800" 
d="M770 350q0 -12 -8 -20t-20 -8h-689q-10 0 -16.5 8t-6.5 20v64q0 11 6.5 18.5t16.5 7.5h689q12 0 20 -7.5t8 -18.5v-64z" />
    <glyph glyph-name="quoteleft" unicode="&#x2018;" horiz-adv-x="262" 
d="M45 419q-14 0 -20.5 10t-1.5 26l76 236q19 59 62 59h38q42 0 30 -59l-54 -237q-3 -15 -14.5 -25t-25.5 -10h-90z" />
    <glyph glyph-name="quoteright" unicode="&#x2019;" horiz-adv-x="262" 
d="M208 750q14 0 20.5 -10t1.5 -26l-76 -236q-19 -59 -62 -59h-38q-42 0 -30 59l54 237q3 15 14.5 25t25.5 10h90z" />
    <glyph glyph-name="quotesinglbase" unicode="&#x201a;" horiz-adv-x="256" 
d="M202 185q14 0 20.5 -10t1.5 -26l-76 -236q-19 -59 -62 -59h-38q-42 0 -30 59l54 237q3 15 14.5 25t25.5 10h90z" />
    <glyph glyph-name="quotedblleft" unicode="&#x201c;" horiz-adv-x="446" 
d="M45 419q-14 0 -20.5 10t-1.5 26l76 236q19 59 62 59h38q42 0 30 -59l-54 -237q-3 -15 -14.5 -25t-25.5 -10h-90zM229 419q-14 0 -20.5 10t-1.5 26l76 236q19 59 62 59h38q42 0 30 -59l-54 -237q-3 -15 -14.5 -25t-25.5 -10h-90z" />
    <glyph glyph-name="quotedblright" unicode="&#x201d;" horiz-adv-x="446" 
d="M208 750q14 0 20.5 -10t1.5 -26l-76 -236q-19 -59 -62 -59h-38q-42 0 -30 59l54 237q3 15 14.5 25t25.5 10h90zM392 750q14 0 20.5 -10t1.5 -26l-76 -236q-19 -59 -62 -59h-38q-42 0 -30 59l54 237q3 15 14.5 25t25.5 10h90z" />
    <glyph glyph-name="quotedblbase" unicode="&#x201e;" horiz-adv-x="458" 
d="M202 185q14 0 20.5 -10t1.5 -26l-76 -236q-19 -59 -62 -59h-38q-42 0 -30 59l54 237q3 15 14.5 25t25.5 10h90zM404 185q14 0 20.5 -10t1.5 -26l-76 -236q-19 -59 -62 -59h-38q-42 0 -30 59l54 237q3 15 14.5 25t25.5 10h90z" />
    <glyph glyph-name="dagger" unicode="&#x2020;" horiz-adv-x="447" 
d="M402 598q25 0 25 -25v-68q0 -25 -25 -25h-117v-455q0 -25 -25 -25h-72q-25 0 -25 25v455h-118q-25 0 -25 25v68q0 25 25 25h118v127q0 25 25 25h72q25 0 25 -25v-127h117z" />
    <glyph glyph-name="daggerdbl" unicode="&#x2021;" horiz-adv-x="447" 
d="M402 480h-117v-210h117q25 0 25 -25v-68q0 -25 -25 -25h-117v-127q0 -25 -25 -25h-72q-25 0 -25 25v127h-118q-25 0 -25 25v68q0 25 25 25h118v210h-118q-25 0 -25 25v68q0 25 25 25h118v127q0 25 25 25h72q25 0 25 -25v-127h117q25 0 25 -25v-68q0 -25 -25 -25z" />
    <glyph glyph-name="bullet" unicode="&#x2022;" horiz-adv-x="401" 
d="M201 548q67 0 113.5 -47.5t46.5 -115.5t-46.5 -115.5t-113.5 -47.5t-114 47.5t-47 115.5t47 115.5t114 47.5z" />
    <glyph glyph-name="ellipsis" unicode="&#x2026;" horiz-adv-x="719" 
d="M133 229q40 0 66 -34.5t26 -87.5t-26 -87.5t-66 -34.5q-41 0 -67 34.5t-26 87.5t26 87.5t67 34.5zM359 229q40 0 66 -34.5t26 -87.5t-26 -87.5t-66 -34.5q-41 0 -67 34.5t-26 87.5t26 87.5t67 34.5zM587 229q40 0 66 -34.5t26 -87.5t-26 -87.5t-66 -34.5q-41 0 -67 34.5
t-26 87.5t26 87.5t67 34.5z" />
    <glyph glyph-name="perthousand" unicode="&#x2030;" horiz-adv-x="1173" 
d="M361 560q0 -98 -48.5 -152.5t-121.5 -54.5q-74 0 -122.5 54.5t-48.5 152.5q0 97 48.5 151.5t122.5 54.5q73 0 121.5 -54.5t48.5 -151.5zM660 728l-201 -363l-186 -344q-11 -21 -28 -21h-91q-20 0 -9 21l202 368l184 340q11 21 31 21h85q26 0 13 -22zM136 560
q0 -105 55 -105q24 0 40 27.5t16 77.5q0 52 -17 76t-39 24t-38.5 -24t-16.5 -76zM781 191q0 -98 -48.5 -152.5t-121.5 -54.5q-74 0 -122.5 54.5t-48.5 152.5q0 97 48.5 151.5t122.5 54.5q73 0 121.5 -54.5t48.5 -151.5zM1153 191q0 -98 -48.5 -152.5t-121.5 -54.5
q-74 0 -122.5 54.5t-48.5 152.5q0 97 48.5 151.5t122.5 54.5q73 0 121.5 -54.5t48.5 -151.5zM556 191q0 -105 55 -105q24 0 40 27.5t16 77.5q0 52 -17 76t-39 24t-38.5 -24t-16.5 -76zM928 191q0 -105 55 -105q24 0 40 27.5t16 77.5q0 52 -17 76t-39 24t-38.5 -24t-16.5 -76
z" />
    <glyph glyph-name="guilsinglleft" unicode="&#x2039;" horiz-adv-x="314" 
d="M284 509q0 -25 -14 -37l-113 -96l113 -97q14 -12 14 -37v-109q0 -9 -7.5 -12t-20.5 7l-229 208q-17 14 -17 37q0 19 15 34l232 215q13 10 20 6t7 -13v-106z" />
    <glyph glyph-name="guilsinglright" unicode="&#x203a;" horiz-adv-x="314" 
d="M30 240q0 25 14 37l113 96l-113 97q-14 12 -14 37v109q0 9 7.5 12t20.5 -7l229 -208q17 -14 17 -37q0 -19 -15 -34l-232 -215q-13 -10 -20 -6t-7 13v106z" />
    <glyph glyph-name="fraction" unicode="&#x2044;" horiz-adv-x="533" 
d="M524 728l-201 -363l-186 -344q-11 -21 -28 -21h-91q-20 0 -9 21l202 368l184 340q11 21 31 21h85q26 0 13 -22z" />
    <glyph glyph-name="uni2074" unicode="&#x2074;" horiz-adv-x="273" 
d="M253 481q0 -14 -9 -14h-14q-9 0 -9 -10v-73q0 -9 -11 -9h-68q-9 0 -9 10v69q0 13 -11 13h-96q-16 0 -16 12v51q0 6 5 18l79 192q4 10 14 10h102q11 0 11 -10v-99v-88q0 -13 11 -13h12q9 0 9 -10v-49zM133 664l-40 -114q-3 -10 3 -10h27q10 0 10 12v112z" />
    <glyph glyph-name="uni2081" unicode="&#x2081;" horiz-adv-x="190" 
d="M160 248v-356q0 -11 -9 -11h-73q-8 0 -8 11v269l-54 -6q-11 -2 -11 9v68q0 8 9 9l137 16q4 1 6.5 -2t2.5 -7z" />
    <glyph glyph-name="uni2082" unicode="&#x2082;" horiz-adv-x="276" 
d="M233 -33q16 0 16 -18v-50q0 -18 -15 -18h-199q-12 0 -15 7t2 14l105 161q33 52 33 93q0 35 -25 35q-31 0 -31 -54q0 -11 -12 -11h-66q-11 0 -11 12q0 65 31.5 99.5t89.5 34.5q54 0 84.5 -29t30.5 -77q0 -34 -12.5 -67.5t-25.5 -54.5t-51 -77h71z" />
    <glyph glyph-name="uni2083" unicode="&#x2083;" horiz-adv-x="282" 
d="M190 85q67 -21 67 -95q0 -56 -32.5 -88.5t-93.5 -32.5q-113 0 -121 119q0 17 13 17h60q12 0 15 -15q6 -44 34 -44q31 0 31 51q0 45 -42 45q-15 0 -15 17v42q0 12 14 12q34 0 34 41t-23 41q-19 0 -27 -30q-4 -15 -19 -15h-55q-17 0 -14 20q13 102 120 102q50 0 81.5 -27.5
t31.5 -73.5q0 -65 -59 -83v-3z" />
    <glyph glyph-name="uni2084" unicode="&#x2084;" horiz-adv-x="273" 
d="M253 -13q0 -14 -9 -14h-14q-9 0 -9 -10v-73q0 -9 -11 -9h-68q-9 0 -9 10v69q0 13 -11 13h-96q-16 0 -16 12v51q0 6 5 18l79 192q4 10 14 10h102q11 0 11 -10v-99v-88q0 -13 11 -13h12q9 0 9 -10v-49zM133 170l-40 -114q-3 -10 3 -10h27q10 0 10 12v112z" />
    <glyph glyph-name="Euro" unicode="&#x20ac;" horiz-adv-x="522" 
d="M416 594q-47 0 -83.5 -30.5t-56.5 -83.5q37 0 93 0.5t64 0.5q25 0 25 -25v-33q0 -25 -25 -25h-173q-1 -8 -1 -25q0 -21 1 -31q136 2 173 2q25 0 25 -25v-33q0 -25 -25 -25q-92 0 -155 1q20 -49 55 -77t80 -28q20 0 41.5 3.5t24.5 3.5q18 0 18 -20v-112q0 -17 -13 -22
q-42 -18 -106 -18q-105 0 -181 73.5t-102 195.5h-70q-25 0 -25 25v33q0 25 25 25q37 0 60 -1q-1 10 -1 30v25h-59q-25 0 -25 25v33q0 25 25 25q42 0 69 -1q24 127 100.5 203t183.5 76q69 0 107 -17q12 -5 12 -24v-112q0 -26 -26 -19t-55 7z" />
    <glyph glyph-name="uni20B4" unicode="&#x20b4;" horiz-adv-x="506" 
d="M481 394h-107q-9 -8 -29.5 -25t-30.5 -26l167 2q25 0 25 -25v-33q0 -25 -25 -25h-227h-14q-11 -19 -11 -43q0 -23 14 -43t50 -20q53 0 129 57q4 3 9 4t9 -2t4 -10v-146q0 -13 -15 -24q-72 -50 -153 -50q-96 0 -152.5 56.5t-56.5 152.5q0 42 8 68h-50q-25 0 -25 25v33
q0 25 25 25q47 0 78 -1q18 29 38 50h-116q-25 0 -25 25v33q0 25 25 25q17 0 90 -1t122 -1q53 42 53 76q0 22 -15 36.5t-49 14.5q-48 0 -108 -33q-17 -10 -17 10v136q0 16 20 25q64 26 140 26q90 0 143 -52.5t53 -141.5q0 -55 -29 -95h53q25 0 25 -25v-33q0 -25 -25 -25z" />
    </font>
</defs>
</svg>
